<svg xmlns="http://www.w3.org/2000/svg">
<defs>
<font id="GTAmerica-ExpandedMedium" horiz-adv-x="803" >
  <font-face 
    font-family="GT America Expanded Medium"
    font-weight="500"
    font-stretch="ultra-expanded"
    units-per-em="1000"
    panose-1="0 0 0 0 0 0 0 0 0 0"
    ascent="785"
    descent="-215"
    x-height="500"
    cap-height="710"
    bbox="-309 -242 1643 961"
    underline-thickness="50"
    underline-position="-175"
    unicode-range="U+000D-1F503"
  />
<missing-glyph horiz-adv-x="1018" 
d="M20 237h977v-48h-977v48zM20 47h978v-47h-978v47zM20 142h978v-47h-978v47zM20 710h978v-47h-552v-47h552v-48h-552v-47h552v-48h-552v-47h552v-47h-552v-48h552v-47h-978v426zM52 318l-5 -15l12 9l13 -9l-5 15l13 9h-16l-5 15l-4 -15h-16zM52 405l-5 -14l12 9l13 -9
l-5 14l13 9h-16l-5 15l-4 -15h-16zM52 492l-5 -14l12 9l13 -9l-5 14l13 10h-16l-5 14l-4 -14h-16zM52 580l-5 -15l12 9l13 -9l-5 15l13 9h-16l-5 14l-4 -14h-16zM52 667l-5 -15l12 9l13 -9l-5 15l13 9h-16l-5 15l-4 -15h-16zM95 362l-4 -15l12 9l12 -9l-4 15l12 9h-15l-5 14
l-5 -14h-15zM95 623l-4 -14l12 9l12 -9l-4 14l12 9h-15l-5 15l-5 -15h-15zM193 457v-93h80v93h94v80h-94v94h-80v-94h-93v-80h93zM139 318l-5 -15l12 9l13 -9l-5 15l12 9h-15l-5 15l-4 -15h-16zM139 405l-5 -14l12 9l13 -9l-5 14l12 9h-15l-5 15l-4 -15h-16zM139 580l-5 -15
l12 9l13 -9l-5 15l12 9h-15l-5 14l-4 -14h-16zM139 667l-5 -15l12 10l13 -10l-5 15l12 9h-15l-5 15l-4 -15h-16zM226 318l-5 -15l12 9l13 -9l-5 15l12 9h-15l-5 15l-4 -15h-16zM226 667l-5 -15l12 10l13 -10l-5 15l12 9h-15l-5 15l-4 -15h-16zM313 318l-5 -15l12 9l13 -9
l-5 15l12 9h-15l-5 15l-5 -15h-15zM313 405l-5 -14l12 9l13 -9l-5 14l12 9h-15l-5 15l-5 -15h-15zM313 580l-5 -15l12 9l13 -9l-5 15l12 9h-15l-5 14l-5 -14h-15zM313 667l-5 -15l12 10l13 -10l-5 15l12 9h-15l-5 15l-5 -15h-15zM356 362l-5 -15l13 9l12 -9l-5 15l13 9h-16
l-4 14l-5 -14h-15zM356 623l-5 -14l13 9l12 -9l-5 14l13 9h-16l-4 15l-5 -15h-15zM399 318l-4 -15l12 9l13 -9l-5 15l12 9h-15l-5 15l-5 -15h-15zM399 405l-4 -14l12 9l13 -9l-5 14l12 9h-15l-5 15l-5 -15h-15zM399 492l-4 -14l12 9l13 -9l-5 14l12 10h-15l-5 14l-5 -14h-15

<glyph glyph-name="fi" unicode="fi" horiz-adv-x="889" 
d="M544 404h-229v-404h-140v404h-155v96h155v27q0 106 62 157t190 51q62 0 117 -12v-103q-51 10 -108 10q-65 0 -93 -23.5t-28 -78.5v-28h229v-96zM654 500h140v-500h-140v500zM646 716h156v-133h-156v133z" />
    <glyph glyph-name="fl" unicode="fl" horiz-adv-x="889" 
d="M544 404h-229v-404h-140v404h-155v96h155v27q0 106 62 157t190 51q62 0 117 -12v-103q-51 10 -108 10q-65 0 -93 -23.5t-28 -78.5v-28h229v-96zM794 0h-140v725h140v-725z" />
    <glyph glyph-name="g_g.liga" unicode="gg" horiz-adv-x="1597" 
d="M230 188q-44 -12 -44 -42q0 -40 75 -40h291q200 0 200 -143q0 -91 -90.5 -134t-283.5 -43q-169 0 -251 31.5t-82 98.5q0 36 22 59t69 36q-35 13 -54 35.5t-19 53.5q0 41 30 68.5t85 40.5q-93 48 -93 136q0 83 83 129.5t230 46.5q107 0 182 -26q13 45 52 68.5t100 23.5
q26 0 45 -4v-98q-15 5 -52 5q-57 0 -83 -24q70 -47 70 -121q0 -83 -84 -131t-230 -48q-96 0 -168 22zM392 -137q121 0 175 18t54 58q0 29 -22.5 42t-72.5 13l-292 2q-12 0 -36 2q-43 -19 -43 -57q0 -78 237 -78zM274 271q45 -27 124 -27q80 0 125 27t45 74t-44.5 72
t-125.5 25t-125 -25t-44 -72t45 -74zM869 -26q21 23 66 36q-34 14 -52 36.5t-18 53.5q0 78 105 106q-48 24 -73.5 59t-25.5 80q0 83 83 129.5t231 46.5q105 0 182 -25q13 44 52 67.5t100 23.5q27 0 44 -4v-98q-15 5 -52 5q-56 0 -83 -24q70 -46 70 -121q0 -55 -38.5 -95.5
t-109 -62t-165.5 -21.5q-91 0 -160 20q-37 -12 -37 -40q0 -20 18.5 -30t57.5 -11h289q199 0 199 -142q0 -91 -93 -134t-282 -43q-167 0 -248 31.5t-81 98.5q0 35 21 58zM1192 -137q121 0 175 18t54 58q0 29 -22.5 42t-72.5 13h-289q-14 0 -40 2q-39 -20 -39 -55
q0 -78 234 -78zM1060 271q45 -27 125 -27q79 0 124 27t45 74t-44 72t-125 25t-125.5 -25t-44.5 -72t45 -74z" />
    <glyph glyph-name=".notdef" horiz-adv-x="1018" 
d="M20 237h977v-48h-977v48zM20 47h978v-47h-978v47zM20 142h978v-47h-978v47zM20 710h978v-47h-552v-47h552v-48h-552v-47h552v-48h-552v-47h552v-47h-552v-48h552v-47h-978v426zM52 318l-5 -15l12 9l13 -9l-5 15l13 9h-16l-5 15l-4 -15h-16zM52 405l-5 -14l12 9l13 -9
l-5 14l13 9h-16l-5 15l-4 -15h-16zM52 492l-5 -14l12 9l13 -9l-5 14l13 10h-16l-5 14l-4 -14h-16zM52 580l-5 -15l12 9l13 -9l-5 15l13 9h-16l-5 14l-4 -14h-16zM52 667l-5 -15l12 9l13 -9l-5 15l13 9h-16l-5 15l-4 -15h-16zM95 362l-4 -15l12 9l12 -9l-4 15l12 9h-15l-5 14
l-5 -14h-15zM95 623l-4 -14l12 9l12 -9l-4 14l12 9h-15l-5 15l-5 -15h-15zM193 457v-93h80v93h94v80h-94v94h-80v-94h-93v-80h93zM139 318l-5 -15l12 9l13 -9l-5 15l12 9h-15l-5 15l-4 -15h-16zM139 405l-5 -14l12 9l13 -9l-5 14l12 9h-15l-5 15l-4 -15h-16zM139 580l-5 -15
l12 9l13 -9l-5 15l12 9h-15l-5 14l-4 -14h-16zM139 667l-5 -15l12 10l13 -10l-5 15l12 9h-15l-5 15l-4 -15h-16zM226 318l-5 -15l12 9l13 -9l-5 15l12 9h-15l-5 15l-4 -15h-16zM226 667l-5 -15l12 10l13 -10l-5 15l12 9h-15l-5 15l-4 -15h-16zM313 318l-5 -15l12 9l13 -9
l-5 15l12 9h-15l-5 15l-5 -15h-15zM313 405l-5 -14l12 9l13 -9l-5 14l12 9h-15l-5 15l-5 -15h-15zM313 580l-5 -15l12 9l13 -9l-5 15l12 9h-15l-5 14l-5 -14h-15zM313 667l-5 -15l12 10l13 -10l-5 15l12 9h-15l-5 15l-5 -15h-15zM356 362l-5 -15l13 9l12 -9l-5 15l13 9h-16
l-4 14l-5 -14h-15zM356 623l-5 -14l13 9l12 -9l-5 14l13 9h-16l-4 15l-5 -15h-15zM399 318l-4 -15l12 9l13 -9l-5 15l12 9h-15l-5 15l-5 -15h-15zM399 405l-4 -14l12 9l13 -9l-5 14l12 9h-15l-5 15l-5 -15h-15zM399 492l-4 -14l12 9l13 -9l-5 14l12 10h-15l-5 14l-5 -14h-15
zM399 580l-4 -15l12 9l13 -9l-5 15l12 9h-15l-5 14l-5 -14h-15zM399 667l-4 -15l12 10l13 -10l-5 15l12 9h-15l-5 15l-5 -15h-15z" />
    <glyph glyph-name=".null" horiz-adv-x="0" 
 />
    <glyph glyph-name="nonmarkingreturn" unicode="&#xd;" horiz-adv-x="0" 
 />
    <glyph glyph-name="space" unicode=" " horiz-adv-x="415" 
 />
    <glyph glyph-name="exclam" unicode="!" horiz-adv-x="390" 
d="M284 0h-178v134h178v-134zM279 710l-25 -489h-118l-25 489h168z" />
    <glyph glyph-name="quotedbl" unicode="&#x22;" horiz-adv-x="521" 
d="M292 710h147l-25 -299h-97zM81 710h147l-25 -299h-97z" />
    <glyph glyph-name="numbersign" unicode="#" horiz-adv-x="842" 
d="M185 275l28 144h-154v88h171l37 187h111l-37 -187h218l37 187h111l-37 -187h153v-88h-170l-28 -144h164v-87h-181l-37 -188h-112l37 188h-217l-37 -188h-111l37 188h-149v87h166zM513 275l29 144h-218l-28 -144h217z" />
    <glyph glyph-name="dollar" unicode="$" horiz-adv-x="880" 
d="M405 -19q-151 7 -248.5 55.5t-136.5 136.5l122 53q58 -124 263 -139v215l-94 9q-125 12 -187 60t-62 134q0 96 89.5 151t253.5 59v82h66v-83q137 -5 223 -44.5t131 -120.5l-112 -61q-28 58 -86 87.5t-156 35.5v-203l105 -10q134 -14 196.5 -61.5t62.5 -138.5
q0 -101 -95.5 -158.5t-268.5 -59.5v-83h-66v84zM244 447.5q38 -22.5 123 -30.5l38 -3v198q-103 -1 -151 -25t-48 -74q0 -43 38 -65.5zM637.5 111.5q53.5 25.5 53.5 78.5q0 45 -37 68.5t-117 31.5l-66 6v-211q113 1 166.5 26.5z" />
    <glyph glyph-name="percent" unicode="%" horiz-adv-x="1110" 
d="M139.5 366.5q-54.5 23.5 -84 66t-29.5 99.5q0 55 29.5 97t84 65t125.5 23q69 0 123.5 -23.5t85 -66t30.5 -98.5q0 -55 -30.5 -97.5t-84.5 -65.5t-123 -23q-72 0 -126.5 23.5zM172 453.5q35 -28.5 94 -28.5q56 0 90 28t34 76t-34.5 77t-90.5 29q-58 0 -93 -28.5t-35 -74.5
q0 -50 35 -78.5zM833 722h123l-678 -741h-122zM636.5 267q29.5 42 84 65.5t125.5 23.5q69 0 123.5 -23.5t85 -66.5t30.5 -99q0 -55 -30.5 -97t-84.5 -65t-123 -23q-72 0 -126.5 23t-84 66t-29.5 99q0 55 29.5 97zM753 92.5q35 -28.5 94 -28.5q56 0 90 28t34 75
q0 49 -34.5 78t-90.5 29q-58 0 -93 -28.5t-35 -75.5q0 -49 35 -77.5z" />
    <glyph glyph-name="ampersand" unicode="&#x26;" horiz-adv-x="896" 
d="M156.5 4q-70.5 28 -105.5 74.5t-35 102.5q0 70 47 116.5t140 81.5h1q-58 49 -84 88.5t-26 89.5q0 55 32 95.5t87 61.5t123 21q110 0 175.5 -46t65.5 -125q0 -63 -45.5 -114.5t-111.5 -76.5l-23 -9l215 -169q77 88 97 216l114 -18q-24 -156 -122 -265q30 -20 58.5 -29
t61.5 -9q32 0 59 9v-102q-38 -15 -81 -15q-47 0 -95 20.5t-90 52.5q-123 -79 -285 -79q-102 0 -172.5 28zM212.5 108q51.5 -32 130.5 -32q99 0 183 48l-246 195q-61 -24 -90 -53.5t-29 -70.5q0 -55 51.5 -87zM246 496.5q19 -28.5 77 -74.5l24 9q48 18 74.5 52.5t26.5 78.5
q0 42 -28.5 65.5t-84.5 23.5q-51 0 -79.5 -24t-28.5 -68q0 -34 19 -62.5z" />
    <glyph glyph-name="quotesingle" unicode="'" horiz-adv-x="310" 
d="M81 710h147l-25 -299h-97z" />
    <glyph glyph-name="parenleft" unicode="(" horiz-adv-x="400" 
d="M119.5 74q-59.5 124 -59.5 249q0 126 60 249.5t170 209.5l102 -52q-195 -172 -195 -409q0 -232 196 -408l-105 -53q-109 90 -168.5 214z" />
    <glyph glyph-name="parenright" unicode=")" horiz-adv-x="400" 
d="M203 321q0 237 -195 409l102 52q110 -86 170 -209.5t60 -249.5q0 -125 -59.5 -249t-168.5 -214l-105 53q196 176 196 408z" />
    <glyph glyph-name="asterisk" unicode="*" horiz-adv-x="412" 
d="M160 538l-136 18l33 100l122 -68l-29 132h112l-29 -132l123 68l32 -100l-136 -18l106 -96l-88 -62l-64 130l-64 -130l-88 62z" />
    <glyph glyph-name="plus" unicode="+" 
d="M348 88v191h-242v100h242v191h107v-191h242v-100h-242v-191h-107z" />
    <glyph glyph-name="comma" unicode="," horiz-adv-x="336" 
d="M156 -59q19 22 19 55v4h-94v153h173v-137q0 -69 -32.5 -112t-109.5 -57l-22 62q47 10 66 32z" />
    <glyph glyph-name="hyphen" unicode="-" horiz-adv-x="625" 
d="M572 334v-111h-519v111h519z" />
    <glyph glyph-name="period" unicode="." horiz-adv-x="336" 
d="M254 0h-173v153h173v-153z" />
    <glyph glyph-name="slash" unicode="/" horiz-adv-x="691" 
d="M43 -117l466 877h139l-465 -877h-140z" />
    <glyph glyph-name="zero" unicode="0" horiz-adv-x="885" 
d="M236 22.5q-89 46.5 -138 131t-49 196.5q0 110 49 194t138 129.5t206 45.5t206.5 -45.5t138.5 -129.5t49 -194q0 -112 -49 -196.5t-138.5 -131t-206.5 -46.5t-206 46.5zM227 207q30 -60 85.5 -91.5t129.5 -31.5q113 0 179.5 70.5t66.5 195.5q0 123 -66.5 192t-179.5 69
q-112 0 -178.5 -69t-66.5 -192q0 -83 30 -143z" />
    <glyph glyph-name="one" unicode="1" horiz-adv-x="513" 
d="M175 459.5q-48 -17.5 -110 -17.5h-41v122h24q81 0 136.5 35t80.5 96h123v-695h-142v505q-23 -28 -71 -45.5z" />
    <glyph glyph-name="two" unicode="2" horiz-adv-x="826" 
d="M479 298q68 42 95.5 81t27.5 90q0 58 -49.5 97.5t-148.5 39.5q-95 0 -149.5 -41t-54.5 -113q0 -22 4 -38l-149 15q-5 20 -5 42q0 70 44.5 125.5t126 87t186.5 31.5q114 0 192 -31t117 -84.5t39 -122.5q0 -78 -44.5 -134.5t-122.5 -99.5q-133 -75 -321 -128h507v-115h-736
v108q299 104 441 190z" />
    <glyph glyph-name="three" unicode="3" horiz-adv-x="836" 
d="M151 43q-97 63 -109 173l146 14q25 -144 230 -144q104 0 159.5 30.5t55.5 84.5q0 62 -51 85.5t-149 23.5h-86v94h84q183 0 183 104q0 48 -51 74.5t-152 26.5q-102 0 -157 -38.5t-61 -105.5l-142 18q5 67 46.5 119.5t121.5 82.5t193 30q171 0 260.5 -54t89.5 -145
q0 -70 -50 -108t-127 -45q93 -10 146 -51t53 -118q0 -60 -41 -108.5t-123.5 -77t-203.5 -28.5q-168 0 -265 63z" />
    <glyph glyph-name="four" unicode="4" horiz-adv-x="832" 
d="M664 165v-165h-140v165h-507v92l480 438h167v-429h156v-101h-156zM524 266v230q0 72 4 99h-4q-8 -16 -23 -32.5t-47 -45.5l-197 -185q-42 -40 -80 -66h347z" />
    <glyph glyph-name="five" unicode="5" horiz-adv-x="810" 
d="M164 36.5q-96 56.5 -118 154.5l145 20q14 -58 72 -91.5t145 -33.5q101 0 156.5 40t55.5 113q0 71 -53 108.5t-147 37.5q-81 0 -132.5 -26.5t-81.5 -82.5l-134 11l48 408h601v-109h-489l-27 -201q32 48 101 74.5t162 26.5q142 0 221 -64t79 -182q0 -79 -44.5 -138
t-126 -90.5t-190.5 -31.5q-147 0 -243 56.5z" />
    <glyph glyph-name="six" unicode="6" horiz-adv-x="841" 
d="M151.5 76q-102.5 96 -102.5 270q0 175 101.5 272t286.5 97q139 0 232.5 -52t116.5 -141l-147 -24q-40 111 -206 111q-119 0 -182 -64t-62 -185q38 56 111.5 86.5t169.5 30.5q155 0 239.5 -63.5t84.5 -179.5q0 -75 -44.5 -132.5t-125.5 -89.5t-185 -32q-185 0 -287.5 96z
M287 124q59 -38 151 -38q95 0 151.5 40.5t56.5 107.5q0 69 -51.5 105t-151.5 36q-90 0 -153 -36.5t-86 -102.5q24 -74 83 -112z" />
    <glyph glyph-name="seven" unicode="7" horiz-adv-x="723" 
d="M292 322.5q90 144.5 255 258.5h-530v114h690v-105q-342 -229 -342 -558v-32h-163v17q0 161 90 305.5z" />
    <glyph glyph-name="eight" unicode="8" horiz-adv-x="844" 
d="M145 33q-100 53 -100 149q0 66 48.5 110.5t138.5 61.5q-85 25 -124.5 66.5t-39.5 105.5q0 58 43.5 100.5t123.5 65.5t189 23q106 0 185 -22.5t122.5 -64.5t43.5 -97q0 -57 -42 -96t-119 -55q97 -27 141 -71.5t44 -114.5q0 -67 -44.5 -115t-128 -73.5t-199.5 -25.5
q-182 0 -282 53zM255 112q60 -30 172 -30q104 0 163.5 30.5t59.5 83.5q0 47 -45 74t-151 44l-96 15q-84 -19 -123.5 -51t-39.5 -81q0 -55 60 -85zM256 459.5q40 -25.5 128 -38.5l113 -17q70 22 100.5 49.5t30.5 67.5q0 48 -53 74t-151 26q-99 0 -153.5 -25t-54.5 -70
q0 -41 40 -66.5z" />
    <glyph glyph-name="nine" unicode="9" horiz-adv-x="841" 
d="M173 35.5q-95 55.5 -118 151.5l147 24q20 -64 71.5 -93.5t135.5 -29.5q120 0 182 67t62 194v9q-38 -50 -110 -80t-173 -30q-154 0 -238.5 59t-84.5 172q0 71 44 124.5t125 82.5t188 29q185 0 286.5 -92.5t101.5 -260.5q0 -182 -100 -282t-284 -100q-140 0 -235 55.5z
M247.5 382.5q53.5 -32.5 150.5 -32.5q93 0 155 33.5t84 90.5q-22 67 -80 102.5t-151 35.5q-100 0 -156 -34.5t-56 -98.5t53.5 -96.5z" />
    <glyph glyph-name="colon" unicode=":" horiz-adv-x="336" 
d="M254 331h-173v153h173v-153zM254 0h-173v153h173v-153z" />
    <glyph glyph-name="semicolon" unicode=";" horiz-adv-x="336" 
d="M254 331h-173v153h173v-153zM156 -59q19 22 19 55v4h-94v153h173v-137q0 -69 -32.5 -112t-109.5 -57l-22 62q47 10 66 32z" />
    <glyph glyph-name="less" unicode="&#x3c;" 
d="M121 280v92l561 205v-104l-440 -147l440 -145v-106z" />
    <glyph glyph-name="equal" unicode="=" 
d="M111 472h581v-95h-581v95zM111 281h581v-95h-581v95z" />
    <glyph glyph-name="greater" unicode="&#x3e;" 
d="M121 181l440 145l-440 147v104l561 -205v-92l-561 -205v106z" />
    <glyph glyph-name="question" unicode="?" horiz-adv-x="770" 
d="M323 310q25 34 79 55l90 35q49 19 72.5 43.5t23.5 69.5q0 31 -22.5 58t-66.5 43.5t-106 16.5q-101 0 -160 -38.5t-59 -107.5q0 -31 7 -52l-149 14q-7 22 -7 50q0 71 44.5 124.5t128 83t196.5 29.5q107 0 184.5 -27t117.5 -75t40 -110q0 -76 -38.5 -117.5t-108.5 -70.5
l-86 -35q-36 -15 -50.5 -33.5t-14.5 -49.5v-29h-140v39q0 50 25 84zM283 134h172v-134h-172v134z" />
    <glyph glyph-name="at" unicode="@" horiz-adv-x="1031" 
d="M241 -62.5q-105 45.5 -160 132t-55 206.5q0 115 62 203t174 137t257 49q146 0 256 -45.5t170.5 -129.5t60.5 -194q0 -105 -53.5 -166.5t-144.5 -61.5q-59 0 -96 23t-50 67q-35 -48 -96 -74t-140 -26q-85 0 -136.5 34.5t-51.5 91.5q0 62 45.5 93.5t148.5 40.5l223 16v6
q0 97 -143 97q-59 0 -94 -20t-39 -55h-125q3 44 38 80t93.5 56t130.5 20q125 0 190 -47t65 -138v-115q0 -39 16.5 -57.5t53.5 -18.5q43 0 66.5 40.5t23.5 111.5q0 95 -49.5 164t-142 105.5t-219.5 36.5t-221 -39.5t-145 -112.5t-51 -172t47 -170t136.5 -108.5t214.5 -37.5
q61 0 131 12t113 30l28 -60q-52 -24 -125 -37t-156 -13q-146 0 -251 45.5zM390.5 153.5q29.5 -16.5 80.5 -16.5q50 0 92.5 15.5t67 42t24.5 57.5v24l-202 -16q-50 -4 -71 -18.5t-21 -43.5q0 -28 29.5 -44.5z" />
    <glyph glyph-name="A" unicode="A" horiz-adv-x="965" 
d="M395 710h175l379 -710h-162l-76 150h-457l-76 -150h-162zM657 256l-134 263q-23 49 -39 93h-3q-16 -44 -39 -93l-134 -263h349z" />
    <glyph glyph-name="B" unicode="B" horiz-adv-x="939" 
d="M105 710h515q123 0 184 -51.5t61 -130.5q0 -58 -34.5 -101.5t-99.5 -56.5q78 -12 115.5 -56.5t37.5 -114.5q0 -88 -64 -143.5t-197 -55.5h-518v710zM595 107q69 0 102 27t33 75t-32.5 75t-102.5 27h-340v-204h340zM587 413q72 0 98 28t26 72q0 38 -28 64t-96 26h-332
v-190h332z" />
    <glyph glyph-name="C" unicode="C" horiz-adv-x="960" 
d="M243 22.5q-104 46.5 -160.5 132t-56.5 199.5q0 111 59 197.5t165.5 134.5t244.5 48q171 0 284 -70t148 -197l-156 -23q-25 83 -96.5 127.5t-183.5 44.5q-95 0 -164.5 -31.5t-106.5 -90.5t-37 -139q0 -77 38.5 -136.5t109 -92t163.5 -32.5q109 0 180 40.5t100 120.5
l152 -30q-45 -121 -157.5 -185t-281.5 -64q-140 0 -244 46.5z" />
    <glyph glyph-name="D" unicode="D" horiz-adv-x="987" 
d="M105 710h426q130 0 227 -39t150.5 -116t53.5 -188t-55 -194t-153 -128t-223 -45h-426v710zM520 109q134 0 209 67t75 189q0 117 -79.5 176.5t-213.5 59.5h-256v-492h265z" />
    <glyph glyph-name="E" unicode="E" horiz-adv-x="878" 
d="M805 112v-112h-700v710h693v-112h-543v-183h526v-106h-526v-197h550z" />
    <glyph glyph-name="F" unicode="F" horiz-adv-x="844" 
d="M105 0v710h693v-113h-543v-186h526v-112h-526v-299h-150z" />
    <glyph glyph-name="G" unicode="G" horiz-adv-x="989" 
d="M228.5 23.5q-97.5 47.5 -150 132.5t-52.5 195q0 112 57.5 199t163 135.5t246.5 48.5q110 0 199 -28.5t147.5 -80.5t80.5 -123l-160 -28q-22 66 -94.5 106t-178.5 40q-93 0 -162.5 -33t-106.5 -93.5t-37 -141.5q0 -79 37.5 -138.5t107 -92.5t162.5 -33q88 0 154.5 25
t102.5 68t38 95v4h-301v104h439v-384h-115l-9 126q-44 -68 -131 -109t-210 -41q-130 0 -227.5 47.5z" />
    <glyph glyph-name="H" unicode="H" horiz-adv-x="1020" 
d="M916 0h-151v306h-510v-306h-150v710h150v-293h510v293h151v-710z" />
    <glyph glyph-name="I" unicode="I" horiz-adv-x="359" 
d="M105 0v710h150v-710h-150z" />
    <glyph glyph-name="J" unicode="J" horiz-adv-x="516" 
d="M151 -15q-82 0 -134 11v124q24 -4 51.5 -7t58.5 -3q80 0 121.5 38.5t41.5 133.5v428h150v-448q0 -277 -289 -277z" />
    <glyph glyph-name="K" unicode="K" horiz-adv-x="948" 
d="M105 710h150v-370l450 370h194l-324 -265l350 -445h-183l-284 357l-203 -170v-187h-150v710z" />
    <glyph glyph-name="L" unicode="L" horiz-adv-x="799" 
d="M105 710h150v-589h513v-121h-663v710z" />
    <glyph glyph-name="M" unicode="M" horiz-adv-x="1194" 
d="M105 710h226l238 -496q19 -45 23 -65h3q4 19 24 65l240 496h230v-710h-137v511q0 62 5 93h-4q-15 -41 -35 -86l-256 -518h-143l-251 518q-19 45 -30 86h-5q5 -29 5 -93v-511h-133v710z" />
    <glyph glyph-name="N" unicode="N" horiz-adv-x="1016" 
d="M105 710h168l448 -472q37 -41 52 -73h3l-1 93v452h136v-710h-153l-462 482q-16 16 -30 36t-22 35h-3v-88v-465h-136v710z" />
    <glyph glyph-name="O" unicode="O" horiz-adv-x="994" 
d="M250 23.5q-107 47.5 -165.5 133.5t-58.5 198q0 113 58.5 199t165.5 133t247 47t247 -47t166 -133t59 -199t-58.5 -199t-165.5 -133t-248 -47q-140 0 -247 47.5zM223 218q39 -60 110.5 -93t163.5 -33t163.5 33t111 93t39.5 137q0 78 -39.5 137.5t-110.5 92.5t-164 33
t-164 -33t-110 -92.5t-39 -137.5q0 -77 39 -137z" />
    <glyph glyph-name="P" unicode="P" horiz-adv-x="876" 
d="M105 0v710h469q129 0 203.5 -61.5t74.5 -167.5q0 -72 -36 -126t-102.5 -83t-154.5 -29h-304v-243h-150zM540 351q73 0 114 34t41 94q0 58 -40.5 90t-113.5 32h-286v-250h285z" />
    <glyph glyph-name="Q" unicode="Q" horiz-adv-x="994" 
d="M250 23.5q-107 47.5 -165.5 133.5t-58.5 198q0 113 58.5 199t165.5 133t247 47t247 -47t166 -133t59 -199q0 -127 -74 -219.5t-204 -132.5q57 -46 151 -46q45 0 81 5v-121q-36 -6 -75 -6q-90 0 -161.5 37t-113.5 108q-33 -4 -76 -4q-140 0 -247 47.5zM223 218
q39 -60 110.5 -93t163.5 -33t163.5 33t111 93t39.5 137q0 78 -39.5 137.5t-110.5 92.5t-164 33t-164 -33t-110 -92.5t-39 -137.5q0 -77 39 -137z" />
    <glyph glyph-name="R" unicode="R" horiz-adv-x="917" 
d="M105 710h472q100 0 161 -31.5t86.5 -80.5t25.5 -105q0 -68 -41.5 -125.5t-130.5 -79.5l199 -288h-173l-186 270h-263v-270h-150v710zM546 375q77 0 111.5 33.5t34.5 82.5q0 47 -34 79t-112 32h-291v-227h291z" />
    <glyph glyph-name="S" unicode="S" horiz-adv-x="888" 
d="M178 31q-112 55 -158 160l124 59q37 -78 119 -120t205 -42q114 0 168 25.5t54 80.5q0 45 -34.5 67.5t-116.5 29.5l-224 23q-127 13 -187.5 62t-60.5 141q0 103 95.5 160t270.5 57q300 0 405 -183l-115 -66q-71 138 -296 138q-101 0 -154.5 -25t-53.5 -73q0 -30 14 -48
t45.5 -28.5t88.5 -16.5l209 -20q141 -15 204 -62.5t63 -141.5q0 -113 -97.5 -172.5t-282.5 -59.5q-173 0 -285 55z" />
    <glyph glyph-name="T" unicode="T" horiz-adv-x="805" 
d="M10 710h785v-120h-317v-590h-150v590h-318v120z" />
    <glyph glyph-name="U" unicode="U" horiz-adv-x="968" 
d="M226 710v-376q0 -67 30.5 -121t89 -85t138.5 -31q79 0 137.5 31t89 85t30.5 121v376h150v-387q0 -102 -47.5 -180.5t-139.5 -122.5t-220 -44t-220 44t-140 123t-48 181v386h150z" />
    <glyph glyph-name="V" unicode="V" horiz-adv-x="921" 
d="M9 710h167l258 -517q17 -36 25 -67h3q8 31 25 67l258 517h167l-364 -710h-176z" />
    <glyph glyph-name="W" unicode="W" horiz-adv-x="1315" 
d="M22 710h154l168 -517q2 -8 8 -27t7 -32h3q4 23 19 59l200 517h154l200 -517q15 -40 18 -59h3q2 14 7.5 33t7.5 26l169 517h154l-249 -710h-176l-194 506q-14 36 -15 57h-5q0 -18 -15 -57l-194 -506h-175z" />
    <glyph glyph-name="X" unicode="X" horiz-adv-x="928" 
d="M366 366l-341 344h188l215 -226q22 -22 35 -40h2q10 13 35 40l214 226h187l-338 -343l358 -367h-191l-230 244q-26 29 -36 44h-2q-7 -11 -36 -44l-234 -244h-185z" />
    <glyph glyph-name="Y" unicode="Y" horiz-adv-x="900" 
d="M372 249l-364 461h176l244 -317l10 -15t11 -21h2q3 13 21 36l249 317h170l-368 -461v-249h-151v249z" />
    <glyph glyph-name="Z" unicode="Z" horiz-adv-x="867" 
d="M607 599h-532v111h734v-104l-552 -495h574v-111h-776v105z" />
    <glyph glyph-name="bracketleft" unicode="[" horiz-adv-x="417" 
d="M105 763h301v-95h-173v-693h173v-95h-301v883z" />
    <glyph glyph-name="backslash" unicode="\" horiz-adv-x="691" 
d="M43 760h139l466 -877h-140z" />
    <glyph glyph-name="bracketright" unicode="]" horiz-adv-x="417" 
d="M11 -120v95h173v693h-173v95h301v-883h-301z" />
    <glyph glyph-name="asciicircum" unicode="^" horiz-adv-x="584" 
d="M349 709l215 -274h-123l-149 190l-149 -190h-123l215 274h114z" />
    <glyph glyph-name="underscore" unicode="_" horiz-adv-x="661" 
d="M661 -85v-84h-661v84h661z" />
    <glyph glyph-name="grave" unicode="`" horiz-adv-x="420" 
d="M240 573l-190 157h157l163 -157h-130z" />
    <glyph glyph-name="a" unicode="a" horiz-adv-x="824" 
d="M118 21.5q-66 40.5 -66 113.5q0 35 14.5 63t42.5 47q30 20 75.5 32t127.5 17l289 16v11q0 51 -48 79t-133 28q-87 0 -139 -25t-62 -72h-151q9 56 54.5 98.5t122 66t175.5 23.5q162 0 242.5 -55t80.5 -163v-132q0 -63 2 -98.5t8 -70.5h-142q-7 39 -7 99
q-76 -118 -303 -118q-117 0 -183 40.5zM237.5 87q39.5 -18 114.5 -18q73 0 130 18t89 51.5t32 78.5v20l-251 -16q-87 -6 -120.5 -24t-33.5 -56q0 -36 39.5 -54z" />
    <glyph glyph-name="b" unicode="b" horiz-adv-x="869" 
d="M341 10.5q-70 29.5 -109 81.5l-12 -92h-125v725h140v-318q41 53 115 82.5t166 29.5q95 0 168 -33.5t113 -93.5t40 -139t-42 -141t-117 -96.5t-171 -34.5t-166 29.5zM259 159q29 -37 82 -57.5t121 -20.5q104 0 166 46.5t62 124.5t-59.5 123t-162.5 45q-68 0 -122.5 -20.5
t-85 -56.5t-30.5 -82v-17q0 -48 29 -85z" />
    <glyph glyph-name="c" unicode="c" horiz-adv-x="789" 
d="M205 14.5q-83 33.5 -128 94.5t-45 142q0 82 45 142.5t128.5 93t196.5 32.5q147 0 236.5 -48.5t116.5 -142.5l-150 -20q-38 109 -208 109q-103 0 -160.5 -43.5t-57.5 -121.5t59 -123.5t160 -45.5q165 0 209 107l147 -22q-25 -88 -120 -137.5t-236 -49.5q-110 0 -193 33.5z
" />
    <glyph glyph-name="d" unicode="d" horiz-adv-x="869" 
d="M189 15.5q-74 34.5 -115.5 96t-41.5 139.5q0 79 41.5 139.5t116.5 94.5t172 34q179 0 272 -105v311h140v-725h-137v101q-42 -59 -113.5 -89.5t-167.5 -30.5q-93 0 -167 34.5zM240 127q61 -46 164 -46q67 0 120 20t83 56.5t30 82.5v17q0 47 -30.5 84.5t-85 58t-123.5 20.5
q-102 0 -160.5 -45t-58.5 -124q0 -78 61 -124z" />
    <glyph glyph-name="e" unicode="e" horiz-adv-x="793" 
d="M203.5 12.5q-82.5 31.5 -127 91t-44.5 141.5q0 87 45 149t126 93.5t189 31.5q113 0 194.5 -32.5t125 -93.5t43.5 -145v-32h-585q8 -65 68.5 -101t164.5 -36q78 0 136 23t91 67l111 -51q-105 -137 -342 -137q-113 0 -195.5 31.5zM613 300q-1 62 -63.5 98t-157.5 36
q-94 0 -154 -36t-68 -98h443z" />
    <glyph glyph-name="f" unicode="f" horiz-adv-x="559" 
d="M544 404h-229v-404h-140v404h-155v96h155v27q0 106 62 157t190 51q62 0 117 -12v-103q-51 10 -108 10q-65 0 -93 -23.5t-28 -78.5v-28h229v-96z" />
    <glyph glyph-name="g" unicode="g" horiz-adv-x="811" 
d="M128 -182q-83 32 -83 99q0 35 21.5 58t67.5 36q-71 28 -71 89q0 40 29.5 67.5t84.5 41.5q-92 48 -92 135q0 82 83 128.5t230 46.5q105 0 182 -25q13 45 52.5 69t100.5 24q21 0 45 -4v-98q-20 5 -53 5q-56 0 -84 -25q71 -45 71 -121q0 -83 -83.5 -130.5t-230.5 -47.5
q-96 0 -168 22q-44 -12 -44 -42q0 -40 75 -40l310 -1q102 0 152 -35.5t50 -106.5q0 -92 -92.5 -134.5t-293.5 -42.5q-176 0 -259 32zM215.5 -118.5q57.5 -18.5 179.5 -18.5q139 0 196.5 18t57.5 60q0 27 -22.5 40t-72.5 13h-314q-16 0 -42 2q-40 -19 -40 -56
q0 -40 57.5 -58.5zM274 270.5q45 -26.5 124 -26.5q80 0 125 26.5t45 73.5t-44.5 72t-125.5 25t-125 -25t-44 -72t45 -73.5z" />
    <glyph glyph-name="h" unicode="h" horiz-adv-x="871" 
d="M95 725h140v-340q37 64 107.5 99t162.5 35q142 0 217 -77t75 -223v-219h-140v202q0 104 -51.5 157.5t-151.5 53.5t-159.5 -53t-59.5 -142v-218h-140v725z" />
    <glyph glyph-name="i" unicode="i" horiz-adv-x="330" 
d="M95 500h140v-500h-140v500zM87 716h156v-133h-156v133z" />
    <glyph glyph-name="j" unicode="j" horiz-adv-x="344" 
d="M-45 -204v107q28 -4 75 -4q41 0 60 26t19 88v487h140v-507q0 -98 -48 -151t-162 -53q-55 0 -84 7zM98 716h156v-133h-156v133z" />
    <glyph glyph-name="k" unicode="k" horiz-adv-x="805" 
d="M95 725h140v-457l336 232h193l-247 -174l261 -326h-166l-206 257l-171 -113v-144h-140v725z" />
    <glyph glyph-name="l" unicode="l" horiz-adv-x="330" 
d="M235 0h-140v725h140v-725z" />
    <glyph glyph-name="m" unicode="m" horiz-adv-x="1266" 
d="M233 500v-114q28 65 87 99t144 34q86 0 144.5 -34.5t83.5 -100.5q35 65 99 100t148 35q124 0 188.5 -67.5t64.5 -197.5v-254h-140v238q0 85 -40.5 129t-118.5 44q-82 0 -131 -47.5t-49 -127.5v-236h-140v236q0 175 -157 175q-83 0 -132 -49.5t-49 -133.5v-228h-140v500
h138z" />
    <glyph glyph-name="n" unicode="n" horiz-adv-x="871" 
d="M95 500h138v-120q37 68 107.5 103.5t169.5 35.5q140 0 213.5 -70.5t73.5 -206.5v-242h-140v215q0 197 -197 197q-104 0 -164.5 -52.5t-60.5 -143.5v-216h-140v500z" />
    <glyph glyph-name="o" unicode="o" horiz-adv-x="808" 
d="M209.5 14.5q-84.5 33.5 -131 94.5t-46.5 141t46.5 141t131 94.5t194.5 33.5t194.5 -33.5t131 -94.5t46.5 -141t-46.5 -141t-131 -94.5t-194.5 -33.5t-194.5 33.5zM240 126q62 -46 164 -46t163.5 46t61.5 124t-61.5 124t-163.5 46t-164 -46t-62 -124t62 -124z" />
    <glyph glyph-name="p" unicode="p" horiz-adv-x="869" 
d="M95 500h138v-97q41 56 115 86t166 30q97 0 170 -33.5t113 -94.5t40 -141q0 -78 -42 -139.5t-117 -95.5t-170 -34q-87 0 -161 29t-112 77v-282h-140v695zM261 158.5q29 -36.5 81 -57t120 -20.5q106 0 167 45.5t61 124.5q0 78 -59.5 123.5t-162.5 45.5q-68 0 -122 -20.5
t-84 -57.5t-30 -83v-16q0 -48 29 -84.5z" />
    <glyph glyph-name="q" unicode="q" horiz-adv-x="869" 
d="M524.5 11.5q-72.5 -30.5 -164.5 -30.5q-96 0 -171 35t-116 97t-41 140q0 80 40.5 140t114 93t169.5 33q94 0 167.5 -30.5t112.5 -84.5l9 96h129v-695h-140v284q-37 -47 -109.5 -77.5zM239 126.5q63 -45.5 168 -45.5q72 0 123.5 22t77.5 59t26 83v16q0 44 -27.5 80
t-80.5 57.5t-126 21.5q-100 0 -162 -42.5t-62 -124.5q0 -81 63 -126.5z" />
    <glyph glyph-name="r" unicode="r" horiz-adv-x="529" 
d="M302 471q60 44 143 44q40 0 65 -5v-126q-34 7 -73 7q-52 0 -87.5 -13.5t-61.5 -40.5q-53 -53 -53 -162v-175h-140v500h125v-147q22 74 82 118z" />
    <glyph glyph-name="s" unicode="s" horiz-adv-x="755" 
d="M182.5 14q-89.5 33 -143.5 97l85 63q42 -50 114 -75.5t182 -25.5q80 0 118.5 17t38.5 52q0 25 -18.5 36.5t-68.5 15.5l-230 19q-99 9 -147 44t-48 102q0 77 78 118.5t223 41.5q119 0 203.5 -27.5t132.5 -79.5l-80 -63q-43 42 -106 60.5t-163 18.5q-80 0 -118 -15.5
t-38 -47.5q0 -24 21.5 -36t65.5 -16l234 -19q102 -9 146.5 -42.5t44.5 -98.5q0 -82 -74.5 -127t-229.5 -45q-133 0 -222.5 33z" />
    <glyph glyph-name="t" unicode="t" horiz-adv-x="585" 
d="M11 500h153v124l140 52v-176h240v-96h-240v-192q0 -58 32 -85t97 -27q57 0 111 13v-106q-22 -9 -59.5 -15t-79.5 -6q-128 0 -184.5 53.5t-56.5 149.5v215h-153v96z" />
    <glyph glyph-name="u" unicode="u" horiz-adv-x="859" 
d="M145 45.5q-71 64.5 -71 192.5v262h140v-237q0 -98 52 -138t131 -40q77 0 128 29t75 74.5t24 94.5v217h141v-500h-139v127q-33 -71 -105.5 -108.5t-169.5 -37.5q-135 0 -206 64.5z" />
    <glyph glyph-name="v" unicode="v" horiz-adv-x="755" 
d="M-2 500h156l202 -349q8 -15 20 -42h3q12 27 20 42l203 349h156l-301 -500h-159z" />
    <glyph glyph-name="w" unicode="w" horiz-adv-x="1125" 
d="M14 500h144l141 -347q9 -23 13 -47h2q2 13 7 27.5t7 19.5l161 347h147l160 -347q12 -28 15 -47h2q3 19 12 47l142 347h144l-216 -500h-160l-156 337q-13 30 -15 51h-3q-2 -21 -15 -51l-156 -337h-160z" />
    <glyph glyph-name="x" unicode="x" horiz-adv-x="758" 
d="M282 255l-263 245h177l147 -139q22 -22 35 -43h1q14 20 36 42l148 140h172l-262 -243l278 -257h-181l-158 142q-28 27 -39 45h-1q-17 -24 -42 -45l-155 -142h-168z" />
    <glyph glyph-name="y" unicode="y" horiz-adv-x="739" 
d="M48 -207v111q40 -7 73 -7q60 0 108.5 24.5t72.5 65.5l5 11l-309 502h160l199 -348q12 -22 19 -44h3q5 15 19 43l190 349h154l-302 -528q-54 -99 -125 -142.5t-178 -43.5q-43 0 -89 7z" />
    <glyph glyph-name="z" unicode="z" horiz-adv-x="739" 
d="M495 404h-425v96h613v-95l-444 -309h462v-96h-650v97z" />
    <glyph glyph-name="braceleft" unicode="{" horiz-adv-x="401" 
d="M160.5 -86.5q-48.5 34.5 -48.5 116.5v162q0 32 -5.5 51t-26.5 30.5t-65 12.5v86q44 1 65 11t26.5 28t5.5 51v145q0 81 49.5 119t146.5 38h81v-96h-47q-55 0 -78.5 -19t-23.5 -71v-113q0 -53 -20 -87.5t-73 -47.5q53 -15 72.5 -52t19.5 -90v-130q0 -51 24.5 -67t79.5 -16
h46v-96h-78q-102 0 -150.5 34.5z" />
    <glyph glyph-name="bar" unicode="|" horiz-adv-x="283" 
d="M95 760h93v-877h-93v877z" />
    <glyph glyph-name="braceright" unicode="}" horiz-adv-x="401" 
d="M12 -121v96h46q55 0 79.5 16t24.5 67v130q0 53 19.5 90t72.5 52q-53 13 -73 47.5t-20 87.5v113q0 52 -23.5 71t-78.5 19h-47v96h81q97 0 146.5 -38t49.5 -119v-145q0 -33 5.5 -51t26.5 -28t65 -11v-86q-44 -1 -65 -12.5t-26.5 -30.5t-5.5 -51v-162q0 -82 -48.5 -116.5
t-150.5 -34.5h-78z" />
    <glyph glyph-name="asciitilde" unicode="~" 
d="M447.5 237.5q-27.5 10.5 -62.5 31.5q-26 16 -45 24t-41 8q-72 0 -87 -70l-91 17q11 68 57.5 102.5t112.5 34.5q39 0 68.5 -11t65.5 -32q28 -16 45.5 -23.5t38.5 -7.5q34 0 54.5 19t29.5 57l89 -16q-13 -73 -60 -108.5t-109 -35.5q-38 0 -65.5 10.5z" />
    <glyph glyph-name="uni00A0" unicode="&#xa0;" horiz-adv-x="415" 
 />
    <glyph glyph-name="exclamdown" unicode="&#xa1;" horiz-adv-x="390" 
d="M106 351v134h178v-134h-178zM136 264h118l25 -489h-168z" />
    <glyph glyph-name="cent" unicode="&#xa2;" horiz-adv-x="802" 
d="M381 -19q-106 4 -185 38t-121.5 93.5t-42.5 137.5t42.5 137.5t121 93t185.5 37.5v74h66v-74q132 -6 214 -54t107 -136l-140 -19q-33 103 -181 115v-346q73 5 118.5 32.5t65.5 79.5l136 -22q-24 -81 -108.5 -130t-211.5 -56v-84h-66v83zM225.5 128q56.5 -46 155.5 -51v348
q-101 -5 -156.5 -51t-55.5 -124q0 -76 56.5 -122z" />
    <glyph glyph-name="sterling" unicode="&#xa3;" horiz-adv-x="845" 
d="M442 -10q-102 12 -178 12q-102 0 -222 -19l-26 78q156 44 156 173q0 40 -11 86h-116v78h95q-10 40 -10 82q0 110 86.5 172.5t240.5 62.5q135 0 218 -45.5t108 -133.5l-139 -29q-16 50 -64 77t-122 27q-184 0 -184 -129q0 -38 11 -84h279v-78h-259q8 -32 8 -67
q0 -56 -26.5 -95t-81.5 -62q58 11 117 11t124 -7q72 -6 116 -6q56 0 91 25t43 72l136 -19q-16 -89 -82.5 -140.5t-167.5 -51.5q-48 0 -140 10z" />
    <glyph glyph-name="currency" unicode="&#xa4;" horiz-adv-x="704" 
d="M164 112l-74 -64l-58 55l69 60q-50 59 -50 140q0 82 50 140l-69 61l58 55l75 -64q79 44 191 44q108 0 185 -41l73 62l59 -55l-67 -57q54 -60 54 -145q0 -86 -55 -146l64 -56l-58 -55l-71 61q-75 -40 -184 -40q-114 0 -192 45zM214 199q52 -38 142 -38q91 0 142 38t51 104
q0 65 -51 103t-142 38q-90 0 -142 -38t-52 -103q0 -66 52 -104z" />
    <glyph glyph-name="yen" unicode="&#xa5;" horiz-adv-x="921" 
d="M388 168v64h-284v65h266l-362 398h170l198 -223q50 -55 84 -105h4q39 57 84 105l201 223h163l-361 -398h270v-65h-288v-64h288v-65h-288v-103h-145v103h-284v65h284z" />
    <glyph glyph-name="brokenbar" unicode="&#xa6;" horiz-adv-x="282" 
d="M188 384h-93v376h93v-376zM95 263h93v-380h-93v380z" />
    <glyph glyph-name="section" unicode="&#xa7;" horiz-adv-x="729" 
d="M20 10l90 50q28 -46 89 -68t156 -22q89 0 131 20t42 63q0 33 -20.5 50t-68.5 24l-202 28q-112 15 -159 49t-47 101q0 75 77 117q-30 18 -43.5 45.5t-13.5 67.5q0 85 82 132.5t226 47.5q110 0 187 -29t113 -86l-88 -55q-34 40 -88.5 59t-135.5 19q-82 0 -121.5 -19
t-39.5 -57q0 -30 20 -44.5t74 -22.5l208 -26q102 -14 149 -51t47 -105q0 -75 -69 -119q49 -39 49 -111q0 -92 -84.5 -142.5t-239.5 -50.5q-250 0 -320 135zM188 277q26 -15 95 -26l201 -26l37 -6q31 21 31 58q0 35 -24 53t-85 27l-205 27q-16 2 -25 4q-51 -20 -51 -66
q0 -30 26 -45z" />
    <glyph glyph-name="dieresis" unicode="&#xa8;" horiz-adv-x="574" 
d="M375 716h149v-127h-149v127zM50 716h149v-127h-149v127z" />
    <glyph glyph-name="copyright" unicode="&#xa9;" horiz-adv-x="941" 
d="M341 167.5q-59 26.5 -90.5 74.5t-31.5 112q0 65 31 113.5t90 75t140 26.5q103 0 167.5 -39t75.5 -103l-109 -15q-8 35 -43.5 56.5t-91.5 21.5q-69 0 -111 -37t-42 -99q0 -61 42 -97.5t112 -36.5q54 0 90 21t45 56l109 -14q-15 -63 -79.5 -102.5t-163.5 -39.5
q-81 0 -140 26.5zM80.5 557.5q54.5 85.5 155 131t234.5 45.5t234.5 -45.5t155.5 -131t55 -202.5t-55 -202.5t-155.5 -131t-234.5 -45.5t-234.5 45.5t-155 131t-54.5 202.5t54.5 202.5zM136.5 182.5q47.5 -73.5 134 -112.5t199.5 -39t199.5 39t134.5 112.5t48 172.5
t-48 172.5t-134.5 112.5t-199.5 39t-199.5 -39t-134 -112.5t-47.5 -172.5t47.5 -172.5z" />
    <glyph glyph-name="ordfeminine" unicode="&#xaa;" horiz-adv-x="634" 
d="M97.5 325.5q-48.5 29.5 -48.5 83.5q0 60 50 85t138 30l200 12v8q0 39 -30 58.5t-87 19.5q-54 0 -87.5 -17t-40.5 -49h-132q11 62 82 98t178 36q125 0 183.5 -41.5t58.5 -123.5v-100q0 -76 7 -115h-125q-4 34 -4 70q-20 -39 -75 -61.5t-131 -22.5q-88 0 -136.5 29.5z
M202 378q28 -14 77 -14q70 0 115 28t45 72v21l-161 -11q-57 -4 -80.5 -17t-23.5 -38q0 -27 28 -41z" />
    <glyph glyph-name="guillemotleft" unicode="&#xab;" horiz-adv-x="718" 
d="M29 276l247 206h144l-242 -205l239 -210h-146zM309 276l247 206h144l-242 -205l239 -210h-146z" />
    <glyph glyph-name="logicalnot" unicode="&#xac;" 
d="M683 381v-255h-108v154h-455v101h563z" />
    <glyph glyph-name="registered" unicode="&#xae;" horiz-adv-x="941" 
d="M274 562h282q78 0 119 -32.5t41 -93.5q0 -46 -27 -77.5t-76 -44.5l112 -158h-117l-97 149h-135v-149h-102v406zM80.5 557.5q54.5 85.5 155 131t234.5 45.5t234.5 -45.5t155.5 -131t55 -202.5t-55 -202.5t-155.5 -131t-234.5 -45.5t-234.5 45.5t-155 131t-54.5 202.5
t54.5 202.5zM136.5 182.5q47.5 -73.5 134 -112.5t199.5 -39t199.5 39t134.5 112.5t48 172.5t-48 172.5t-134.5 112.5t-199.5 39t-199.5 -39t-134 -112.5t-47.5 -172.5t47.5 -172.5zM531 374q42 0 61 14.5t19 45.5q0 58 -79 58h-156v-118h155z" />
    <glyph glyph-name="macron" unicode="&#xaf;" horiz-adv-x="581" 
d="M50 685h481v-83h-481v83z" />
    <glyph glyph-name="degree" unicode="&#xb0;" horiz-adv-x="504" 
d="M138 310q-51 27 -80.5 76t-29.5 114t29.5 114.5t80.5 76t114 26.5q64 0 115 -26.5t80 -76t29 -114.5t-29.5 -114t-80.5 -76t-114 -27t-114 27zM158.5 404.5q36.5 -36.5 93.5 -36.5t93.5 36.5t36.5 95.5t-36.5 96t-93.5 37t-93.5 -37t-36.5 -96t36.5 -95.5z" />
    <glyph glyph-name="plusminus" unicode="&#xb1;" 
d="M348 320h-242v101h242v151h107v-151h242v-101h-242v-152h-107v152zM106 126h591v-94h-591v94z" />
    <glyph glyph-name="uni00B2" unicode="&#xb2;" horiz-adv-x="635" 
d="M81 409q121 48 191 81.5t118 75t48 89.5q0 39 -33 64.5t-95 25.5q-59 0 -96.5 -26t-37.5 -76q0 -6 2 -22l-128 11q-2 9 -2 27q0 55 34 94.5t93.5 60.5t133.5 21q122 0 192 -44t70 -126q0 -61 -42 -107.5t-110.5 -81.5t-169.5 -72h335v-94h-542v83z" />
    <glyph glyph-name="uni00B3" unicode="&#xb3;" horiz-adv-x="637" 
d="M116 340q-73 47 -77 130l129 10q3 -49 41.5 -75.5t106.5 -26.5q66 0 104.5 21t38.5 61q0 34 -31 53.5t-98 19.5h-61v70h58q57 0 88.5 17t31.5 52q0 37 -35.5 57t-98.5 20q-67 0 -104 -26.5t-38 -77.5l-128 11q1 53 33 93.5t92 63t144 22.5q126 0 196.5 -39.5t70.5 -113.5
q0 -52 -38.5 -78.5t-96.5 -31.5q71 -7 109 -38.5t38 -84.5q0 -47 -33.5 -82.5t-96 -54.5t-146.5 -19q-126 0 -199 47z" />
    <glyph glyph-name="acute" unicode="&#xb4;" horiz-adv-x="420" 
d="M213 730h157l-190 -157h-130z" />
    <glyph glyph-name="uni00B5" unicode="&#xb5;" horiz-adv-x="886" 
d="M95 -195v695h140v-237q0 -98 52 -138t131 -40q77 0 128 29t75 74.5t24 94.5v217h140v-331q0 -114 17 -169h-144q-10 57 -12 124q-36 -71 -107.5 -107t-166.5 -36q-90 0 -150 28v-204h-127z" />
    <glyph glyph-name="paragraph" unicode="&#xb6;" horiz-adv-x="920" 
d="M146 387.5q-78 45.5 -78 141.5q0 94 82 142.5t246 48.5h451v-76h-131v-744h-88v744h-158v-744h-87v442q-159 0 -237 45.5z" />
    <glyph glyph-name="periodcentered" unicode="&#xb7;" horiz-adv-x="336" 
d="M254 218h-173v153h173v-153z" />
    <glyph glyph-name="cedilla" unicode="&#xb8;" horiz-adv-x="397" 
d="M205 5l-46 -59q27 15 70 15q55 0 86.5 -22t31.5 -62q0 -42 -42 -67t-112 -25q-51 0 -88 15.5t-55 43.5l77 21q20 -26 67 -26q27 0 42 10t15 27q0 18 -14 28t-40 10q-33 0 -57 -16l-69 15l59 92h75z" />
    <glyph glyph-name="uni00B9" unicode="&#xb9;" horiz-adv-x="414" 
d="M137.5 631.5q-33.5 -12.5 -75.5 -12.5h-33v104h19q58 0 100 25t59 69h107v-507h-125v356q-18 -22 -51.5 -34.5z" />
    <glyph glyph-name="ordmasculine" unicode="&#xba;" horiz-adv-x="623" 
d="M164.5 320q-63.5 24 -98 69t-34.5 104t34.5 103.5t98 69t147.5 24.5t147 -24.5t97 -69t34 -103.5t-34 -104t-97 -69t-147 -24t-147.5 24zM202 406q41 -32 110 -32q67 0 109 32.5t42 86.5t-42 86t-109 32q-68 0 -109.5 -32t-41.5 -86q0 -55 41 -87z" />
    <glyph glyph-name="guillemotright" unicode="&#xbb;" horiz-adv-x="718" 
d="M301 67l239 210l-242 205h144l247 -206l-242 -209h-146zM162 482l247 -206l-242 -209h-146l239 210l-242 205h144z" />
    <glyph glyph-name="onequarter" unicode="&#xbc;" horiz-adv-x="1059" 
d="M111.5 565q-28.5 -9 -60.5 -9h-26v83h15q47 0 82 18.5t49 53.5h85v-391h-99v272q-17 -18 -45.5 -27zM691 727h126l-588 -744h-126zM941 86v-86h-98v86h-305v63l293 242h110v-238h100v-67h-100zM843 153v170l-205 -170h205z" />
    <glyph glyph-name="onehalf" unicode="&#xbd;" horiz-adv-x="1103" 
d="M111.5 565q-28.5 -9 -60.5 -9h-26v83h15q47 0 82 18.5t49 53.5h85v-391h-99v272q-17 -18 -45.5 -27zM691 727h126l-588 -744h-126zM647 78q107 41 165.5 66.5t95 55.5t36.5 65q0 31 -29 49.5t-80 18.5q-49 0 -81.5 -18t-32.5 -58q0 -8 3 -17l-103 8q-2 8 -2 21
q0 65 61.5 100.5t153.5 35.5q98 0 156.5 -32.5t58.5 -98.5q0 -67 -72.5 -114.5t-186.5 -85.5h269v-74h-444v66z" />
    <glyph glyph-name="threequarters" unicode="&#xbe;" horiz-adv-x="1245" 
d="M96.5 343q-59.5 37 -63.5 102l101 7q4 -37 36 -56.5t89 -19.5q55 0 89 14t34 44q0 27 -25.5 39t-91.5 12h-52v66h53q54 0 80.5 11.5t26.5 36.5q0 28 -30.5 41.5t-82.5 13.5q-120 0 -124 -76l-99 8q2 65 61 102t163 37q97 0 155.5 -29.5t58.5 -86.5q0 -41 -30.5 -62
t-80.5 -25q62 -6 92.5 -28.5t30.5 -62.5q0 -59 -63 -92t-165 -33q-103 0 -162.5 37zM876 727h126l-588 -744h-126zM1127 86v-86h-98v86h-305v63l293 242h110v-238h100v-67h-100zM1029 153v170l-205 -170h205z" />
    <glyph glyph-name="questiondown" unicode="&#xbf;" horiz-adv-x="770" 
d="M447 190q-25 -34 -79 -55l-90 -35q-49 -19 -72.5 -43.5t-23.5 -69.5q0 -31 22.5 -58t66.5 -43.5t106 -16.5q101 0 160 38.5t59 107.5q0 31 -7 52l149 -14q7 -22 7 -50q0 -71 -44.5 -124.5t-128 -83t-196.5 -29.5q-107 0 -184.5 27t-117.5 75t-40 110q0 76 38.5 117.5
t108.5 70.5l86 35q36 15 50.5 33.5t14.5 49.5v29h140v-39q0 -50 -25 -84zM315 500h172v-134h-172v134z" />
    <glyph glyph-name="Agrave" unicode="&#xc0;" horiz-adv-x="965" 
d="M395 710h175l379 -710h-162l-76 150h-457l-76 -150h-162zM657 256l-134 263q-23 49 -39 93h-3q-16 -44 -39 -93l-134 -263h349zM421 760l-174 114h156l152 -114h-134z" />
    <glyph glyph-name="Aacute" unicode="&#xc1;" horiz-adv-x="965" 
d="M395 710h175l379 -710h-162l-76 150h-457l-76 -150h-162zM657 256l-134 263q-23 49 -39 93h-3q-16 -44 -39 -93l-134 -263h349zM567 874h156l-174 -114h-134z" />
    <glyph glyph-name="Acircumflex" unicode="&#xc2;" horiz-adv-x="965" 
d="M395 710h175l379 -710h-162l-76 150h-457l-76 -150h-162zM657 256l-134 263q-23 49 -39 93h-3q-16 -44 -39 -93l-134 -263h349zM578 760l-95 68l-96 -68h-135l154 114h154l153 -114h-135z" />
    <glyph glyph-name="Atilde" unicode="&#xc3;" horiz-adv-x="965" 
d="M395 710h175l379 -710h-162l-76 150h-457l-76 -150h-162zM657 256l-134 263q-23 49 -39 93h-3q-16 -44 -39 -93l-134 -263h349zM519 763q-24 8 -55 23q-23 12 -39.5 17.5t-35.5 5.5q-57 0 -69 -52l-82 25q27 109 149 109q34 0 59 -8t54 -23q25 -12 41 -17.5t36 -5.5
q56 0 69 53l81 -26q-27 -109 -149 -109q-35 0 -59 8z" />
    <glyph glyph-name="Adieresis" unicode="&#xc4;" horiz-adv-x="965" 
d="M395 710h175l379 -710h-162l-76 150h-457l-76 -150h-162zM657 256l-134 263q-23 49 -39 93h-3q-16 -44 -39 -93l-134 -263h349zM568 873h149v-113h-149v113zM248 873h149v-113h-149v113z" />
    <glyph glyph-name="Aring" unicode="&#xc5;" horiz-adv-x="965" 
d="M395 710h175l379 -710h-162l-76 150h-457l-76 -150h-162zM657 256l-134 263q-23 49 -39 93h-3q-16 -44 -39 -93l-134 -263h349zM389.5 770.5q-35.5 30.5 -35.5 79.5t35.5 80t92.5 31t92.5 -31t35.5 -80t-35.5 -79.5t-92.5 -30.5t-92.5 30.5zM441.5 812q15.5 -15 40.5 -15
t40 15t15 38q0 24 -15 39t-40 15t-40.5 -15t-15.5 -39q0 -23 15.5 -38z" />
    <glyph glyph-name="AE" unicode="&#xc6;" horiz-adv-x="1506" 
d="M646 710h780v-112h-578v-183h561v-106h-561v-197h585v-112h-735v149h-398l-130 -149h-174zM698 252v352l-308 -352h308z" />
    <glyph glyph-name="Ccedilla" unicode="&#xc7;" horiz-adv-x="960" 
d="M85 551.5q59 86.5 165.5 134.5t244.5 48q171 0 284 -70t148 -197l-156 -23q-25 83 -96.5 127.5t-183.5 44.5q-95 0 -164.5 -31.5t-106.5 -90.5t-37 -139q0 -77 38.5 -136.5t109 -92t163.5 -32.5q109 0 180 40.5t100 120.5l152 -30q-44 -118 -152.5 -182t-269.5 -67
l-24 -30q27 15 70 15q55 0 86.5 -22t31.5 -62q0 -42 -42 -67t-112 -25q-51 0 -88 15.5t-55 43.5l77 21q20 -26 67 -26q27 0 42 10t15 27q0 18 -14 28t-40 10q-33 0 -57 -16l-69 15l42 65q-125 9 -217 57.5t-141.5 130.5t-49.5 188q0 111 59 197.5z" />
    <glyph glyph-name="Egrave" unicode="&#xc8;" horiz-adv-x="878" 
d="M805 112v-112h-700v710h693v-112h-543v-183h526v-106h-526v-197h550zM391 760l-174 114h156l152 -114h-134z" />
    <glyph glyph-name="Eacute" unicode="&#xc9;" horiz-adv-x="878" 
d="M805 112v-112h-700v710h693v-112h-543v-183h526v-106h-526v-197h550zM537 874h156l-174 -114h-134z" />
    <glyph glyph-name="Ecircumflex" unicode="&#xca;" horiz-adv-x="878" 
d="M805 112v-112h-700v710h693v-112h-543v-183h526v-106h-526v-197h550zM547 760l-95 68l-96 -68h-135l154 114h154l153 -114h-135z" />
    <glyph glyph-name="Edieresis" unicode="&#xcb;" horiz-adv-x="878" 
d="M805 112v-112h-700v710h693v-112h-543v-183h526v-106h-526v-197h550zM538 873h149v-113h-149v113zM218 873h149v-113h-149v113z" />
    <glyph glyph-name="Igrave" unicode="&#xcc;" horiz-adv-x="359" 
d="M105 0v710h150v-710h-150zM119 760l-174 114h156l152 -114h-134z" />
    <glyph glyph-name="Iacute" unicode="&#xcd;" horiz-adv-x="359" 
d="M105 0v710h150v-710h-150zM265 874h156l-174 -114h-134z" />
    <glyph glyph-name="Icircumflex" unicode="&#xce;" horiz-adv-x="359" 
d="M105 0v710h150v-710h-150zM275 760l-95 68l-96 -68h-135l154 114h154l153 -114h-135z" />
    <glyph glyph-name="Idieresis" unicode="&#xcf;" horiz-adv-x="359" 
d="M105 0v710h150v-710h-150zM266 873h149v-113h-149v113zM-54 873h149v-113h-149v113z" />
    <glyph glyph-name="Eth" unicode="&#xd0;" horiz-adv-x="988" 
d="M105 414v296h426q130 0 227 -39t150.5 -116t53.5 -188t-55 -194t-153 -128t-223 -45h-426v320h-89v94h89zM520 109q134 0 209 67t75 189q0 117 -79.5 176.5t-213.5 59.5h-256v-187h285v-94h-285v-211h265z" />
    <glyph glyph-name="Ntilde" unicode="&#xd1;" horiz-adv-x="1016" 
d="M105 710h168l448 -472q37 -41 52 -73h3l-1 93v452h136v-710h-153l-462 482q-16 16 -30 36t-22 35h-3v-88v-465h-136v710zM548 763q-24 8 -55 23q-23 12 -39.5 17.5t-35.5 5.5q-57 0 -69 -52l-82 25q27 109 149 109q34 0 59 -8t54 -23q25 -12 41 -17.5t36 -5.5q56 0 69 53
l81 -26q-27 -109 -149 -109q-35 0 -59 8z" />
    <glyph glyph-name="Ograve" unicode="&#xd2;" horiz-adv-x="994" 
d="M250 23.5q-107 47.5 -165.5 133.5t-58.5 198q0 113 58.5 199t165.5 133t247 47t247 -47t166 -133t59 -199t-58.5 -199t-165.5 -133t-248 -47q-140 0 -247 47.5zM223 218q39 -60 110.5 -93t163.5 -33t163.5 33t111 93t39.5 137q0 78 -39.5 137.5t-110.5 92.5t-164 33
t-164 -33t-110 -92.5t-39 -137.5q0 -77 39 -137zM436 760l-174 114h156l152 -114h-134z" />
    <glyph glyph-name="Oacute" unicode="&#xd3;" horiz-adv-x="994" 
d="M250 23.5q-107 47.5 -165.5 133.5t-58.5 198q0 113 58.5 199t165.5 133t247 47t247 -47t166 -133t59 -199t-58.5 -199t-165.5 -133t-248 -47q-140 0 -247 47.5zM223 218q39 -60 110.5 -93t163.5 -33t163.5 33t111 93t39.5 137q0 78 -39.5 137.5t-110.5 92.5t-164 33
t-164 -33t-110 -92.5t-39 -137.5q0 -77 39 -137zM582 874h156l-174 -114h-134z" />
    <glyph glyph-name="Ocircumflex" unicode="&#xd4;" horiz-adv-x="994" 
d="M250 23.5q-107 47.5 -165.5 133.5t-58.5 198q0 113 58.5 199t165.5 133t247 47t247 -47t166 -133t59 -199t-58.5 -199t-165.5 -133t-248 -47q-140 0 -247 47.5zM223 218q39 -60 110.5 -93t163.5 -33t163.5 33t111 93t39.5 137q0 78 -39.5 137.5t-110.5 92.5t-164 33
t-164 -33t-110 -92.5t-39 -137.5q0 -77 39 -137zM593 760l-95 68l-96 -68h-135l154 114h154l153 -114h-135z" />
    <glyph glyph-name="Otilde" unicode="&#xd5;" horiz-adv-x="994" 
d="M250 23.5q-107 47.5 -165.5 133.5t-58.5 198q0 113 58.5 199t165.5 133t247 47t247 -47t166 -133t59 -199t-58.5 -199t-165.5 -133t-248 -47q-140 0 -247 47.5zM223 218q39 -60 110.5 -93t163.5 -33t163.5 33t111 93t39.5 137q0 78 -39.5 137.5t-110.5 92.5t-164 33
t-164 -33t-110 -92.5t-39 -137.5q0 -77 39 -137zM534 763q-24 8 -55 23q-23 12 -39.5 17.5t-35.5 5.5q-57 0 -69 -52l-82 25q27 109 149 109q34 0 59 -8t54 -23q25 -12 41 -17.5t36 -5.5q56 0 69 53l81 -26q-27 -109 -149 -109q-35 0 -59 8z" />
    <glyph glyph-name="Odieresis" unicode="&#xd6;" horiz-adv-x="994" 
d="M250 23.5q-107 47.5 -165.5 133.5t-58.5 198q0 113 58.5 199t165.5 133t247 47t247 -47t166 -133t59 -199t-58.5 -199t-165.5 -133t-248 -47q-140 0 -247 47.5zM223 218q39 -60 110.5 -93t163.5 -33t163.5 33t111 93t39.5 137q0 78 -39.5 137.5t-110.5 92.5t-164 33
t-164 -33t-110 -92.5t-39 -137.5q0 -77 39 -137zM583 873h149v-113h-149v113zM263 873h149v-113h-149v113z" />
    <glyph glyph-name="multiply" unicode="&#xd7;" 
d="M327 326l-214 183l71 66l217 -186l217 186l71 -66l-214 -183l214 -183l-70 -66l-218 186l-218 -185l-70 65z" />
    <glyph glyph-name="Oslash" unicode="&#xd8;" horiz-adv-x="994" 
d="M196 52l-88 -75l-56 53l82 69q-52 49 -80 114.5t-28 141.5q0 113 58.5 199t165.5 133t247 47q88 0 164.5 -19.5t136.5 -55.5l86 73l58 -51l-82 -69q53 -49 81 -114.5t28 -142.5q0 -113 -58.5 -199t-165.5 -133t-248 -47q-178 0 -301 76zM243 191l448 378q-82 49 -194 49
q-93 0 -164 -33t-110 -92.5t-39 -137.5q0 -96 59 -164zM497 92q92 0 163.5 33t111 93t39.5 137q0 96 -60 165l-448 -378q81 -50 194 -50z" />
    <glyph glyph-name="Ugrave" unicode="&#xd9;" horiz-adv-x="968" 
d="M226 710v-376q0 -67 30.5 -121t89 -85t138.5 -31q79 0 137.5 31t89 85t30.5 121v376h150v-387q0 -102 -47.5 -180.5t-139.5 -122.5t-220 -44t-220 44t-140 123t-48 181v386h150zM423 760l-174 114h156l152 -114h-134z" />
    <glyph glyph-name="Uacute" unicode="&#xda;" horiz-adv-x="968" 
d="M226 710v-376q0 -67 30.5 -121t89 -85t138.5 -31q79 0 137.5 31t89 85t30.5 121v376h150v-387q0 -102 -47.5 -180.5t-139.5 -122.5t-220 -44t-220 44t-140 123t-48 181v386h150zM569 874h156l-174 -114h-134z" />
    <glyph glyph-name="Ucircumflex" unicode="&#xdb;" horiz-adv-x="968" 
d="M226 710v-376q0 -67 30.5 -121t89 -85t138.5 -31q79 0 137.5 31t89 85t30.5 121v376h150v-387q0 -102 -47.5 -180.5t-139.5 -122.5t-220 -44t-220 44t-140 123t-48 181v386h150zM580 760l-95 68l-96 -68h-135l154 114h154l153 -114h-135z" />
    <glyph glyph-name="Udieresis" unicode="&#xdc;" horiz-adv-x="968" 
d="M226 710v-376q0 -67 30.5 -121t89 -85t138.5 -31q79 0 137.5 31t89 85t30.5 121v376h150v-387q0 -102 -47.5 -180.5t-139.5 -122.5t-220 -44t-220 44t-140 123t-48 181v386h150zM570 873h149v-113h-149v113zM250 873h149v-113h-149v113z" />
    <glyph glyph-name="Yacute" unicode="&#xdd;" horiz-adv-x="900" 
d="M372 249l-364 461h176l244 -317l10 -15t11 -21h2q3 13 21 36l249 317h170l-368 -461v-249h-151v249zM536 874h156l-174 -114h-134z" />
    <glyph glyph-name="Thorn" unicode="&#xde;" horiz-adv-x="818" 
d="M105 710h150v-110h267q128 0 200.5 -61.5t72.5 -170.5t-72.5 -171t-200.5 -62h-267v-135h-150v710zM488 244q73 0 110.5 32.5t37.5 91.5t-37.5 91.5t-110.5 32.5h-233v-248h233z" />
    <glyph glyph-name="germandbls" unicode="&#xdf;" horiz-adv-x="887" 
d="M188.5 665q92.5 69 270.5 69q157 0 248 -51t91 -143q0 -65 -45.5 -106.5t-128.5 -52.5q105 -10 162 -57t57 -124q0 -106 -88.5 -160.5t-255.5 -54.5q-70 0 -163 16v98q74 -16 142 -16q111 0 165.5 29t54.5 90q0 122 -229 122h-127v91h111q99 1 147.5 28.5t48.5 82.5
q0 56 -50 84t-145 28q-112 0 -165 -42.5t-53 -132.5v-463h-140v467q0 129 92.5 198z" />
    <glyph glyph-name="agrave" unicode="&#xe0;" horiz-adv-x="824" 
d="M118 21.5q-66 40.5 -66 113.5q0 35 14.5 63t42.5 47q30 20 75.5 32t127.5 17l289 16v11q0 51 -48 79t-133 28q-87 0 -139 -25t-62 -72h-151q9 56 54.5 98.5t122 66t175.5 23.5q162 0 242.5 -55t80.5 -163v-132q0 -63 2 -98.5t8 -70.5h-142q-7 39 -7 99
q-76 -118 -303 -118q-117 0 -183 40.5zM237.5 87q39.5 -18 114.5 -18q73 0 130 18t89 51.5t32 78.5v20l-251 -16q-87 -6 -120.5 -24t-33.5 -56q0 -36 39.5 -54zM356 573l-190 157h157l163 -157h-130z" />
    <glyph glyph-name="aacute" unicode="&#xe1;" horiz-adv-x="824" 
d="M118 21.5q-66 40.5 -66 113.5q0 35 14.5 63t42.5 47q30 20 75.5 32t127.5 17l289 16v11q0 51 -48 79t-133 28q-87 0 -139 -25t-62 -72h-151q9 56 54.5 98.5t122 66t175.5 23.5q162 0 242.5 -55t80.5 -163v-132q0 -63 2 -98.5t8 -70.5h-142q-7 39 -7 99
q-76 -118 -303 -118q-117 0 -183 40.5zM237.5 87q39.5 -18 114.5 -18q73 0 130 18t89 51.5t32 78.5v20l-251 -16q-87 -6 -120.5 -24t-33.5 -56q0 -36 39.5 -54zM515 730h157l-190 -157h-130z" />
    <glyph glyph-name="acircumflex" unicode="&#xe2;" horiz-adv-x="824" 
d="M118 21.5q-66 40.5 -66 113.5q0 35 14.5 63t42.5 47q30 20 75.5 32t127.5 17l289 16v11q0 51 -48 79t-133 28q-87 0 -139 -25t-62 -72h-151q9 56 54.5 98.5t122 66t175.5 23.5q162 0 242.5 -55t80.5 -163v-132q0 -63 2 -98.5t8 -70.5h-142q-7 39 -7 99
q-76 -118 -303 -118q-117 0 -183 40.5zM237.5 87q39.5 -18 114.5 -18q73 0 130 18t89 51.5t32 78.5v20l-251 -16q-87 -6 -120.5 -24t-33.5 -56q0 -36 39.5 -54zM534 573l-113 109l-114 -109h-123l160 157h153l160 -157h-123z" />
    <glyph glyph-name="atilde" unicode="&#xe3;" horiz-adv-x="824" 
d="M118 21.5q-66 40.5 -66 113.5q0 35 14.5 63t42.5 47q30 20 75.5 32t127.5 17l289 16v11q0 51 -48 79t-133 28q-87 0 -139 -25t-62 -72h-151q9 56 54.5 98.5t122 66t175.5 23.5q162 0 242.5 -55t80.5 -163v-132q0 -63 2 -98.5t8 -70.5h-142q-7 39 -7 99
q-76 -118 -303 -118q-117 0 -183 40.5zM237.5 87q39.5 -18 114.5 -18q73 0 130 18t89 51.5t32 78.5v20l-251 -16q-87 -6 -120.5 -24t-33.5 -56q0 -36 39.5 -54zM462.5 594q-26.5 9 -59.5 27q-26 14 -43.5 21t-39.5 7q-60 0 -75 -62l-83 26q13 58 52 88.5t101 30.5
q36 0 62.5 -9t59.5 -27q26 -14 43.5 -21t39.5 -7q62 0 75 62l83 -26q-12 -58 -51 -88.5t-101 -30.5q-37 0 -63.5 9z" />
    <glyph glyph-name="adieresis" unicode="&#xe4;" horiz-adv-x="824" 
d="M118 21.5q-66 40.5 -66 113.5q0 35 14.5 63t42.5 47q30 20 75.5 32t127.5 17l289 16v11q0 51 -48 79t-133 28q-87 0 -139 -25t-62 -72h-151q9 56 54.5 98.5t122 66t175.5 23.5q162 0 242.5 -55t80.5 -163v-132q0 -63 2 -98.5t8 -70.5h-142q-7 39 -7 99
q-76 -118 -303 -118q-117 0 -183 40.5zM237.5 87q39.5 -18 114.5 -18q73 0 130 18t89 51.5t32 78.5v20l-251 -16q-87 -6 -120.5 -24t-33.5 -56q0 -36 39.5 -54zM508 716h149v-127h-149v127zM183 716h149v-127h-149v127z" />
    <glyph glyph-name="aring" unicode="&#xe5;" horiz-adv-x="824" 
d="M118 21.5q-66 40.5 -66 113.5q0 35 14.5 63t42.5 47q30 20 75.5 32t127.5 17l289 16v11q0 51 -48 79t-133 28q-87 0 -139 -25t-62 -72h-151q9 56 54.5 98.5t122 66t175.5 23.5q162 0 242.5 -55t80.5 -163v-132q0 -63 2 -98.5t8 -70.5h-142q-7 39 -7 99
q-76 -118 -303 -118q-117 0 -183 40.5zM237.5 87q39.5 -18 114.5 -18q73 0 130 18t89 51.5t32 78.5v20l-251 -16q-87 -6 -120.5 -24t-33.5 -56q0 -36 39.5 -54zM294.5 587.5q-45.5 30.5 -45.5 81.5t45.5 81t125.5 30q79 0 124.5 -30t45.5 -81t-45 -81.5t-125 -30.5
t-125.5 30.5zM350 627q25 -15 70 -15t69.5 15t24.5 42q0 26 -25 41t-69 15q-45 0 -70 -15t-25 -41q0 -27 25 -42z" />
    <glyph glyph-name="ae" unicode="&#xe6;" horiz-adv-x="1309" 
d="M119.5 21q-67.5 40 -67.5 113q0 71 63.5 109.5t189.5 42.5l278 9v18q0 58 -42.5 86t-129.5 28t-138 -26.5t-57 -75.5h-148q14 90 106 142t239 52q182 0 253 -82q45 40 111.5 61t149.5 21q106 0 183.5 -32.5t119 -93t41.5 -144.5v-32h-547q8 -65 63.5 -101.5t150.5 -36.5
q144 0 208 91l111 -51q-99 -138 -323 -138q-108 0 -186.5 32.5t-119.5 92.5q-91 -125 -316 -125q-125 0 -192.5 40zM235 88.5q37 -18.5 110 -18.5q69 0 123.5 17.5t85 49t30.5 72.5v16l-250 -9q-69 -2 -102.5 -20.5t-33.5 -53.5t37 -53.5zM1129 301q-3 61 -60 97t-142 36
q-87 0 -141.5 -35.5t-61.5 -97.5h405z" />
    <glyph glyph-name="ccedilla" unicode="&#xe7;" horiz-adv-x="789" 
d="M77 393.5q45 60.5 128.5 93t196.5 32.5q147 0 236.5 -48.5t116.5 -142.5l-150 -20q-38 109 -208 109q-103 0 -160.5 -43.5t-57.5 -121.5t59 -123.5t160 -45.5q165 0 209 107l147 -22q-24 -82 -108.5 -131t-212.5 -55l-28 -36q27 15 70 15q55 0 86.5 -22t31.5 -62
q0 -42 -42 -67t-112 -25q-51 0 -88 15.5t-55 43.5l77 21q20 -26 67 -26q27 0 42 10t15 27q0 18 -14 28t-40 10q-33 0 -57 -16l-69 15l44 69q-100 5 -174.5 39.5t-114.5 93.5t-40 136q0 82 45 142.5z" />
    <glyph glyph-name="egrave" unicode="&#xe8;" horiz-adv-x="793" 
d="M203.5 12.5q-82.5 31.5 -127 91t-44.5 141.5q0 87 45 149t126 93.5t189 31.5q113 0 194.5 -32.5t125 -93.5t43.5 -145v-32h-585q8 -65 68.5 -101t164.5 -36q78 0 136 23t91 67l111 -51q-105 -137 -342 -137q-113 0 -195.5 31.5zM613 300q-1 62 -63.5 98t-157.5 36
q-94 0 -154 -36t-68 -98h443zM332 573l-190 157h157l163 -157h-130z" />
    <glyph glyph-name="eacute" unicode="&#xe9;" horiz-adv-x="793" 
d="M203.5 12.5q-82.5 31.5 -127 91t-44.5 141.5q0 87 45 149t126 93.5t189 31.5q113 0 194.5 -32.5t125 -93.5t43.5 -145v-32h-585q8 -65 68.5 -101t164.5 -36q78 0 136 23t91 67l111 -51q-105 -137 -342 -137q-113 0 -195.5 31.5zM613 300q-1 62 -63.5 98t-157.5 36
q-94 0 -154 -36t-68 -98h443zM492 730h157l-190 -157h-130z" />
    <glyph glyph-name="ecircumflex" unicode="&#xea;" horiz-adv-x="793" 
d="M203.5 12.5q-82.5 31.5 -127 91t-44.5 141.5q0 87 45 149t126 93.5t189 31.5q113 0 194.5 -32.5t125 -93.5t43.5 -145v-32h-585q8 -65 68.5 -101t164.5 -36q78 0 136 23t91 67l111 -51q-105 -137 -342 -137q-113 0 -195.5 31.5zM613 300q-1 62 -63.5 98t-157.5 36
q-94 0 -154 -36t-68 -98h443zM510 573l-113 109l-114 -109h-123l160 157h153l160 -157h-123z" />
    <glyph glyph-name="edieresis" unicode="&#xeb;" horiz-adv-x="793" 
d="M203.5 12.5q-82.5 31.5 -127 91t-44.5 141.5q0 87 45 149t126 93.5t189 31.5q113 0 194.5 -32.5t125 -93.5t43.5 -145v-32h-585q8 -65 68.5 -101t164.5 -36q78 0 136 23t91 67l111 -51q-105 -137 -342 -137q-113 0 -195.5 31.5zM613 300q-1 62 -63.5 98t-157.5 36
q-94 0 -154 -36t-68 -98h443zM484 716h149v-127h-149v127zM159 716h149v-127h-149v127z" />
    <glyph glyph-name="igrave" unicode="&#xec;" horiz-adv-x="330" 
d="M95 500h140v-500h-140v500zM101 573l-190 157h157l163 -157h-130z" />
    <glyph glyph-name="iacute" unicode="&#xed;" horiz-adv-x="330" 
d="M95 500h140v-500h-140v500zM260 730h157l-190 -157h-130z" />
    <glyph glyph-name="icircumflex" unicode="&#xee;" horiz-adv-x="330" 
d="M95 500h140v-500h-140v500zM279 573l-113 109l-114 -109h-123l160 157h153l160 -157h-123z" />
    <glyph glyph-name="idieresis" unicode="&#xef;" horiz-adv-x="330" 
d="M95 500h140v-500h-140v500zM253 716h149v-127h-149v127zM-72 716h149v-127h-149v127z" />
    <glyph glyph-name="eth" unicode="&#xf0;" horiz-adv-x="846" 
d="M125 50.5q-93 69.5 -93 191.5q0 76 41 134.5t117.5 91t181.5 32.5q89 0 155 -29.5t106 -82.5h2q-9 51 -44 98.5t-92 88.5l-190 -43l-18 50l143 33q-53 28 -119 51l112 71q95 -38 163 -87l124 28l19 -50l-90 -20q141 -129 141 -328q0 -90 -46 -157.5t-132.5 -104.5
t-206.5 -37q-181 0 -274 69.5zM237.5 126.5q58.5 -42.5 168.5 -42.5q111 0 173 43t62 116q0 48 -28.5 85t-82 57.5t-124.5 20.5q-110 0 -168.5 -44t-58.5 -119q0 -74 58.5 -116.5z" />
    <glyph glyph-name="ntilde" unicode="&#xf1;" horiz-adv-x="871" 
d="M95 500h138v-120q37 68 107.5 103.5t169.5 35.5q140 0 213.5 -70.5t73.5 -206.5v-242h-140v215q0 197 -197 197q-104 0 -164.5 -52.5t-60.5 -143.5v-216h-140v500zM526.5 594q-26.5 9 -59.5 27q-26 14 -43.5 21t-39.5 7q-60 0 -75 -62l-83 26q13 58 52 88.5t101 30.5
q36 0 62.5 -9t59.5 -27q26 -14 43.5 -21t39.5 -7q62 0 75 62l83 -26q-12 -58 -51 -88.5t-101 -30.5q-37 0 -63.5 9z" />
    <glyph glyph-name="ograve" unicode="&#xf2;" horiz-adv-x="808" 
d="M209.5 14.5q-84.5 33.5 -131 94.5t-46.5 141t46.5 141t131 94.5t194.5 33.5t194.5 -33.5t131 -94.5t46.5 -141t-46.5 -141t-131 -94.5t-194.5 -33.5t-194.5 33.5zM240 126q62 -46 164 -46t163.5 46t61.5 124t-61.5 124t-163.5 46t-164 -46t-62 -124t62 -124zM340 573
l-190 157h157l163 -157h-130z" />
    <glyph glyph-name="oacute" unicode="&#xf3;" horiz-adv-x="808" 
d="M209.5 14.5q-84.5 33.5 -131 94.5t-46.5 141t46.5 141t131 94.5t194.5 33.5t194.5 -33.5t131 -94.5t46.5 -141t-46.5 -141t-131 -94.5t-194.5 -33.5t-194.5 33.5zM240 126q62 -46 164 -46t163.5 46t61.5 124t-61.5 124t-163.5 46t-164 -46t-62 -124t62 -124zM499 730h157
l-190 -157h-130z" />
    <glyph glyph-name="ocircumflex" unicode="&#xf4;" horiz-adv-x="808" 
d="M209.5 14.5q-84.5 33.5 -131 94.5t-46.5 141t46.5 141t131 94.5t194.5 33.5t194.5 -33.5t131 -94.5t46.5 -141t-46.5 -141t-131 -94.5t-194.5 -33.5t-194.5 33.5zM240 126q62 -46 164 -46t163.5 46t61.5 124t-61.5 124t-163.5 46t-164 -46t-62 -124t62 -124zM517 573
l-113 109l-114 -109h-123l160 157h153l160 -157h-123z" />
    <glyph glyph-name="otilde" unicode="&#xf5;" horiz-adv-x="808" 
d="M209.5 14.5q-84.5 33.5 -131 94.5t-46.5 141t46.5 141t131 94.5t194.5 33.5t194.5 -33.5t131 -94.5t46.5 -141t-46.5 -141t-131 -94.5t-194.5 -33.5t-194.5 33.5zM240 126q62 -46 164 -46t163.5 46t61.5 124t-61.5 124t-163.5 46t-164 -46t-62 -124t62 -124zM445.5 594
q-26.5 9 -59.5 27q-26 14 -43.5 21t-39.5 7q-60 0 -75 -62l-83 26q13 58 52 88.5t101 30.5q36 0 62.5 -9t59.5 -27q26 -14 43.5 -21t39.5 -7q62 0 75 62l83 -26q-12 -58 -51 -88.5t-101 -30.5q-37 0 -63.5 9z" />
    <glyph glyph-name="odieresis" unicode="&#xf6;" horiz-adv-x="808" 
d="M209.5 14.5q-84.5 33.5 -131 94.5t-46.5 141t46.5 141t131 94.5t194.5 33.5t194.5 -33.5t131 -94.5t46.5 -141t-46.5 -141t-131 -94.5t-194.5 -33.5t-194.5 33.5zM240 126q62 -46 164 -46t163.5 46t61.5 124t-61.5 124t-163.5 46t-164 -46t-62 -124t62 -124zM492 716h149
v-127h-149v127zM167 716h149v-127h-149v127z" />
    <glyph glyph-name="divide" unicode="&#xf7;" 
d="M93 378h617v-101h-617v101zM351.5 176.5q19.5 19.5 50.5 19.5t51 -19t20 -51q0 -30 -20.5 -50t-50.5 -20q-31 0 -50.5 19.5t-19.5 50.5t19.5 50.5zM351.5 578.5q19.5 19.5 50.5 19.5t51 -19t20 -51q0 -30 -20.5 -50t-50.5 -20q-31 0 -50.5 19.5t-19.5 50.5t19.5 50.5z
" />
    <glyph glyph-name="oslash" unicode="&#xf8;" horiz-adv-x="808" 
d="M168 34l-85 -63l-46 45l76 56q-39 35 -60 80t-21 98q0 80 46.5 141t131 94.5t194.5 33.5q140 0 237 -53l84 62l45 -47l-73 -54q79 -73 79 -177q0 -80 -46.5 -141t-131 -94.5t-194.5 -33.5q-139 0 -236 53zM215 149l326 242q-56 29 -137 29q-102 0 -164 -46t-62 -124
q0 -59 37 -101zM404 80q102 0 163.5 46t61.5 124q0 58 -36 100l-325 -241q56 -29 136 -29z" />
    <glyph glyph-name="ugrave" unicode="&#xf9;" horiz-adv-x="859" 
d="M145 45.5q-71 64.5 -71 192.5v262h140v-237q0 -98 52 -138t131 -40q77 0 128 29t75 74.5t24 94.5v217h141v-500h-139v127q-33 -71 -105.5 -108.5t-169.5 -37.5q-135 0 -206 64.5zM353 573l-190 157h157l163 -157h-130z" />
    <glyph glyph-name="uacute" unicode="&#xfa;" horiz-adv-x="859" 
d="M145 45.5q-71 64.5 -71 192.5v262h140v-237q0 -98 52 -138t131 -40q77 0 128 29t75 74.5t24 94.5v217h141v-500h-139v127q-33 -71 -105.5 -108.5t-169.5 -37.5q-135 0 -206 64.5zM512 730h157l-190 -157h-130z" />
    <glyph glyph-name="ucircumflex" unicode="&#xfb;" horiz-adv-x="859" 
d="M145 45.5q-71 64.5 -71 192.5v262h140v-237q0 -98 52 -138t131 -40q77 0 128 29t75 74.5t24 94.5v217h141v-500h-139v127q-33 -71 -105.5 -108.5t-169.5 -37.5q-135 0 -206 64.5zM530 573l-113 109l-114 -109h-123l160 157h153l160 -157h-123z" />
    <glyph glyph-name="udieresis" unicode="&#xfc;" horiz-adv-x="859" 
d="M145 45.5q-71 64.5 -71 192.5v262h140v-237q0 -98 52 -138t131 -40q77 0 128 29t75 74.5t24 94.5v217h141v-500h-139v127q-33 -71 -105.5 -108.5t-169.5 -37.5q-135 0 -206 64.5zM505 716h149v-127h-149v127zM180 716h149v-127h-149v127z" />
    <glyph glyph-name="yacute" unicode="&#xfd;" horiz-adv-x="739" 
d="M48 -207v111q40 -7 73 -7q60 0 108.5 24.5t72.5 65.5l5 11l-309 502h160l199 -348q12 -22 19 -44h3q5 15 19 43l190 349h154l-302 -528q-54 -99 -125 -142.5t-178 -43.5q-43 0 -89 7zM465 730h157l-190 -157h-130z" />
    <glyph glyph-name="thorn" unicode="&#xfe;" horiz-adv-x="869" 
d="M95 725h140v-320q40 54 114 84t166 30q96 0 169 -33.5t113 -94t40 -139.5t-41.5 -140.5t-116.5 -96t-170 -34.5q-87 0 -161 29t-113 78v-283h-140v920zM261 159q29 -37 81.5 -57.5t120.5 -20.5q106 0 166.5 45.5t60.5 125.5q0 78 -59.5 123t-162.5 45q-68 0 -122 -20.5
t-84 -57t-30 -82.5v-16q0 -48 29 -85z" />
    <glyph glyph-name="ydieresis" unicode="&#xff;" horiz-adv-x="739" 
d="M48 -207v111q40 -7 73 -7q60 0 108.5 24.5t72.5 65.5l5 11l-309 502h160l199 -348q12 -22 19 -44h3q5 15 19 43l190 349h154l-302 -528q-54 -99 -125 -142.5t-178 -43.5q-43 0 -89 7zM458 716h149v-127h-149v127zM133 716h149v-127h-149v127z" />
    <glyph glyph-name="Amacron" unicode="&#x100;" horiz-adv-x="965" 
d="M395 710h175l379 -710h-162l-76 150h-457l-76 -150h-162zM657 256l-134 263q-23 49 -39 93h-3q-16 -44 -39 -93l-134 -263h349zM255 843h456v-82h-456v82z" />
    <glyph glyph-name="amacron" unicode="&#x101;" horiz-adv-x="824" 
d="M118 21.5q-66 40.5 -66 113.5q0 35 14.5 63t42.5 47q30 20 75.5 32t127.5 17l289 16v11q0 51 -48 79t-133 28q-87 0 -139 -25t-62 -72h-151q9 56 54.5 98.5t122 66t175.5 23.5q162 0 242.5 -55t80.5 -163v-132q0 -63 2 -98.5t8 -70.5h-142q-7 39 -7 99
q-76 -118 -303 -118q-117 0 -183 40.5zM237.5 87q39.5 -18 114.5 -18q73 0 130 18t89 51.5t32 78.5v20l-251 -16q-87 -6 -120.5 -24t-33.5 -56q0 -36 39.5 -54zM180 685h481v-83h-481v83z" />
    <glyph glyph-name="Abreve" unicode="&#x102;" horiz-adv-x="965" 
d="M395 710h175l379 -710h-162l-76 150h-457l-76 -150h-162zM657 256l-134 263q-23 49 -39 93h-3q-16 -44 -39 -93l-134 -263h349zM411 836.5q26 -14.5 72 -14.5t72 14.5t31 37.5h98q-7 -57 -62 -88t-139 -31q-85 0 -140 31t-62 88h98q6 -23 32 -37.5z" />
    <glyph glyph-name="abreve" unicode="&#x103;" horiz-adv-x="824" 
d="M118 21.5q-66 40.5 -66 113.5q0 35 14.5 63t42.5 47q30 20 75.5 32t127.5 17l289 16v11q0 51 -48 79t-133 28q-87 0 -139 -25t-62 -72h-151q9 56 54.5 98.5t122 66t175.5 23.5q162 0 242.5 -55t80.5 -163v-132q0 -63 2 -98.5t8 -70.5h-142q-7 39 -7 99
q-76 -118 -303 -118q-117 0 -183 40.5zM237.5 87q39.5 -18 114.5 -18q73 0 130 18t89 51.5t32 78.5v20l-251 -16q-87 -6 -120.5 -24t-33.5 -56q0 -36 39.5 -54zM345 663q27 -23 75 -23t74.5 23t31.5 67h101q-6 -77 -60.5 -118.5t-146.5 -41.5t-147 41.5t-61 118.5h102
q4 -44 31 -67z" />
    <glyph glyph-name="Aogonek" unicode="&#x104;" horiz-adv-x="965" 
d="M395 710h175l379 -710h-37q-75 -5 -115 -33t-40 -63q0 -21 14 -34t36 -13t37 11.5t23 33.5l89 -13q-8 -44 -50 -68.5t-109 -24.5q-63 0 -101.5 26.5t-38.5 70.5q0 40 31.5 69.5t94.5 46.5l-72 141h-457l-76 -150h-162zM657 256l-134 263q-23 49 -39 93h-3
q-16 -44 -39 -93l-134 -263h349z" />
    <glyph glyph-name="aogonek" unicode="&#x105;" horiz-adv-x="824" 
d="M118 21.5q-66 40.5 -66 113.5q0 35 14.5 63t42.5 47q30 20 75.5 32t127.5 17l289 16v11q0 51 -48 79t-133 28q-87 0 -139 -25t-62 -72h-151q9 56 54.5 98.5t122 66t175.5 23.5q162 0 242.5 -55t80.5 -163v-132q0 -63 2 -98.5t8 -70.5h-18q-75 -5 -115 -33t-40 -63
q0 -21 14 -34t36 -13t37 11.5t23 33.5l89 -13q-8 -44 -50 -68.5t-109 -24.5q-63 0 -101.5 26.5t-38.5 70.5q0 40 32.5 70.5t96.5 46.5q-5 43 -5 89q-76 -118 -303 -118q-117 0 -183 40.5zM237.5 87q39.5 -18 114.5 -18q73 0 130 18t89 51.5t32 78.5v20l-251 -16
q-87 -6 -120.5 -24t-33.5 -56q0 -36 39.5 -54z" />
    <glyph glyph-name="Cacute" unicode="&#x106;" horiz-adv-x="960" 
d="M243 22.5q-104 46.5 -160.5 132t-56.5 199.5q0 111 59 197.5t165.5 134.5t244.5 48q171 0 284 -70t148 -197l-156 -23q-25 83 -96.5 127.5t-183.5 44.5q-95 0 -164.5 -31.5t-106.5 -90.5t-37 -139q0 -77 38.5 -136.5t109 -92t163.5 -32.5q109 0 180 40.5t100 120.5
l152 -30q-45 -121 -157.5 -185t-281.5 -64q-140 0 -244 46.5zM575 874h156l-174 -114h-134z" />
    <glyph glyph-name="cacute" unicode="&#x107;" horiz-adv-x="789" 
d="M205 14.5q-83 33.5 -128 94.5t-45 142q0 82 45 142.5t128.5 93t196.5 32.5q147 0 236.5 -48.5t116.5 -142.5l-150 -20q-38 109 -208 109q-103 0 -160.5 -43.5t-57.5 -121.5t59 -123.5t160 -45.5q165 0 209 107l147 -22q-25 -88 -120 -137.5t-236 -49.5q-110 0 -193 33.5z
M496 730h157l-190 -157h-130z" />
    <glyph glyph-name="Ccircumflex" unicode="&#x108;" horiz-adv-x="960" 
d="M243 22.5q-104 46.5 -160.5 132t-56.5 199.5q0 111 59 197.5t165.5 134.5t244.5 48q171 0 284 -70t148 -197l-156 -23q-25 83 -96.5 127.5t-183.5 44.5q-95 0 -164.5 -31.5t-106.5 -90.5t-37 -139q0 -77 38.5 -136.5t109 -92t163.5 -32.5q109 0 180 40.5t100 120.5
l152 -30q-45 -121 -157.5 -185t-281.5 -64q-140 0 -244 46.5zM586 760l-95 68l-96 -68h-135l154 114h154l153 -114h-135z" />
    <glyph glyph-name="ccircumflex" unicode="&#x109;" horiz-adv-x="789" 
d="M205 14.5q-83 33.5 -128 94.5t-45 142q0 82 45 142.5t128.5 93t196.5 32.5q147 0 236.5 -48.5t116.5 -142.5l-150 -20q-38 109 -208 109q-103 0 -160.5 -43.5t-57.5 -121.5t59 -123.5t160 -45.5q165 0 209 107l147 -22q-25 -88 -120 -137.5t-236 -49.5q-110 0 -193 33.5z
M514 573l-113 109l-114 -109h-123l160 157h153l160 -157h-123z" />
    <glyph glyph-name="Cdotaccent" unicode="&#x10a;" horiz-adv-x="960" 
d="M243 22.5q-104 46.5 -160.5 132t-56.5 199.5q0 111 59 197.5t165.5 134.5t244.5 48q171 0 284 -70t148 -197l-156 -23q-25 83 -96.5 127.5t-183.5 44.5q-95 0 -164.5 -31.5t-106.5 -90.5t-37 -139q0 -77 38.5 -136.5t109 -92t163.5 -32.5q109 0 180 40.5t100 120.5
l152 -30q-45 -121 -157.5 -185t-281.5 -64q-140 0 -244 46.5zM412 873h156v-113h-156v113z" />
    <glyph glyph-name="cdotaccent" unicode="&#x10b;" horiz-adv-x="789" 
d="M205 14.5q-83 33.5 -128 94.5t-45 142q0 82 45 142.5t128.5 93t196.5 32.5q147 0 236.5 -48.5t116.5 -142.5l-150 -20q-38 109 -208 109q-103 0 -160.5 -43.5t-57.5 -121.5t59 -123.5t160 -45.5q165 0 209 107l147 -22q-25 -88 -120 -137.5t-236 -49.5q-110 0 -193 33.5z
M323 716h156v-133h-156v133z" />
    <glyph glyph-name="Ccaron" unicode="&#x10c;" horiz-adv-x="960" 
d="M243 22.5q-104 46.5 -160.5 132t-56.5 199.5q0 111 59 197.5t165.5 134.5t244.5 48q171 0 284 -70t148 -197l-156 -23q-25 83 -96.5 127.5t-183.5 44.5q-95 0 -164.5 -31.5t-106.5 -90.5t-37 -139q0 -77 38.5 -136.5t109 -92t163.5 -32.5q109 0 180 40.5t100 120.5
l152 -30q-45 -121 -157.5 -185t-281.5 -64q-140 0 -244 46.5zM568 760h-154l-154 114h135l96 -68l95 68h135z" />
    <glyph glyph-name="ccaron" unicode="&#x10d;" horiz-adv-x="789" 
d="M205 14.5q-83 33.5 -128 94.5t-45 142q0 82 45 142.5t128.5 93t196.5 32.5q147 0 236.5 -48.5t116.5 -142.5l-150 -20q-38 109 -208 109q-103 0 -160.5 -43.5t-57.5 -121.5t59 -123.5t160 -45.5q165 0 209 107l147 -22q-25 -88 -120 -137.5t-236 -49.5q-110 0 -193 33.5z
M287 730l113 -109l114 109h123l-160 -157h-153l-160 157h123z" />
    <glyph glyph-name="Dcaron" unicode="&#x10e;" horiz-adv-x="987" 
d="M105 710h426q130 0 227 -39t150.5 -116t53.5 -188t-55 -194t-153 -128t-223 -45h-426v710zM520 109q134 0 209 67t75 189q0 117 -79.5 176.5t-213.5 59.5h-256v-492h265zM577 760h-154l-154 114h135l96 -68l95 68h135z" />
    <glyph glyph-name="dcaron" unicode="&#x10f;" horiz-adv-x="869" 
d="M189 15.5q-74 34.5 -115.5 96t-41.5 139.5q0 79 41.5 139.5t116.5 94.5t172 34q179 0 272 -105v311h140v-725h-137v101q-42 -59 -113.5 -89.5t-167.5 -30.5q-93 0 -167 34.5zM240 127q61 -46 164 -46q67 0 120 20t83 56.5t30 82.5v17q0 47 -30.5 84.5t-85 58t-123.5 20.5
q-102 0 -160.5 -45t-58.5 -124q0 -78 61 -124zM821 560l73 167h119l-104 -167h-88z" />
    <glyph glyph-name="Dcroat" unicode="&#x110;" horiz-adv-x="988" 
d="M105 414v296h426q130 0 227 -39t150.5 -116t53.5 -188t-55 -194t-153 -128t-223 -45h-426v320h-89v94h89zM520 109q134 0 209 67t75 189q0 117 -79.5 176.5t-213.5 59.5h-256v-187h285v-94h-285v-211h265z" />
    <glyph glyph-name="dcroat" unicode="&#x111;" horiz-adv-x="869" 
d="M189 15.5q-74 34.5 -115.5 96t-41.5 139.5q0 79 41.5 139.5t116.5 94.5t172 34q179 0 272 -105v160h-257v73h257v78h140v-78h111v-73h-111v-574h-137v101q-42 -59 -113.5 -89.5t-167.5 -30.5q-93 0 -167 34.5zM240 127q61 -46 164 -46q67 0 120 20t83 56.5t30 82.5v17
q0 47 -30.5 84.5t-85 58t-123.5 20.5q-102 0 -160.5 -45t-58.5 -124q0 -78 61 -124z" />
    <glyph glyph-name="Emacron" unicode="&#x112;" horiz-adv-x="878" 
d="M805 112v-112h-700v710h693v-112h-543v-183h526v-106h-526v-197h550zM224 843h456v-82h-456v82z" />
    <glyph glyph-name="emacron" unicode="&#x113;" horiz-adv-x="793" 
d="M203.5 12.5q-82.5 31.5 -127 91t-44.5 141.5q0 87 45 149t126 93.5t189 31.5q113 0 194.5 -32.5t125 -93.5t43.5 -145v-32h-585q8 -65 68.5 -101t164.5 -36q78 0 136 23t91 67l111 -51q-105 -137 -342 -137q-113 0 -195.5 31.5zM613 300q-1 62 -63.5 98t-157.5 36
q-94 0 -154 -36t-68 -98h443zM156 685h481v-83h-481v83z" />
    <glyph glyph-name="Ebreve" unicode="&#x114;" horiz-adv-x="878" 
d="M805 112v-112h-700v710h693v-112h-543v-183h526v-106h-526v-197h550zM380 836.5q26 -14.5 72 -14.5t72 14.5t31 37.5h98q-7 -57 -62 -88t-139 -31q-85 0 -140 31t-62 88h98q6 -23 32 -37.5z" />
    <glyph glyph-name="ebreve" unicode="&#x115;" horiz-adv-x="793" 
d="M203.5 12.5q-82.5 31.5 -127 91t-44.5 141.5q0 87 45 149t126 93.5t189 31.5q113 0 194.5 -32.5t125 -93.5t43.5 -145v-32h-585q8 -65 68.5 -101t164.5 -36q78 0 136 23t91 67l111 -51q-105 -137 -342 -137q-113 0 -195.5 31.5zM613 300q-1 62 -63.5 98t-157.5 36
q-94 0 -154 -36t-68 -98h443zM322 663q27 -23 75 -23t74.5 23t31.5 67h101q-6 -77 -60.5 -118.5t-146.5 -41.5t-147 41.5t-61 118.5h102q4 -44 31 -67z" />
    <glyph glyph-name="Edotaccent" unicode="&#x116;" horiz-adv-x="878" 
d="M805 112v-112h-700v710h693v-112h-543v-183h526v-106h-526v-197h550zM374 873h156v-113h-156v113z" />
    <glyph glyph-name="edotaccent" unicode="&#x117;" horiz-adv-x="793" 
d="M203.5 12.5q-82.5 31.5 -127 91t-44.5 141.5q0 87 45 149t126 93.5t189 31.5q113 0 194.5 -32.5t125 -93.5t43.5 -145v-32h-585q8 -65 68.5 -101t164.5 -36q78 0 136 23t91 67l111 -51q-105 -137 -342 -137q-113 0 -195.5 31.5zM613 300q-1 62 -63.5 98t-157.5 36
q-94 0 -154 -36t-68 -98h443zM318 716h156v-133h-156v133z" />
    <glyph glyph-name="Eogonek" unicode="&#x118;" horiz-adv-x="878" 
d="M805 112v-112h-54q-75 -5 -115 -33t-40 -63q0 -21 14 -34t36 -13t37 11.5t23 33.5l89 -13q-8 -44 -50 -68.5t-109 -24.5q-63 0 -101.5 26.5t-38.5 70.5q0 71 98 107h-489v710h693v-112h-543v-183h526v-106h-526v-197h550z" />
    <glyph glyph-name="eogonek" unicode="&#x119;" horiz-adv-x="793" 
d="M690.5 -176.5q-41.5 -24.5 -108.5 -24.5q-63 0 -101.5 26.5t-38.5 68.5q0 27 14 50t46 44q-45 -7 -103 -7q-113 0 -195.5 31.5t-127 91t-44.5 141.5q0 87 45 149t126 93.5t189 31.5q113 0 194.5 -32.5t125 -93.5t43.5 -145v-32h-585q8 -65 68.5 -101t164.5 -36
q78 0 136 23t91 67l111 -51q-39 -49 -91 -80q-61 -42 -84.5 -71t-23.5 -59q0 -21 14 -34.5t36 -13.5q45 0 60 46l88 -14q-8 -44 -49.5 -68.5zM613 300q-1 62 -63.5 98t-157.5 36q-94 0 -154 -36t-68 -98h443z" />
    <glyph glyph-name="Ecaron" unicode="&#x11a;" horiz-adv-x="878" 
d="M805 112v-112h-700v710h693v-112h-543v-183h526v-106h-526v-197h550zM529 760h-154l-154 114h135l96 -68l95 68h135z" />
    <glyph glyph-name="ecaron" unicode="&#x11b;" horiz-adv-x="793" 
d="M203.5 12.5q-82.5 31.5 -127 91t-44.5 141.5q0 87 45 149t126 93.5t189 31.5q113 0 194.5 -32.5t125 -93.5t43.5 -145v-32h-585q8 -65 68.5 -101t164.5 -36q78 0 136 23t91 67l111 -51q-105 -137 -342 -137q-113 0 -195.5 31.5zM613 300q-1 62 -63.5 98t-157.5 36
q-94 0 -154 -36t-68 -98h443zM283 730l113 -109l114 109h123l-160 -157h-153l-160 157h123z" />
    <glyph glyph-name="Gcircumflex" unicode="&#x11c;" horiz-adv-x="989" 
d="M228.5 23.5q-97.5 47.5 -150 132.5t-52.5 195q0 112 57.5 199t163 135.5t246.5 48.5q110 0 199 -28.5t147.5 -80.5t80.5 -123l-160 -28q-22 66 -94.5 106t-178.5 40q-93 0 -162.5 -33t-106.5 -93.5t-37 -141.5q0 -79 37.5 -138.5t107 -92.5t162.5 -33q88 0 154.5 25
t102.5 68t38 95v4h-301v104h439v-384h-115l-9 126q-44 -68 -131 -109t-210 -41q-130 0 -227.5 47.5zM600 760l-95 68l-96 -68h-135l154 114h154l153 -114h-135z" />
    <glyph glyph-name="gcircumflex" unicode="&#x11d;" horiz-adv-x="811" 
d="M128 -182q-83 32 -83 99q0 35 21.5 58t67.5 36q-71 28 -71 89q0 40 29.5 67.5t84.5 41.5q-92 48 -92 135q0 82 83 128.5t230 46.5q105 0 182 -25q13 45 52.5 69t100.5 24q21 0 45 -4v-98q-20 5 -53 5q-56 0 -84 -25q71 -45 71 -121q0 -83 -83.5 -130.5t-230.5 -47.5
q-96 0 -168 22q-44 -12 -44 -42q0 -40 75 -40l310 -1q102 0 152 -35.5t50 -106.5q0 -92 -92.5 -134.5t-293.5 -42.5q-176 0 -259 32zM215.5 -118.5q57.5 -18.5 179.5 -18.5q139 0 196.5 18t57.5 60q0 27 -22.5 40t-72.5 13h-314q-16 0 -42 2q-40 -19 -40 -56
q0 -40 57.5 -58.5zM321 730h153l160 -134h-123l-113 91l-114 -91h-123zM274 270.5q45 -26.5 124 -26.5q80 0 125 26.5t45 73.5t-44.5 72t-125.5 25t-125 -25t-44 -72t45 -73.5z" />
    <glyph glyph-name="Gbreve" unicode="&#x11e;" horiz-adv-x="989" 
d="M228.5 23.5q-97.5 47.5 -150 132.5t-52.5 195q0 112 57.5 199t163 135.5t246.5 48.5q110 0 199 -28.5t147.5 -80.5t80.5 -123l-160 -28q-22 66 -94.5 106t-178.5 40q-93 0 -162.5 -33t-106.5 -93.5t-37 -141.5q0 -79 37.5 -138.5t107 -92.5t162.5 -33q88 0 154.5 25
t102.5 68t38 95v4h-301v104h439v-384h-115l-9 126q-44 -68 -131 -109t-210 -41q-130 0 -227.5 47.5zM433 836.5q26 -14.5 72 -14.5t72 14.5t31 37.5h98q-7 -57 -62 -88t-139 -31q-85 0 -140 31t-62 88h98q6 -23 32 -37.5z" />
    <glyph glyph-name="gbreve" unicode="&#x11f;" horiz-adv-x="811" 
d="M128 -182q-83 32 -83 99q0 35 21.5 58t67.5 36q-71 28 -71 89q0 40 29.5 67.5t84.5 41.5q-92 48 -92 135q0 82 83 128.5t230 46.5q105 0 182 -25q13 45 52.5 69t100.5 24q21 0 45 -4v-98q-20 5 -53 5q-56 0 -84 -25q71 -45 71 -121q0 -83 -83.5 -130.5t-230.5 -47.5
q-96 0 -168 22q-44 -12 -44 -42q0 -40 75 -40l310 -1q102 0 152 -35.5t50 -106.5q0 -92 -92.5 -134.5t-293.5 -42.5q-176 0 -259 32zM215.5 -118.5q57.5 -18.5 179.5 -18.5q139 0 196.5 18t57.5 60q0 27 -22.5 40t-72.5 13h-314q-16 0 -42 2q-40 -19 -40 -56
q0 -40 57.5 -58.5zM274 270.5q45 -26.5 124 -26.5q80 0 125 26.5t45 73.5t-44.5 72t-125.5 25t-125 -25t-44 -72t45 -73.5zM323 663q27 -23 75 -23t74.5 23t31.5 67h101q-6 -77 -60.5 -118.5t-146.5 -41.5t-147 41.5t-61 118.5h102q4 -44 31 -67z" />
    <glyph glyph-name="Gdotaccent" unicode="&#x120;" horiz-adv-x="989" 
d="M228.5 23.5q-97.5 47.5 -150 132.5t-52.5 195q0 112 57.5 199t163 135.5t246.5 48.5q110 0 199 -28.5t147.5 -80.5t80.5 -123l-160 -28q-22 66 -94.5 106t-178.5 40q-93 0 -162.5 -33t-106.5 -93.5t-37 -141.5q0 -79 37.5 -138.5t107 -92.5t162.5 -33q88 0 154.5 25
t102.5 68t38 95v4h-301v104h439v-384h-115l-9 126q-44 -68 -131 -109t-210 -41q-130 0 -227.5 47.5zM427 873h156v-113h-156v113z" />
    <glyph glyph-name="gdotaccent" unicode="&#x121;" horiz-adv-x="811" 
d="M128 -182q-83 32 -83 99q0 35 21.5 58t67.5 36q-71 28 -71 89q0 40 29.5 67.5t84.5 41.5q-92 48 -92 135q0 82 83 128.5t230 46.5q105 0 182 -25q13 45 52.5 69t100.5 24q21 0 45 -4v-98q-20 5 -53 5q-56 0 -84 -25q71 -45 71 -121q0 -83 -83.5 -130.5t-230.5 -47.5
q-96 0 -168 22q-44 -12 -44 -42q0 -40 75 -40l310 -1q102 0 152 -35.5t50 -106.5q0 -92 -92.5 -134.5t-293.5 -42.5q-176 0 -259 32zM215.5 -118.5q57.5 -18.5 179.5 -18.5q139 0 196.5 18t57.5 60q0 27 -22.5 40t-72.5 13h-314q-16 0 -42 2q-40 -19 -40 -56
q0 -40 57.5 -58.5zM274 270.5q45 -26.5 124 -26.5q80 0 125 26.5t45 73.5t-44.5 72t-125.5 25t-125 -25t-44 -72t45 -73.5zM320 716h156v-133h-156v133z" />
    <glyph glyph-name="uni0122" unicode="&#x122;" horiz-adv-x="989" 
d="M228.5 23.5q-97.5 47.5 -150 132.5t-52.5 195q0 112 57.5 199t163 135.5t246.5 48.5q110 0 199 -28.5t147.5 -80.5t80.5 -123l-160 -28q-22 66 -94.5 106t-178.5 40q-93 0 -162.5 -33t-106.5 -93.5t-37 -141.5q0 -79 37.5 -138.5t107 -92.5t162.5 -33q88 0 154.5 25
t102.5 68t38 95v4h-301v104h439v-384h-115l-9 126q-44 -68 -131 -109t-210 -41q-130 0 -227.5 47.5zM497.5 -178q12.5 13 13.5 33h-80v93h147v-72q0 -45 -23.5 -73.5t-81.5 -42.5l-23 39q35 10 47.5 23z" />
    <glyph glyph-name="uni0123" unicode="&#x123;" horiz-adv-x="811" 
d="M128 -182q-83 32 -83 99q0 35 21.5 58t67.5 36q-71 28 -71 89q0 40 29.5 67.5t84.5 41.5q-92 48 -92 135q0 82 83 128.5t230 46.5q105 0 182 -25q13 45 52.5 69t100.5 24q21 0 45 -4v-98q-20 5 -53 5q-56 0 -84 -25q71 -45 71 -121q0 -83 -83.5 -130.5t-230.5 -47.5
q-96 0 -168 22q-44 -12 -44 -42q0 -40 75 -40l310 -1q102 0 152 -35.5t50 -106.5q0 -92 -92.5 -134.5t-293.5 -42.5q-176 0 -259 32zM215.5 -118.5q57.5 -18.5 179.5 -18.5q139 0 196.5 18t57.5 60q0 27 -22.5 40t-72.5 13h-314q-16 0 -42 2q-40 -19 -40 -56
q0 -40 57.5 -58.5zM274 270.5q45 -26.5 124 -26.5q80 0 125 26.5t45 73.5t-44.5 72t-125.5 25t-125 -25t-44 -72t45 -73.5zM404.5 702q-12.5 -13 -13.5 -33h80v-93h-147v72q0 45 23.5 73.5t81.5 42.5l23 -39q-35 -10 -47.5 -23z" />
    <glyph glyph-name="Hcircumflex" unicode="&#x124;" horiz-adv-x="1020" 
d="M916 0h-151v306h-510v-306h-150v710h150v-293h510v293h151v-710zM606 760l-95 68l-96 -68h-135l154 114h154l153 -114h-135z" />
    <glyph glyph-name="hcircumflex" unicode="&#x125;" horiz-adv-x="871" 
d="M95 725h140v-340q37 64 107.5 99t162.5 35q142 0 217 -77t75 -223v-219h-140v202q0 104 -51.5 157.5t-151.5 53.5t-159.5 -53t-59.5 -142v-218h-140v725zM261 760l-95 68l-96 -68h-135l154 114h154l153 -114h-135z" />
    <glyph glyph-name="Hbar" unicode="&#x126;" horiz-adv-x="1020" 
d="M916 591h94v-74h-94v-517h-151v306h-510v-306h-150v517h-95v74h95v119h150v-119h510v119h151v-119zM765 417v100h-510v-100h510z" />
    <glyph glyph-name="hbar" unicode="&#x127;" horiz-adv-x="871" 
d="M95 574h-111v73h111v78h140v-78h257v-73h-257v-189q37 64 107.5 99t162.5 35q142 0 217 -77t75 -223v-219h-140v202q0 104 -51.5 157.5t-151.5 53.5t-159.5 -53t-59.5 -142v-218h-140v574z" />
    <glyph glyph-name="Itilde" unicode="&#x128;" horiz-adv-x="359" 
d="M105 0v710h150v-710h-150zM217 763q-24 8 -55 23q-23 12 -39.5 17.5t-35.5 5.5q-57 0 -69 -52l-82 25q27 109 149 109q34 0 59 -8t54 -23q25 -12 41 -17.5t36 -5.5q56 0 69 53l81 -26q-27 -109 -149 -109q-35 0 -59 8z" />
    <glyph glyph-name="itilde" unicode="&#x129;" horiz-adv-x="330" 
d="M95 500h140v-500h-140v500zM207.5 594q-26.5 9 -59.5 27q-26 14 -43.5 21t-39.5 7q-60 0 -75 -62l-83 26q13 58 52 88.5t101 30.5q36 0 62.5 -9t59.5 -27q26 -14 43.5 -21t39.5 -7q62 0 75 62l83 -26q-12 -58 -51 -88.5t-101 -30.5q-37 0 -63.5 9z" />
    <glyph glyph-name="Imacron" unicode="&#x12a;" horiz-adv-x="359" 
d="M105 0v710h150v-710h-150zM-48 843h456v-82h-456v82z" />
    <glyph glyph-name="imacron" unicode="&#x12b;" horiz-adv-x="330" 
d="M95 500h140v-500h-140v500zM-75 685h481v-83h-481v83z" />
    <glyph glyph-name="Ibreve" unicode="&#x12c;" horiz-adv-x="359" 
d="M105 0v710h150v-710h-150zM108 836.5q26 -14.5 72 -14.5t72 14.5t31 37.5h98q-7 -57 -62 -88t-139 -31q-85 0 -140 31t-62 88h98q6 -23 32 -37.5z" />
    <glyph glyph-name="ibreve" unicode="&#x12d;" horiz-adv-x="330" 
d="M95 500h140v-500h-140v500zM91 663q27 -23 75 -23t74.5 23t31.5 67h101q-6 -77 -60.5 -118.5t-146.5 -41.5t-147 41.5t-61 118.5h102q4 -44 31 -67z" />
    <glyph glyph-name="Iogonek" unicode="&#x12e;" horiz-adv-x="359" 
d="M229 0q-75 -5 -115 -33t-40 -63q0 -21 14 -34t36 -13t37 11.5t23 33.5l89 -13q-8 -44 -50 -68.5t-109 -24.5q-63 0 -101.5 26.5t-38.5 70.5q0 40 33 70.5t98 46.5v700h150v-710h-26z" />
    <glyph glyph-name="iogonek" unicode="&#x12f;" horiz-adv-x="330" 
d="M87 716h156v-133h-156v133zM-3 -36.5q33 30.5 98 46.5v490h140v-500h-16q-75 -5 -115 -33t-40 -63q0 -21 14 -34t36 -13t37 11.5t23 33.5l89 -13q-8 -44 -50 -68.5t-109 -24.5q-63 0 -101.5 26.5t-38.5 70.5q0 40 33 70.5z" />
    <glyph glyph-name="Idotaccent" unicode="&#x130;" horiz-adv-x="359" 
d="M105 0v710h150v-710h-150zM102 873h156v-113h-156v113z" />
    <glyph glyph-name="dotlessi" unicode="&#x131;" horiz-adv-x="330" 
d="M95 500h140v-500h-140v500z" />
    <glyph glyph-name="IJ" unicode="&#x132;" horiz-adv-x="875" 
d="M105 0v710h150v-710h-150zM510 -15q-82 0 -134 11v124q24 -4 51.5 -7t58.5 -3q80 0 121.5 38.5t41.5 133.5v428h150v-448q0 -277 -289 -277z" />
    <glyph glyph-name="ij" unicode="&#x133;" horiz-adv-x="680" 
d="M95 500h140v-500h-140v500zM87 716h156v-133h-156v133zM291 -204v107q28 -4 75 -4q41 0 60 26t19 88v487h140v-507q0 -98 -48 -151t-162 -53q-55 0 -84 7zM434 716h156v-133h-156v133z" />
    <glyph glyph-name="Jcircumflex" unicode="&#x134;" horiz-adv-x="516" 
d="M151 -15q-82 0 -134 11v124q24 -4 51.5 -7t58.5 -3q80 0 121.5 38.5t41.5 133.5v428h150v-448q0 -277 -289 -277zM459 760l-95 68l-96 -68h-135l154 114h154l153 -114h-135z" />
    <glyph glyph-name="jcircumflex" unicode="&#x135;" horiz-adv-x="344" 
d="M-45 -204v107q28 -4 75 -4q41 0 60 26t19 88v487h140v-507q0 -98 -48 -151t-162 -53q-55 0 -84 7zM289 573l-113 109l-114 -109h-123l160 157h153l160 -157h-123z" />
    <glyph glyph-name="uni0136" unicode="&#x136;" horiz-adv-x="948" 
d="M105 710h150v-370l450 370h194l-324 -265l350 -445h-183l-284 357l-203 -170v-187h-150v710zM471.5 -178q12.5 13 13.5 33h-80v93h147v-72q0 -45 -23.5 -73.5t-81.5 -42.5l-23 39q35 10 47.5 23z" />
    <glyph glyph-name="uni0137" unicode="&#x137;" horiz-adv-x="805" 
d="M95 725h140v-457l336 232h193l-247 -174l261 -326h-166l-206 257l-171 -113v-144h-140v725zM388.5 -178q12.5 13 13.5 33h-80v93h147v-72q0 -45 -23.5 -73.5t-81.5 -42.5l-23 39q35 10 47.5 23z" />
    <glyph glyph-name="kgreenlandic" unicode="&#x138;" horiz-adv-x="805" 
d="M95 500h140v-232l336 232h193l-247 -174l261 -326h-166l-206 257l-171 -113v-144h-140v500z" />
    <glyph glyph-name="Lacute" unicode="&#x139;" horiz-adv-x="799" 
d="M105 710h150v-589h513v-121h-663v710zM266 874h156l-174 -114h-134z" />
    <glyph glyph-name="lacute" unicode="&#x13a;" horiz-adv-x="330" 
d="M235 0h-140v725h140v-725zM250 874h156l-174 -114h-134z" />
    <glyph glyph-name="uni013B" unicode="&#x13b;" horiz-adv-x="799" 
d="M105 710h150v-589h513v-121h-663v710zM434.5 -178q12.5 13 13.5 33h-80v93h147v-72q0 -45 -23.5 -73.5t-81.5 -42.5l-23 39q35 10 47.5 23z" />
    <glyph glyph-name="uni013C" unicode="&#x13c;" horiz-adv-x="330" 
d="M235 0h-140v725h140v-725zM157.5 -178q12.5 13 13.5 33h-80v93h147v-72q0 -45 -23.5 -73.5t-81.5 -42.5l-23 39q35 10 47.5 23z" />
    <glyph glyph-name="Lcaron" unicode="&#x13d;" horiz-adv-x="799" 
d="M105 710h150v-589h513v-121h-663v710zM378 560l73 167h119l-104 -167h-88z" />
    <glyph glyph-name="lcaron" unicode="&#x13e;" horiz-adv-x="330" 
d="M235 0h-140v725h140v-725zM281 560l73 167h119l-104 -167h-88z" />
    <glyph glyph-name="Ldot" unicode="&#x13f;" horiz-adv-x="799" 
d="M105 710h150v-589h513v-121h-663v710zM663 325h-173v153h173v-153z" />
    <glyph glyph-name="ldot" unicode="&#x140;" horiz-adv-x="417" 
d="M235 0h-140v725h140v-725zM460 294h-173v153h173v-153z" />
    <glyph glyph-name="Lslash" unicode="&#x141;" horiz-adv-x="799" 
d="M105 267l-118 -51v96l118 51v347h150v-281l300 130v-97l-300 -130v-211h513v-121h-663v267z" />
    <glyph glyph-name="lslash" unicode="&#x142;" horiz-adv-x="330" 
d="M235 488l66 52v-82l-66 -51v-407h-140v297l-67 -52v81l67 53v346h140v-237z" />
    <glyph glyph-name="Nacute" unicode="&#x143;" horiz-adv-x="1016" 
d="M105 710h168l448 -472q37 -41 52 -73h3l-1 93v452h136v-710h-153l-462 482q-16 16 -30 36t-22 35h-3v-88v-465h-136v710zM596 874h156l-174 -114h-134z" />
    <glyph glyph-name="nacute" unicode="&#x144;" horiz-adv-x="871" 
d="M95 500h138v-120q37 68 107.5 103.5t169.5 35.5q140 0 213.5 -70.5t73.5 -206.5v-242h-140v215q0 197 -197 197q-104 0 -164.5 -52.5t-60.5 -143.5v-216h-140v500zM579 730h157l-190 -157h-130z" />
    <glyph glyph-name="uni0145" unicode="&#x145;" horiz-adv-x="1016" 
d="M105 710h168l448 -472q37 -41 52 -73h3l-1 93v452h136v-710h-153l-462 482q-16 16 -30 36t-22 35h-3v-88v-465h-136v710zM504.5 -178q12.5 13 13.5 33h-80v93h147v-72q0 -45 -23.5 -73.5t-81.5 -42.5l-23 39q35 10 47.5 23z" />
    <glyph glyph-name="uni0146" unicode="&#x146;" horiz-adv-x="871" 
d="M95 500h138v-120q37 68 107.5 103.5t169.5 35.5q140 0 213.5 -70.5t73.5 -206.5v-242h-140v215q0 197 -197 197q-104 0 -164.5 -52.5t-60.5 -143.5v-216h-140v500zM428.5 -178q12.5 13 13.5 33h-80v93h147v-72q0 -45 -23.5 -73.5t-81.5 -42.5l-23 39q35 10 47.5 23z" />
    <glyph glyph-name="Ncaron" unicode="&#x147;" horiz-adv-x="1016" 
d="M105 710h168l448 -472q37 -41 52 -73h3l-1 93v452h136v-710h-153l-462 482q-16 16 -30 36t-22 35h-3v-88v-465h-136v710zM589 760h-154l-154 114h135l96 -68l95 68h135z" />
    <glyph glyph-name="ncaron" unicode="&#x148;" horiz-adv-x="871" 
d="M95 500h138v-120q37 68 107.5 103.5t169.5 35.5q140 0 213.5 -70.5t73.5 -206.5v-242h-140v215q0 197 -197 197q-104 0 -164.5 -52.5t-60.5 -143.5v-216h-140v500zM370 730l113 -109l114 109h123l-160 -157h-153l-160 157h123z" />
    <glyph glyph-name="napostrophe" unicode="&#x149;" horiz-adv-x="1180" 
d="M156 498q19 22 19 55v4h-94v153h173v-137q0 -69 -32.5 -112t-109.5 -57l-22 62q47 10 66 32zM404 500h138v-120q37 68 107.5 103.5t169.5 35.5q140 0 213.5 -70.5t73.5 -206.5v-242h-140v215q0 197 -197 197q-104 0 -164.5 -52.5t-60.5 -143.5v-216h-140v500z" />
    <glyph glyph-name="Eng" unicode="&#x14a;" horiz-adv-x="1016" 
d="M105 710h168l448 -472q37 -41 52 -73h3l-1 93v452h136v-716q0 -106 -60 -157.5t-167 -51.5q-47 0 -100 8v115q43 -5 75 -5q51 0 80 23t35 74h-16l-462 482q-16 16 -30 36t-22 35h-3v-88v-465h-136v710z" />
    <glyph glyph-name="eng" unicode="&#x14b;" horiz-adv-x="871" 
d="M95 500h138v-120q37 68 107.5 103.5t169.5 35.5q140 0 213.5 -70.5t73.5 -206.5v-256q0 -90 -52.5 -139t-178.5 -49q-56 0 -81 8v103q23 -5 68 -5q54 0 79 22t25 77v212q0 197 -197 197q-104 0 -164.5 -52.5t-60.5 -143.5v-216h-140v500z" />
    <glyph glyph-name="Omacron" unicode="&#x14c;" horiz-adv-x="994" 
d="M250 23.5q-107 47.5 -165.5 133.5t-58.5 198q0 113 58.5 199t165.5 133t247 47t247 -47t166 -133t59 -199t-58.5 -199t-165.5 -133t-248 -47q-140 0 -247 47.5zM223 218q39 -60 110.5 -93t163.5 -33t163.5 33t111 93t39.5 137q0 78 -39.5 137.5t-110.5 92.5t-164 33
t-164 -33t-110 -92.5t-39 -137.5q0 -77 39 -137zM269 843h456v-82h-456v82z" />
    <glyph glyph-name="omacron" unicode="&#x14d;" horiz-adv-x="808" 
d="M209.5 14.5q-84.5 33.5 -131 94.5t-46.5 141t46.5 141t131 94.5t194.5 33.5t194.5 -33.5t131 -94.5t46.5 -141t-46.5 -141t-131 -94.5t-194.5 -33.5t-194.5 33.5zM240 126q62 -46 164 -46t163.5 46t61.5 124t-61.5 124t-163.5 46t-164 -46t-62 -124t62 -124zM164 685h481
v-83h-481v83z" />
    <glyph glyph-name="Obreve" unicode="&#x14e;" horiz-adv-x="994" 
d="M250 23.5q-107 47.5 -165.5 133.5t-58.5 198q0 113 58.5 199t165.5 133t247 47t247 -47t166 -133t59 -199t-58.5 -199t-165.5 -133t-248 -47q-140 0 -247 47.5zM223 218q39 -60 110.5 -93t163.5 -33t163.5 33t111 93t39.5 137q0 78 -39.5 137.5t-110.5 92.5t-164 33
t-164 -33t-110 -92.5t-39 -137.5q0 -77 39 -137zM426 836.5q26 -14.5 72 -14.5t72 14.5t31 37.5h98q-7 -57 -62 -88t-139 -31q-85 0 -140 31t-62 88h98q6 -23 32 -37.5z" />
    <glyph glyph-name="obreve" unicode="&#x14f;" horiz-adv-x="808" 
d="M209.5 14.5q-84.5 33.5 -131 94.5t-46.5 141t46.5 141t131 94.5t194.5 33.5t194.5 -33.5t131 -94.5t46.5 -141t-46.5 -141t-131 -94.5t-194.5 -33.5t-194.5 33.5zM240 126q62 -46 164 -46t163.5 46t61.5 124t-61.5 124t-163.5 46t-164 -46t-62 -124t62 -124zM329 663
q27 -23 75 -23t74.5 23t31.5 67h101q-6 -77 -60.5 -118.5t-146.5 -41.5t-147 41.5t-61 118.5h102q4 -44 31 -67z" />
    <glyph glyph-name="Ohungarumlaut" unicode="&#x150;" horiz-adv-x="994" 
d="M250 23.5q-107 47.5 -165.5 133.5t-58.5 198q0 113 58.5 199t165.5 133t247 47t247 -47t166 -133t59 -199t-58.5 -199t-165.5 -133t-248 -47q-140 0 -247 47.5zM223 218q39 -60 110.5 -93t163.5 -33t163.5 33t111 93t39.5 137q0 78 -39.5 137.5t-110.5 92.5t-164 33
t-164 -33t-110 -92.5t-39 -137.5q0 -77 39 -137zM684 874h127l-150 -114h-118zM474 874h126l-149 -114h-118z" />
    <glyph glyph-name="ohungarumlaut" unicode="&#x151;" horiz-adv-x="808" 
d="M209.5 14.5q-84.5 33.5 -131 94.5t-46.5 141t46.5 141t131 94.5t194.5 33.5t194.5 -33.5t131 -94.5t46.5 -141t-46.5 -141t-131 -94.5t-194.5 -33.5t-194.5 33.5zM240 126q62 -46 164 -46t163.5 46t61.5 124t-61.5 124t-163.5 46t-164 -46t-62 -124t62 -124zM397 730h123
l-163 -154h-113zM604 730h122l-162 -154h-113z" />
    <glyph glyph-name="OE" unicode="&#x152;" horiz-adv-x="1494" 
d="M221.5 44q-92.5 44 -144 127t-51.5 196q0 111 55 188t152 116t221 39h960v-112h-543v-183h526v-106h-526v-197h550v-112h-986q-121 0 -213.5 44zM256 175q73 -66 201 -66h264v492h-256q-130 0 -206 -60.5t-76 -175.5q0 -124 73 -190z" />
    <glyph glyph-name="oe" unicode="&#x153;" horiz-adv-x="1397" 
d="M208 16q-85 35 -130.5 96.5t-45.5 137.5q0 77 45.5 138t130.5 96t199 35q95 0 170 -26.5t123 -73.5q47 49 123 74.5t173 25.5q113 0 194.5 -32.5t124.5 -93.5t43 -145v-32h-585q8 -65 68.5 -101t164.5 -36q79 0 136.5 23t90.5 67l112 -51q-105 -137 -343 -137
q-101 0 -178 26t-125 74q-48 -47 -122.5 -73.5t-169.5 -26.5q-114 0 -199 35zM205 164q27 -38 78.5 -60t123.5 -22t123.5 22t78 60t26.5 86q0 47 -26.5 85.5t-78 60.5t-123.5 22t-123.5 -22t-78.5 -60.5t-27 -85.5q0 -48 27 -86zM1216 300q-1 62 -63.5 98t-157.5 36
q-94 0 -154 -36t-68 -98h443z" />
    <glyph glyph-name="Racute" unicode="&#x154;" horiz-adv-x="917" 
d="M105 710h472q100 0 161 -31.5t86.5 -80.5t25.5 -105q0 -68 -41.5 -125.5t-130.5 -79.5l199 -288h-173l-186 270h-263v-270h-150v710zM546 375q77 0 111.5 33.5t34.5 82.5q0 47 -34 79t-112 32h-291v-227h291zM508 874h156l-174 -114h-134z" />
    <glyph glyph-name="racute" unicode="&#x155;" horiz-adv-x="529" 
d="M302 471q60 44 143 44q40 0 65 -5v-126q-34 7 -73 7q-52 0 -87.5 -13.5t-61.5 -40.5q-53 -53 -53 -162v-175h-140v500h125v-147q22 74 82 118zM382 730h157l-190 -157h-130z" />
    <glyph glyph-name="uni0156" unicode="&#x156;" horiz-adv-x="917" 
d="M105 710h472q100 0 161 -31.5t86.5 -80.5t25.5 -105q0 -68 -41.5 -125.5t-130.5 -79.5l199 -288h-173l-186 270h-263v-270h-150v710zM546 375q77 0 111.5 33.5t34.5 82.5q0 47 -34 79t-112 32h-291v-227h291zM438.5 -178q12.5 13 13.5 33h-80v93h147v-72
q0 -45 -23.5 -73.5t-81.5 -42.5l-23 39q35 10 47.5 23z" />
    <glyph glyph-name="uni0157" unicode="&#x157;" horiz-adv-x="529" 
d="M302 471q60 44 143 44q40 0 65 -5v-126q-34 7 -73 7q-52 0 -87.5 -13.5t-61.5 -40.5q-53 -53 -53 -162v-175h-140v500h125v-147q22 74 82 118zM157.5 -178q12.5 13 13.5 33h-80v93h147v-72q0 -45 -23.5 -73.5t-81.5 -42.5l-23 39q35 10 47.5 23z" />
    <glyph glyph-name="Rcaron" unicode="&#x158;" horiz-adv-x="917" 
d="M105 710h472q100 0 161 -31.5t86.5 -80.5t25.5 -105q0 -68 -41.5 -125.5t-130.5 -79.5l199 -288h-173l-186 270h-263v-270h-150v710zM546 375q77 0 111.5 33.5t34.5 82.5q0 47 -34 79t-112 32h-291v-227h291zM501 760h-154l-154 114h135l96 -68l95 68h135z" />
    <glyph glyph-name="rcaron" unicode="&#x159;" horiz-adv-x="529" 
d="M302 471q60 44 143 44q40 0 65 -5v-126q-34 7 -73 7q-52 0 -87.5 -13.5t-61.5 -40.5q-53 -53 -53 -162v-175h-140v500h125v-147q22 74 82 118zM173 730l113 -109l114 109h123l-160 -157h-153l-160 157h123z" />
    <glyph glyph-name="Sacute" unicode="&#x15a;" horiz-adv-x="888" 
d="M178 31q-112 55 -158 160l124 59q37 -78 119 -120t205 -42q114 0 168 25.5t54 80.5q0 45 -34.5 67.5t-116.5 29.5l-224 23q-127 13 -187.5 62t-60.5 141q0 103 95.5 160t270.5 57q300 0 405 -183l-115 -66q-71 138 -296 138q-101 0 -154.5 -25t-53.5 -73q0 -30 14 -48
t45.5 -28.5t88.5 -16.5l209 -20q141 -15 204 -62.5t63 -141.5q0 -113 -97.5 -172.5t-282.5 -59.5q-173 0 -285 55zM529 874h156l-174 -114h-134z" />
    <glyph glyph-name="sacute" unicode="&#x15b;" horiz-adv-x="755" 
d="M182.5 14q-89.5 33 -143.5 97l85 63q42 -50 114 -75.5t182 -25.5q80 0 118.5 17t38.5 52q0 25 -18.5 36.5t-68.5 15.5l-230 19q-99 9 -147 44t-48 102q0 77 78 118.5t223 41.5q119 0 203.5 -27.5t132.5 -79.5l-80 -63q-43 42 -106 60.5t-163 18.5q-80 0 -118 -15.5
t-38 -47.5q0 -24 21.5 -36t65.5 -16l234 -19q102 -9 146.5 -42.5t44.5 -98.5q0 -82 -74.5 -127t-229.5 -45q-133 0 -222.5 33zM469 730h157l-190 -157h-130z" />
    <glyph glyph-name="Scircumflex" unicode="&#x15c;" horiz-adv-x="888" 
d="M178 31q-112 55 -158 160l124 59q37 -78 119 -120t205 -42q114 0 168 25.5t54 80.5q0 45 -34.5 67.5t-116.5 29.5l-224 23q-127 13 -187.5 62t-60.5 141q0 103 95.5 160t270.5 57q300 0 405 -183l-115 -66q-71 138 -296 138q-101 0 -154.5 -25t-53.5 -73q0 -30 14 -48
t45.5 -28.5t88.5 -16.5l209 -20q141 -15 204 -62.5t63 -141.5q0 -113 -97.5 -172.5t-282.5 -59.5q-173 0 -285 55zM540 760l-95 68l-96 -68h-135l154 114h154l153 -114h-135z" />
    <glyph glyph-name="scircumflex" unicode="&#x15d;" horiz-adv-x="755" 
d="M182.5 14q-89.5 33 -143.5 97l85 63q42 -50 114 -75.5t182 -25.5q80 0 118.5 17t38.5 52q0 25 -18.5 36.5t-68.5 15.5l-230 19q-99 9 -147 44t-48 102q0 77 78 118.5t223 41.5q119 0 203.5 -27.5t132.5 -79.5l-80 -63q-43 42 -106 60.5t-163 18.5q-80 0 -118 -15.5
t-38 -47.5q0 -24 21.5 -36t65.5 -16l234 -19q102 -9 146.5 -42.5t44.5 -98.5q0 -82 -74.5 -127t-229.5 -45q-133 0 -222.5 33zM487 573l-113 109l-114 -109h-123l160 157h153l160 -157h-123z" />
    <glyph glyph-name="Scedilla" unicode="&#x15e;" horiz-adv-x="888" 
d="M144 250q37 -78 119 -120t205 -42q114 0 168 25.5t54 80.5q0 45 -34.5 67.5t-116.5 29.5l-224 23q-127 13 -187.5 62t-60.5 141q0 103 95.5 160t270.5 57q300 0 405 -183l-115 -66q-71 138 -296 138q-101 0 -154.5 -25t-53.5 -73q0 -30 14 -48t45.5 -28.5t88.5 -16.5
l209 -20q141 -15 204 -62.5t63 -141.5q0 -109 -92 -168.5t-267 -63.5l-24 -30q27 15 70 15q55 0 86.5 -22t31.5 -62q0 -42 -42 -67t-112 -25q-51 0 -88 15.5t-55 43.5l77 21q20 -26 67 -26q27 0 42 10t15 27q0 18 -14 28t-40 10q-33 0 -57 -16l-69 15l41 64
q-152 7 -251.5 61.5t-141.5 152.5z" />
    <glyph glyph-name="scedilla" unicode="&#x15f;" horiz-adv-x="755" 
d="M124 174q42 -50 114 -75.5t182 -25.5q80 0 118.5 17t38.5 52q0 25 -18.5 36.5t-68.5 15.5l-230 19q-99 9 -147 44t-48 102q0 77 78 118.5t223 41.5q119 0 203.5 -27.5t132.5 -79.5l-80 -63q-43 42 -106 60.5t-163 18.5q-80 0 -118 -15.5t-38 -47.5q0 -24 21.5 -36
t65.5 -16l234 -19q102 -9 146.5 -42.5t44.5 -98.5q0 -81 -71.5 -125.5t-220.5 -46.5l-27 -35q27 15 70 15q55 0 86.5 -22t31.5 -62q0 -42 -42 -67t-112 -25q-51 0 -88 15.5t-55 43.5l77 21q20 -26 67 -26q27 0 42 10t15 27q0 18 -14 28t-40 10q-33 0 -57 -16l-69 15l45 70
q-109 7 -185 39t-123 89z" />
    <glyph glyph-name="Scaron" unicode="&#x160;" horiz-adv-x="888" 
d="M178 31q-112 55 -158 160l124 59q37 -78 119 -120t205 -42q114 0 168 25.5t54 80.5q0 45 -34.5 67.5t-116.5 29.5l-224 23q-127 13 -187.5 62t-60.5 141q0 103 95.5 160t270.5 57q300 0 405 -183l-115 -66q-71 138 -296 138q-101 0 -154.5 -25t-53.5 -73q0 -30 14 -48
t45.5 -28.5t88.5 -16.5l209 -20q141 -15 204 -62.5t63 -141.5q0 -113 -97.5 -172.5t-282.5 -59.5q-173 0 -285 55zM522 760h-154l-154 114h135l96 -68l95 68h135z" />
    <glyph glyph-name="scaron" unicode="&#x161;" horiz-adv-x="755" 
d="M182.5 14q-89.5 33 -143.5 97l85 63q42 -50 114 -75.5t182 -25.5q80 0 118.5 17t38.5 52q0 25 -18.5 36.5t-68.5 15.5l-230 19q-99 9 -147 44t-48 102q0 77 78 118.5t223 41.5q119 0 203.5 -27.5t132.5 -79.5l-80 -63q-43 42 -106 60.5t-163 18.5q-80 0 -118 -15.5
t-38 -47.5q0 -24 21.5 -36t65.5 -16l234 -19q102 -9 146.5 -42.5t44.5 -98.5q0 -82 -74.5 -127t-229.5 -45q-133 0 -222.5 33zM260 730l113 -109l114 109h123l-160 -157h-153l-160 157h123z" />
    <glyph glyph-name="uni0162" unicode="&#x162;" horiz-adv-x="805" 
d="M10 710h785v-120h-317v-590h-40l-42 -54q27 15 70 15q55 0 86.5 -22t31.5 -62q0 -42 -42 -67t-112 -25q-51 0 -88 15.5t-55 43.5l77 21q20 -26 67 -26q27 0 42 10t15 27q0 18 -14 28t-40 10q-33 0 -57 -16l-69 15l56 87h-36v590h-318v120z" />
    <glyph glyph-name="uni0163" unicode="&#x163;" horiz-adv-x="585" 
d="M11 500h153v124l140 52v-176h240v-96h-240v-192q0 -58 32 -85t97 -27q57 0 111 13v-106q-22 -9 -59 -15t-78 -6l-31 -40q27 15 70 15q55 0 86.5 -22t31.5 -62q0 -42 -42 -67t-112 -25q-51 0 -88 15.5t-55 43.5l77 21q20 -26 67 -26q27 0 42 10t15 27q0 18 -14 28t-40 10
q-33 0 -57 -16l-69 15l50 78q-92 13 -133 64t-41 134v215h-153v96z" />
    <glyph glyph-name="Tcaron" unicode="&#x164;" horiz-adv-x="805" 
d="M10 710h785v-120h-317v-590h-150v590h-318v120zM480 760h-154l-154 114h135l96 -68l95 68h135z" />
    <glyph glyph-name="tcaron" unicode="&#x165;" horiz-adv-x="585" 
d="M11 500h153v124l140 52v-176h240v-96h-240v-192q0 -58 32 -85t97 -27q57 0 111 13v-106q-22 -9 -59.5 -15t-79.5 -6q-128 0 -184.5 53.5t-56.5 149.5v215h-153v96zM372 560l73 167h119l-104 -167h-88z" />
    <glyph glyph-name="Tbar" unicode="&#x166;" horiz-adv-x="805" 
d="M10 710h785v-120h-317v-155h236v-74h-236v-361h-150v361h-235v74h235v155h-318v120z" />
    <glyph glyph-name="tbar" unicode="&#x167;" horiz-adv-x="585" 
d="M164 312v92h-153v96h153v124l140 52v-176h240v-96h-240v-92h232v-77h-232v-23q0 -58 32 -85t97 -27q57 0 111 13v-106q-22 -9 -59.5 -15t-79.5 -6q-128 0 -184.5 53.5t-56.5 149.5v46h-143v77h143z" />
    <glyph glyph-name="Utilde" unicode="&#x168;" horiz-adv-x="968" 
d="M226 710v-376q0 -67 30.5 -121t89 -85t138.5 -31q79 0 137.5 31t89 85t30.5 121v376h150v-387q0 -102 -47.5 -180.5t-139.5 -122.5t-220 -44t-220 44t-140 123t-48 181v386h150zM521 763q-24 8 -55 23q-23 12 -39.5 17.5t-35.5 5.5q-57 0 -69 -52l-82 25q27 109 149 109
q34 0 59 -8t54 -23q25 -12 41 -17.5t36 -5.5q56 0 69 53l81 -26q-27 -109 -149 -109q-35 0 -59 8z" />
    <glyph glyph-name="utilde" unicode="&#x169;" horiz-adv-x="859" 
d="M145 45.5q-71 64.5 -71 192.5v262h140v-237q0 -98 52 -138t131 -40q77 0 128 29t75 74.5t24 94.5v217h141v-500h-139v127q-33 -71 -105.5 -108.5t-169.5 -37.5q-135 0 -206 64.5zM458.5 594q-26.5 9 -59.5 27q-26 14 -43.5 21t-39.5 7q-60 0 -75 -62l-83 26
q13 58 52 88.5t101 30.5q36 0 62.5 -9t59.5 -27q26 -14 43.5 -21t39.5 -7q62 0 75 62l83 -26q-12 -58 -51 -88.5t-101 -30.5q-37 0 -63.5 9z" />
    <glyph glyph-name="Umacron" unicode="&#x16a;" horiz-adv-x="968" 
d="M226 710v-376q0 -67 30.5 -121t89 -85t138.5 -31q79 0 137.5 31t89 85t30.5 121v376h150v-387q0 -102 -47.5 -180.5t-139.5 -122.5t-220 -44t-220 44t-140 123t-48 181v386h150zM256 843h456v-82h-456v82z" />
    <glyph glyph-name="umacron" unicode="&#x16b;" horiz-adv-x="859" 
d="M145 45.5q-71 64.5 -71 192.5v262h140v-237q0 -98 52 -138t131 -40q77 0 128 29t75 74.5t24 94.5v217h141v-500h-139v127q-33 -71 -105.5 -108.5t-169.5 -37.5q-135 0 -206 64.5zM176 685h481v-83h-481v83z" />
    <glyph glyph-name="Ubreve" unicode="&#x16c;" horiz-adv-x="968" 
d="M226 710v-376q0 -67 30.5 -121t89 -85t138.5 -31q79 0 137.5 31t89 85t30.5 121v376h150v-387q0 -102 -47.5 -180.5t-139.5 -122.5t-220 -44t-220 44t-140 123t-48 181v386h150zM413 836.5q26 -14.5 72 -14.5t72 14.5t31 37.5h98q-7 -57 -62 -88t-139 -31q-85 0 -140 31
t-62 88h98q6 -23 32 -37.5z" />
    <glyph glyph-name="ubreve" unicode="&#x16d;" horiz-adv-x="859" 
d="M145 45.5q-71 64.5 -71 192.5v262h140v-237q0 -98 52 -138t131 -40q77 0 128 29t75 74.5t24 94.5v217h141v-500h-139v127q-33 -71 -105.5 -108.5t-169.5 -37.5q-135 0 -206 64.5zM342 663q27 -23 75 -23t74.5 23t31.5 67h101q-6 -77 -60.5 -118.5t-146.5 -41.5t-147 41.5
t-61 118.5h102q4 -44 31 -67z" />
    <glyph glyph-name="Uring" unicode="&#x16e;" horiz-adv-x="968" 
d="M226 710v-376q0 -67 30.5 -121t89 -85t138.5 -31q79 0 137.5 31t89 85t30.5 121v376h150v-387q0 -102 -47.5 -180.5t-139.5 -122.5t-220 -44t-220 44t-140 123t-48 181v386h150zM391.5 770.5q-35.5 30.5 -35.5 79.5t35.5 80t92.5 31t92.5 -31t35.5 -80t-35.5 -79.5
t-92.5 -30.5t-92.5 30.5zM443.5 812q15.5 -15 40.5 -15t40 15t15 38q0 24 -15 39t-40 15t-40.5 -15t-15.5 -39q0 -23 15.5 -38z" />
    <glyph glyph-name="uring" unicode="&#x16f;" horiz-adv-x="859" 
d="M145 45.5q-71 64.5 -71 192.5v262h140v-237q0 -98 52 -138t131 -40q77 0 128 29t75 74.5t24 94.5v217h141v-500h-139v127q-33 -71 -105.5 -108.5t-169.5 -37.5q-135 0 -206 64.5zM291.5 587.5q-45.5 30.5 -45.5 81.5t45.5 81t125.5 30q79 0 124.5 -30t45.5 -81t-45 -81.5
t-125 -30.5t-125.5 30.5zM347 627q25 -15 70 -15t69.5 15t24.5 42q0 26 -25 41t-69 15q-45 0 -70 -15t-25 -41q0 -27 25 -42z" />
    <glyph glyph-name="Uhungarumlaut" unicode="&#x170;" horiz-adv-x="968" 
d="M226 710v-376q0 -67 30.5 -121t89 -85t138.5 -31q79 0 137.5 31t89 85t30.5 121v376h150v-387q0 -102 -47.5 -180.5t-139.5 -122.5t-220 -44t-220 44t-140 123t-48 181v386h150zM671 874h127l-150 -114h-118zM461 874h126l-149 -114h-118z" />
    <glyph glyph-name="uhungarumlaut" unicode="&#x171;" horiz-adv-x="859" 
d="M145 45.5q-71 64.5 -71 192.5v262h140v-237q0 -98 52 -138t131 -40q77 0 128 29t75 74.5t24 94.5v217h141v-500h-139v127q-33 -71 -105.5 -108.5t-169.5 -37.5q-135 0 -206 64.5zM410 730h123l-163 -154h-113zM617 730h122l-162 -154h-113z" />
    <glyph glyph-name="Uogonek" unicode="&#x172;" horiz-adv-x="968" 
d="M777.5 -176.5q-41.5 -24.5 -108.5 -24.5q-63 0 -101.5 26.5t-38.5 68.5q0 26 12.5 47.5t40.5 41.5q-54 -7 -98 -7q-128 0 -220 44t-140 123t-48 181v386h150v-376q0 -67 30.5 -121t89 -85t138.5 -31q79 0 137.5 31t89 85t30.5 121v376h150v-387q0 -94 -40.5 -169
t-118.5 -120q-59 -41 -81 -69t-22 -57q0 -21 14 -34.5t36 -13.5q45 0 60 46l88 -14q-8 -44 -49.5 -68.5z" />
    <glyph glyph-name="uogonek" unicode="&#x173;" horiz-adv-x="859" 
d="M145 45.5q-71 64.5 -71 192.5v262h140v-237q0 -98 52 -138t131 -40q77 0 128 29t75 74.5t24 94.5v217h141v-500h-14q-75 -5 -115 -33t-40 -63q0 -21 14 -34t36 -13t37 11.5t23 33.5l89 -13q-8 -44 -50 -68.5t-109 -24.5q-63 0 -101.5 26.5t-38.5 70.5q0 40 33 70.5
t97 46.5v117q-33 -71 -105.5 -108.5t-169.5 -37.5q-135 0 -206 64.5z" />
    <glyph glyph-name="Wcircumflex" unicode="&#x174;" horiz-adv-x="1315" 
d="M22 710h154l168 -517q2 -8 8 -27t7 -32h3q4 23 19 59l200 517h154l200 -517q15 -40 18 -59h3q2 14 7.5 33t7.5 26l169 517h154l-249 -710h-176l-194 506q-14 36 -15 57h-5q0 -18 -15 -57l-194 -506h-175zM754 760l-95 68l-96 -68h-135l154 114h154l153 -114h-135z" />
    <glyph glyph-name="wcircumflex" unicode="&#x175;" horiz-adv-x="1125" 
d="M14 500h144l141 -347q9 -23 13 -47h2q2 13 7 27.5t7 19.5l161 347h147l160 -347q12 -28 15 -47h2q3 19 12 47l142 347h144l-216 -500h-160l-156 337q-13 30 -15 51h-3q-2 -21 -15 -51l-156 -337h-160zM676 573l-113 109l-114 -109h-123l160 157h153l160 -157h-123z" />
    <glyph glyph-name="Ycircumflex" unicode="&#x176;" horiz-adv-x="900" 
d="M372 249l-364 461h176l244 -317l10 -15t11 -21h2q3 13 21 36l249 317h170l-368 -461v-249h-151v249zM547 760l-95 68l-96 -68h-135l154 114h154l153 -114h-135z" />
    <glyph glyph-name="ycircumflex" unicode="&#x177;" horiz-adv-x="739" 
d="M48 -207v111q40 -7 73 -7q60 0 108.5 24.5t72.5 65.5l5 11l-309 502h160l199 -348q12 -22 19 -44h3q5 15 19 43l190 349h154l-302 -528q-54 -99 -125 -142.5t-178 -43.5q-43 0 -89 7zM484 573l-113 109l-114 -109h-123l160 157h153l160 -157h-123z" />
    <glyph glyph-name="Ydieresis" unicode="&#x178;" horiz-adv-x="900" 
d="M372 249l-364 461h176l244 -317l10 -15t11 -21h2q3 13 21 36l249 317h170l-368 -461v-249h-151v249zM537 873h149v-113h-149v113zM217 873h149v-113h-149v113z" />
    <glyph glyph-name="Zacute" unicode="&#x179;" horiz-adv-x="867" 
d="M607 599h-532v111h734v-104l-552 -495h574v-111h-776v105zM527 874h156l-174 -114h-134z" />
    <glyph glyph-name="zacute" unicode="&#x17a;" horiz-adv-x="739" 
d="M495 404h-425v96h613v-95l-444 -309h462v-96h-650v97zM469 730h157l-190 -157h-130z" />
    <glyph glyph-name="Zdotaccent" unicode="&#x17b;" horiz-adv-x="867" 
d="M607 599h-532v111h734v-104l-552 -495h574v-111h-776v105zM364 873h156v-113h-156v113z" />
    <glyph glyph-name="zdotaccent" unicode="&#x17c;" horiz-adv-x="739" 
d="M495 404h-425v96h613v-95l-444 -309h462v-96h-650v97zM296 716h156v-133h-156v133z" />
    <glyph glyph-name="Zcaron" unicode="&#x17d;" horiz-adv-x="867" 
d="M607 599h-532v111h734v-104l-552 -495h574v-111h-776v105zM520 760h-154l-154 114h135l96 -68l95 68h135z" />
    <glyph glyph-name="zcaron" unicode="&#x17e;" horiz-adv-x="739" 
d="M495 404h-425v96h613v-95l-444 -309h462v-96h-650v97zM261 730l113 -109l114 109h123l-160 -157h-153l-160 157h123z" />
    <glyph glyph-name="uni018F" unicode="&#x18f;" horiz-adv-x="994" 
d="M250 23.5q-107 47.5 -165.5 133.5t-58.5 198q0 29 1 39h783q-13 104 -93.5 164t-220.5 60q-211 0 -295 -140l-163 30q49 107 168 166.5t288 59.5q148 0 255 -47t163.5 -132.5t56.5 -199.5q0 -112 -58.5 -198t-166 -133.5t-247.5 -47.5t-247 47.5zM292.5 146.5
q81.5 -54.5 201.5 -54.5q122 0 205 54t106 146h-612q18 -91 99.5 -145.5z" />
    <glyph glyph-name="florin" unicode="&#x192;" horiz-adv-x="644" 
d="M292 623.5q38 53.5 96.5 75t143.5 21.5q28 0 54.5 -4.5t42.5 -9.5v-108q-15 5 -40.5 9t-51.5 4q-68 0 -101.5 -29.5t-45.5 -101.5l-8 -52h218v-97h-234l-76 -481h-153l78 481h-178v97h194l8 48q15 94 53 147.5z" />
    <glyph glyph-name="uni019D" unicode="&#x19d;" horiz-adv-x="1016" 
d="M-86 -207v115q42 -5 75 -5q58 0 87 29t29 95v683h168l448 -472q37 -41 52 -73h3l-1 93v452h136v-710h-153l-462 482q-16 16 -30 36t-22 35h-3v-88v-471q0 -106 -60 -157.5t-167 -51.5q-47 0 -100 8z" />
    <glyph glyph-name="Gcaron" unicode="&#x1e6;" horiz-adv-x="989" 
d="M228.5 23.5q-97.5 47.5 -150 132.5t-52.5 195q0 112 57.5 199t163 135.5t246.5 48.5q110 0 199 -28.5t147.5 -80.5t80.5 -123l-160 -28q-22 66 -94.5 106t-178.5 40q-93 0 -162.5 -33t-106.5 -93.5t-37 -141.5q0 -79 37.5 -138.5t107 -92.5t162.5 -33q88 0 154.5 25
t102.5 68t38 95v4h-301v104h439v-384h-115l-9 126q-44 -68 -131 -109t-210 -41q-130 0 -227.5 47.5zM582 760h-154l-154 114h135l96 -68l95 68h135z" />
    <glyph glyph-name="gcaron" unicode="&#x1e7;" horiz-adv-x="811" 
d="M128 -182q-83 32 -83 99q0 35 21.5 58t67.5 36q-71 28 -71 89q0 40 29.5 67.5t84.5 41.5q-92 48 -92 135q0 82 83 128.5t230 46.5q105 0 182 -25q13 45 52.5 69t100.5 24q21 0 45 -4v-98q-20 5 -53 5q-56 0 -84 -25q71 -45 71 -121q0 -83 -83.5 -130.5t-230.5 -47.5
q-96 0 -168 22q-44 -12 -44 -42q0 -40 75 -40l310 -1q102 0 152 -35.5t50 -106.5q0 -92 -92.5 -134.5t-293.5 -42.5q-176 0 -259 32zM215.5 -118.5q57.5 -18.5 179.5 -18.5q139 0 196.5 18t57.5 60q0 27 -22.5 40t-72.5 13h-314q-16 0 -42 2q-40 -19 -40 -56
q0 -40 57.5 -58.5zM274 270.5q45 -26.5 124 -26.5q80 0 125 26.5t45 73.5t-44.5 72t-125.5 25t-125 -25t-44 -72t45 -73.5zM284 730l113 -109l114 109h123l-160 -157h-153l-160 157h123z" />
    <glyph glyph-name="AEacute" unicode="&#x1fc;" horiz-adv-x="1506" 
d="M646 710h780v-112h-578v-183h561v-106h-561v-197h585v-112h-735v149h-398l-130 -149h-174zM698 252v352l-308 -352h308zM1114 874h156l-174 -114h-134z" />
    <glyph glyph-name="aeacute" unicode="&#x1fd;" horiz-adv-x="1309" 
d="M119.5 21q-67.5 40 -67.5 113q0 71 63.5 109.5t189.5 42.5l278 9v18q0 58 -42.5 86t-129.5 28t-138 -26.5t-57 -75.5h-148q14 90 106 142t239 52q182 0 253 -82q45 40 111.5 61t149.5 21q106 0 183.5 -32.5t119 -93t41.5 -144.5v-32h-547q8 -65 63.5 -101.5t150.5 -36.5
q144 0 208 91l111 -51q-99 -138 -323 -138q-108 0 -186.5 32.5t-119.5 92.5q-91 -125 -316 -125q-125 0 -192.5 40zM235 88.5q37 -18.5 110 -18.5q69 0 123.5 17.5t85 49t30.5 72.5v16l-250 -9q-69 -2 -102.5 -20.5t-33.5 -53.5t37 -53.5zM1129 301q-3 61 -60 97t-142 36
q-87 0 -141.5 -35.5t-61.5 -97.5h405zM753 730h157l-190 -157h-130z" />
    <glyph glyph-name="Oslashacute" unicode="&#x1fe;" horiz-adv-x="994" 
d="M196 52l-88 -75l-56 53l82 69q-52 49 -80 114.5t-28 141.5q0 113 58.5 199t165.5 133t247 47q88 0 164.5 -19.5t136.5 -55.5l86 73l58 -51l-82 -69q53 -49 81 -114.5t28 -142.5q0 -113 -58.5 -199t-165.5 -133t-248 -47q-178 0 -301 76zM243 191l448 378q-82 49 -194 49
q-93 0 -164 -33t-110 -92.5t-39 -137.5q0 -96 59 -164zM497 92q92 0 163.5 33t111 93t39.5 137q0 96 -60 165l-448 -378q81 -50 194 -50zM582 874h156l-174 -114h-134z" />
    <glyph glyph-name="oslashacute" unicode="&#x1ff;" horiz-adv-x="808" 
d="M168 34l-85 -63l-46 45l76 56q-39 35 -60 80t-21 98q0 80 46.5 141t131 94.5t194.5 33.5q140 0 237 -53l84 62l45 -47l-73 -54q79 -73 79 -177q0 -80 -46.5 -141t-131 -94.5t-194.5 -33.5q-139 0 -236 53zM215 149l326 242q-56 29 -137 29q-102 0 -164 -46t-62 -124
q0 -59 37 -101zM404 80q102 0 163.5 46t61.5 124q0 58 -36 100l-325 -241q56 -29 136 -29zM499 730h157l-190 -157h-130z" />
    <glyph glyph-name="uni0218" unicode="&#x218;" horiz-adv-x="888" 
d="M178 31q-112 55 -158 160l124 59q37 -78 119 -120t205 -42q114 0 168 25.5t54 80.5q0 45 -34.5 67.5t-116.5 29.5l-224 23q-127 13 -187.5 62t-60.5 141q0 103 95.5 160t270.5 57q300 0 405 -183l-115 -66q-71 138 -296 138q-101 0 -154.5 -25t-53.5 -73q0 -30 14 -48
t45.5 -28.5t88.5 -16.5l209 -20q141 -15 204 -62.5t63 -141.5q0 -113 -97.5 -172.5t-282.5 -59.5q-173 0 -285 55zM459.5 -178q12.5 13 13.5 33h-80v93h147v-72q0 -45 -23.5 -73.5t-81.5 -42.5l-23 39q35 10 47.5 23z" />
    <glyph glyph-name="uni0219" unicode="&#x219;" horiz-adv-x="755" 
d="M182.5 14q-89.5 33 -143.5 97l85 63q42 -50 114 -75.5t182 -25.5q80 0 118.5 17t38.5 52q0 25 -18.5 36.5t-68.5 15.5l-230 19q-99 9 -147 44t-48 102q0 77 78 118.5t223 41.5q119 0 203.5 -27.5t132.5 -79.5l-80 -63q-43 42 -106 60.5t-163 18.5q-80 0 -118 -15.5
t-38 -47.5q0 -24 21.5 -36t65.5 -16l234 -19q102 -9 146.5 -42.5t44.5 -98.5q0 -82 -74.5 -127t-229.5 -45q-133 0 -222.5 33zM389.5 -178q12.5 13 13.5 33h-80v93h147v-72q0 -45 -23.5 -73.5t-81.5 -42.5l-23 39q35 10 47.5 23z" />
    <glyph glyph-name="uni021A" unicode="&#x21a;" horiz-adv-x="805" 
d="M10 710h785v-120h-317v-590h-150v590h-318v120zM395.5 -178q12.5 13 13.5 33h-80v93h147v-72q0 -45 -23.5 -73.5t-81.5 -42.5l-23 39q35 10 47.5 23z" />
    <glyph glyph-name="uni021B" unicode="&#x21b;" horiz-adv-x="585" 
d="M11 500h153v124l140 52v-176h240v-96h-240v-192q0 -58 32 -85t97 -27q57 0 111 13v-106q-22 -9 -59.5 -15t-79.5 -6q-128 0 -184.5 53.5t-56.5 149.5v215h-153v96zM375.5 -178q12.5 13 13.5 33h-80v93h147v-72q0 -45 -23.5 -73.5t-81.5 -42.5l-23 39q35 10 47.5 23z" />
    <glyph glyph-name="uni0232" unicode="&#x232;" horiz-adv-x="900" 
d="M372 249l-364 461h176l244 -317l10 -15t11 -21h2q3 13 21 36l249 317h170l-368 -461v-249h-151v249zM224 843h456v-82h-456v82z" />
    <glyph glyph-name="uni0233" unicode="&#x233;" horiz-adv-x="739" 
d="M48 -207v111q40 -7 73 -7q60 0 108.5 24.5t72.5 65.5l5 11l-309 502h160l199 -348q12 -22 19 -44h3q5 15 19 43l190 349h154l-302 -528q-54 -99 -125 -142.5t-178 -43.5q-43 0 -89 7zM130 685h481v-83h-481v83z" />
    <glyph glyph-name="uni0237" unicode="&#x237;" horiz-adv-x="344" 
d="M-45 -204v107q28 -4 75 -4q41 0 60 26t19 88v487h140v-507q0 -98 -48 -151t-162 -53q-55 0 -84 7z" />
    <glyph glyph-name="uni0259" unicode="&#x259;" horiz-adv-x="793" 
d="M589.5 487.5q82.5 -31.5 127 -91t44.5 -141.5q0 -87 -45 -149t-126 -93.5t-189 -31.5q-113 0 -194.5 32.5t-125 93.5t-43.5 145v32h585q-8 65 -68.5 101t-164.5 36q-78 0 -136 -23t-91 -67l-111 51q105 137 342 137q113 0 195.5 -31.5zM243.5 102q62.5 -36 157.5 -36
q94 0 154 36t68 98h-443q1 -62 63.5 -98z" />
    <glyph glyph-name="uni0272" unicode="&#x272;" horiz-adv-x="871" 
d="M-8 -96q53 0 78 22t25 77v497h138v-120q37 68 107.5 103.5t169.5 35.5q140 0 213.5 -70.5t73.5 -206.5v-242h-140v215q0 197 -197 197q-104 0 -164.5 -52.5t-60.5 -143.5v-230q0 -90 -52.5 -139t-178.5 -49q-56 0 -81 8v103q24 -5 69 -5z" />
    <glyph glyph-name="uni02BC" unicode="&#x2bc;" horiz-adv-x="336" 
d="M156 498q19 22 19 55v4h-94v153h173v-137q0 -69 -32.5 -112t-109.5 -57l-22 62q47 10 66 32z" />
    <glyph glyph-name="circumflex" unicode="&#x2c6;" horiz-adv-x="573" 
d="M400 573l-113 109l-114 -109h-123l160 157h153l160 -157h-123z" />
    <glyph glyph-name="caron" unicode="&#x2c7;" horiz-adv-x="573" 
d="M173 730l113 -109l114 109h123l-160 -157h-153l-160 157h123z" />
    <glyph glyph-name="breve" unicode="&#x2d8;" horiz-adv-x="515" 
d="M183 663q27 -23 75 -23t74.5 23t31.5 67h101q-6 -77 -60.5 -118.5t-146.5 -41.5t-147 41.5t-61 118.5h102q4 -44 31 -67z" />
    <glyph glyph-name="dotaccent" unicode="&#x2d9;" horiz-adv-x="256" 
d="M50 716h156v-133h-156v133z" />
    <glyph glyph-name="ring" unicode="&#x2da;" horiz-adv-x="441" 
d="M95.5 587.5q-45.5 30.5 -45.5 81.5t45.5 81t125.5 30q79 0 124.5 -30t45.5 -81t-45 -81.5t-125 -30.5t-125.5 30.5zM151 627q25 -15 70 -15t69.5 15t24.5 42q0 26 -25 41t-69 15q-45 0 -70 -15t-25 -41q0 -27 25 -42z" />
    <glyph glyph-name="ogonek" unicode="&#x2db;" horiz-adv-x="399" 
d="M299 -179.5q-42 -24.5 -109 -24.5q-63 0 -101.5 26.5t-38.5 70.5q0 40 33 70.5t98 46.5l124 -10q-75 -5 -115 -33t-40 -63q0 -21 14 -34t36 -13t37 11.5t23 33.5l89 -13q-8 -44 -50 -68.5z" />
    <glyph glyph-name="tilde" unicode="&#x2dc;" horiz-adv-x="616" 
d="M350.5 594q-26.5 9 -59.5 27q-26 14 -43.5 21t-39.5 7q-60 0 -75 -62l-83 26q13 58 52 88.5t101 30.5q36 0 62.5 -9t59.5 -27q26 -14 43.5 -21t39.5 -7q62 0 75 62l83 -26q-12 -58 -51 -88.5t-101 -30.5q-37 0 -63.5 9z" />
    <glyph glyph-name="hungarumlaut" unicode="&#x2dd;" horiz-adv-x="582" 
d="M203 730h123l-163 -154h-113zM410 730h122l-162 -154h-113z" />
    <glyph glyph-name="gravecomb" unicode="&#x300;" horiz-adv-x="0" 
d="M240 573l-190 157h157l163 -157h-130z" />
    <glyph glyph-name="acutecomb" unicode="&#x301;" horiz-adv-x="0" 
d="M213 730h157l-190 -157h-130z" />
    <glyph glyph-name="uni0302" unicode="&#x302;" horiz-adv-x="0" 
d="M400 573l-113 109l-114 -109h-123l160 157h153l160 -157h-123z" />
    <glyph glyph-name="tildecomb" unicode="&#x303;" horiz-adv-x="0" 
d="M350.5 594q-26.5 9 -59.5 27q-26 14 -43.5 21t-39.5 7q-60 0 -75 -62l-83 26q13 58 52 88.5t101 30.5q36 0 62.5 -9t59.5 -27q26 -14 43.5 -21t39.5 -7q62 0 75 62l83 -26q-12 -58 -51 -88.5t-101 -30.5q-37 0 -63.5 9z" />
    <glyph glyph-name="uni0304" unicode="&#x304;" horiz-adv-x="0" 
d="M50 685h481v-83h-481v83z" />
    <glyph glyph-name="uni0306" unicode="&#x306;" horiz-adv-x="0" 
d="M183 663q27 -23 75 -23t74.5 23t31.5 67h101q-6 -77 -60.5 -118.5t-146.5 -41.5t-147 41.5t-61 118.5h102q4 -44 31 -67z" />
    <glyph glyph-name="uni0307" unicode="&#x307;" horiz-adv-x="0" 
d="M50 716h156v-133h-156v133z" />
    <glyph glyph-name="uni0308" unicode="&#x308;" horiz-adv-x="0" 
d="M375 716h149v-127h-149v127zM50 716h149v-127h-149v127z" />
    <glyph glyph-name="uni030A" unicode="&#x30a;" horiz-adv-x="0" 
d="M95.5 587.5q-45.5 30.5 -45.5 81.5t45.5 81t125.5 30q79 0 124.5 -30t45.5 -81t-45 -81.5t-125 -30.5t-125.5 30.5zM151 627q25 -15 70 -15t69.5 15t24.5 42q0 26 -25 41t-69 15q-45 0 -70 -15t-25 -41q0 -27 25 -42z" />
    <glyph glyph-name="uni030B" unicode="&#x30b;" horiz-adv-x="0" 
d="M203 730h123l-163 -154h-113zM410 730h122l-162 -154h-113z" />
    <glyph glyph-name="uni030C" unicode="&#x30c;" horiz-adv-x="0" 
d="M173 730l113 -109l114 109h123l-160 -157h-153l-160 157h123z" />
    <glyph glyph-name="uni0312" unicode="&#x312;" horiz-adv-x="0" 
d="M130.5 702q-12.5 -13 -13.5 -33h80v-93h-147v72q0 45 23.5 73.5t81.5 42.5l23 -39q-35 -10 -47.5 -23z" />
    <glyph glyph-name="dotbelowcomb" unicode="&#x323;" horiz-adv-x="0" 
d="M121 -53h147v-111h-147v111z" />
    <glyph glyph-name="uni0326" unicode="&#x326;" horiz-adv-x="0" 
d="M116.5 -178q12.5 13 13.5 33h-80v93h147v-72q0 -45 -23.5 -73.5t-81.5 -42.5l-23 39q35 10 47.5 23z" />
    <glyph glyph-name="uni0327" unicode="&#x327;" horiz-adv-x="0" 
d="M205 5l-46 -59q27 15 70 15q55 0 86.5 -22t31.5 -62q0 -42 -42 -67t-112 -25q-51 0 -88 15.5t-55 43.5l77 21q20 -26 67 -26q27 0 42 10t15 27q0 18 -14 28t-40 10q-33 0 -57 -16l-69 15l59 92h75z" />
    <glyph glyph-name="uni0328" unicode="&#x328;" horiz-adv-x="0" 
d="M299 -179.5q-42 -24.5 -109 -24.5q-63 0 -101.5 26.5t-38.5 70.5q0 40 33 70.5t98 46.5l124 -10q-75 -5 -115 -33t-40 -63q0 -21 14 -34t36 -13t37 11.5t23 33.5l89 -13q-8 -44 -50 -68.5z" />
    <glyph glyph-name="uni0394" unicode="&#x394;" horiz-adv-x="933" 
d="M396 710h143l378 -710h-901zM712 109l-246 473l-249 -473h495z" />
    <glyph glyph-name="uni03A9" unicode="&#x3a9;" horiz-adv-x="1055" 
d="M365.5 587q-69.5 -31 -107.5 -88t-38 -133q0 -94 57.5 -161t149.5 -93v-112h-374v112h206v3q-97 43 -147 114t-50 165q0 103 58 180t163.5 118.5t244.5 41.5q138 0 243.5 -41.5t163.5 -118.5t58 -180q0 -94 -50 -165t-147 -114v-3h206v-112h-374v112q92 26 149.5 93
t57.5 161q0 76 -37.5 133t-107 88t-162.5 31t-162.5 -31z" />
    <glyph glyph-name="uni03BC" unicode="&#x3bc;" horiz-adv-x="886" 
d="M95 -195v695h140v-237q0 -98 52 -138t131 -40q77 0 128 29t75 74.5t24 94.5v217h140v-331q0 -114 17 -169h-144q-10 57 -12 124q-36 -71 -107.5 -107t-166.5 -36q-90 0 -150 28v-204h-127z" />
    <glyph glyph-name="pi" unicode="&#x3c0;" horiz-adv-x="917" 
d="M83 497q30 3 74 3h711v-104h-120v-246q0 -32 17 -46t50 -14q18 0 32 2t20 3v-95q-39 -9 -88 -9q-99 0 -135 38t-36 106v261h-320v-396h-140v396q-65 0 -124 -12v102q29 8 59 11z" />
    <glyph glyph-name="uni0E3F" unicode="&#xe3f;" horiz-adv-x="938" 
d="M105 695h336v96h65v-96h107q122 0 186.5 -45t64.5 -134q0 -60 -36.5 -101t-102.5 -57q158 -25 158 -164q0 -93 -69 -143.5t-191 -50.5h-117v-103h-65v103h-336v695zM441 97v210h-196v-210h196zM441 396v202h-196v-202h196zM602 97q133 0 133 106q0 51 -35 77.5t-100 26.5
h-94v-210h96zM591 396q61 0 93 27t32 78q0 48 -31.5 72.5t-93.5 24.5h-85v-202h85z" />
    <glyph glyph-name="Wgrave" unicode="&#x1e80;" horiz-adv-x="1315" 
d="M22 710h154l168 -517q2 -8 8 -27t7 -32h3q4 23 19 59l200 517h154l200 -517q15 -40 18 -59h3q2 14 7.5 33t7.5 26l169 517h154l-249 -710h-176l-194 506q-14 36 -15 57h-5q0 -18 -15 -57l-194 -506h-175zM597 760l-174 114h156l152 -114h-134z" />
    <glyph glyph-name="wgrave" unicode="&#x1e81;" horiz-adv-x="1125" 
d="M14 500h144l141 -347q9 -23 13 -47h2q2 13 7 27.5t7 19.5l161 347h147l160 -347q12 -28 15 -47h2q3 19 12 47l142 347h144l-216 -500h-160l-156 337q-13 30 -15 51h-3q-2 -21 -15 -51l-156 -337h-160zM498 573l-190 157h157l163 -157h-130z" />
    <glyph glyph-name="Wacute" unicode="&#x1e82;" horiz-adv-x="1315" 
d="M22 710h154l168 -517q2 -8 8 -27t7 -32h3q4 23 19 59l200 517h154l200 -517q15 -40 18 -59h3q2 14 7.5 33t7.5 26l169 517h154l-249 -710h-176l-194 506q-14 36 -15 57h-5q0 -18 -15 -57l-194 -506h-175zM743 874h156l-174 -114h-134z" />
    <glyph glyph-name="wacute" unicode="&#x1e83;" horiz-adv-x="1125" 
d="M14 500h144l141 -347q9 -23 13 -47h2q2 13 7 27.5t7 19.5l161 347h147l160 -347q12 -28 15 -47h2q3 19 12 47l142 347h144l-216 -500h-160l-156 337q-13 30 -15 51h-3q-2 -21 -15 -51l-156 -337h-160zM658 730h157l-190 -157h-130z" />
    <glyph glyph-name="Wdieresis" unicode="&#x1e84;" horiz-adv-x="1315" 
d="M22 710h154l168 -517q2 -8 8 -27t7 -32h3q4 23 19 59l200 517h154l200 -517q15 -40 18 -59h3q2 14 7.5 33t7.5 26l169 517h154l-249 -710h-176l-194 506q-14 36 -15 57h-5q0 -18 -15 -57l-194 -506h-175zM744 873h149v-113h-149v113zM424 873h149v-113h-149v113z" />
    <glyph glyph-name="wdieresis" unicode="&#x1e85;" horiz-adv-x="1125" 
d="M14 500h144l141 -347q9 -23 13 -47h2q2 13 7 27.5t7 19.5l161 347h147l160 -347q12 -28 15 -47h2q3 19 12 47l142 347h144l-216 -500h-160l-156 337q-13 30 -15 51h-3q-2 -21 -15 -51l-156 -337h-160zM651 716h149v-127h-149v127zM326 716h149v-127h-149v127z" />
    <glyph glyph-name="uni1E9E" unicode="&#x1e9e;" horiz-adv-x="1023" 
d="M210 659q105 75 320 75q158 0 257 -35t156 -111l-257 -176q142 -7 214 -60t72 -148q0 -109 -86.5 -168.5t-248.5 -59.5q-127 0 -238 31v116q115 -35 229 -35q100 0 148.5 30t48.5 90q0 53 -45 78t-151 25h-128v102l256 169q-33 23 -84.5 33t-135.5 10
q-145 0 -213.5 -46.5t-68.5 -148.5v-430h-150v430q0 154 105 229z" />
    <glyph glyph-name="uni1EA0" unicode="&#x1ea0;" horiz-adv-x="965" 
d="M395 710h175l379 -710h-162l-76 150h-457l-76 -150h-162zM657 256l-134 263q-23 49 -39 93h-3q-16 -44 -39 -93l-134 -263h349zM409 -53h147v-111h-147v111z" />
    <glyph glyph-name="uni1EA1" unicode="&#x1ea1;" horiz-adv-x="824" 
d="M118 21.5q-66 40.5 -66 113.5q0 35 14.5 63t42.5 47q30 20 75.5 32t127.5 17l289 16v11q0 51 -48 79t-133 28q-87 0 -139 -25t-62 -72h-151q9 56 54.5 98.5t122 66t175.5 23.5q162 0 242.5 -55t80.5 -163v-132q0 -63 2 -98.5t8 -70.5h-142q-7 39 -7 99
q-76 -118 -303 -118q-117 0 -183 40.5zM237.5 87q39.5 -18 114.5 -18q73 0 130 18t89 51.5t32 78.5v20l-251 -16q-87 -6 -120.5 -24t-33.5 -56q0 -36 39.5 -54zM338 -53h147v-111h-147v111z" />
    <glyph glyph-name="uni1EB8" unicode="&#x1eb8;" horiz-adv-x="878" 
d="M805 112v-112h-700v710h693v-112h-543v-183h526v-106h-526v-197h550zM393 -53h147v-111h-147v111z" />
    <glyph glyph-name="uni1EB9" unicode="&#x1eb9;" horiz-adv-x="793" 
d="M203.5 12.5q-82.5 31.5 -127 91t-44.5 141.5q0 87 45 149t126 93.5t189 31.5q113 0 194.5 -32.5t125 -93.5t43.5 -145v-32h-585q8 -65 68.5 -101t164.5 -36q78 0 136 23t91 67l111 -51q-105 -137 -342 -137q-113 0 -195.5 31.5zM613 300q-1 62 -63.5 98t-157.5 36
q-94 0 -154 -36t-68 -98h443zM325 -53h147v-111h-147v111z" />
    <glyph glyph-name="uni1EBC" unicode="&#x1ebc;" horiz-adv-x="878" 
d="M805 112v-112h-700v710h693v-112h-543v-183h526v-106h-526v-197h550zM489 763q-24 8 -55 23q-23 12 -39.5 17.5t-35.5 5.5q-57 0 -69 -52l-82 25q27 109 149 109q34 0 59 -8t54 -23q25 -12 41 -17.5t36 -5.5q56 0 69 53l81 -26q-27 -109 -149 -109q-35 0 -59 8z" />
    <glyph glyph-name="uni1EBD" unicode="&#x1ebd;" horiz-adv-x="793" 
d="M203.5 12.5q-82.5 31.5 -127 91t-44.5 141.5q0 87 45 149t126 93.5t189 31.5q113 0 194.5 -32.5t125 -93.5t43.5 -145v-32h-585q8 -65 68.5 -101t164.5 -36q78 0 136 23t91 67l111 -51q-105 -137 -342 -137q-113 0 -195.5 31.5zM613 300q-1 62 -63.5 98t-157.5 36
q-94 0 -154 -36t-68 -98h443zM438.5 594q-26.5 9 -59.5 27q-26 14 -43.5 21t-39.5 7q-60 0 -75 -62l-83 26q13 58 52 88.5t101 30.5q36 0 62.5 -9t59.5 -27q26 -14 43.5 -21t39.5 -7q62 0 75 62l83 -26q-12 -58 -51 -88.5t-101 -30.5q-37 0 -63.5 9z" />
    <glyph glyph-name="uni1ECA" unicode="&#x1eca;" horiz-adv-x="359" 
d="M105 0v710h150v-710h-150zM106 -53h147v-111h-147v111z" />
    <glyph glyph-name="uni1ECB" unicode="&#x1ecb;" horiz-adv-x="330" 
d="M95 500h140v-500h-140v500zM87 716h156v-133h-156v133zM91 -53h147v-111h-147v111z" />
    <glyph glyph-name="uni1ECC" unicode="&#x1ecc;" horiz-adv-x="994" 
d="M250 23.5q-107 47.5 -165.5 133.5t-58.5 198q0 113 58.5 199t165.5 133t247 47t247 -47t166 -133t59 -199t-58.5 -199t-165.5 -133t-248 -47q-140 0 -247 47.5zM223 218q39 -60 110.5 -93t163.5 -33t163.5 33t111 93t39.5 137q0 78 -39.5 137.5t-110.5 92.5t-164 33
t-164 -33t-110 -92.5t-39 -137.5q0 -77 39 -137zM423 -53h147v-111h-147v111z" />
    <glyph glyph-name="uni1ECD" unicode="&#x1ecd;" horiz-adv-x="808" 
d="M209.5 14.5q-84.5 33.5 -131 94.5t-46.5 141t46.5 141t131 94.5t194.5 33.5t194.5 -33.5t131 -94.5t46.5 -141t-46.5 -141t-131 -94.5t-194.5 -33.5t-194.5 33.5zM240 126q62 -46 164 -46t163.5 46t61.5 124t-61.5 124t-163.5 46t-164 -46t-62 -124t62 -124zM330 -53h147
v-111h-147v111z" />
    <glyph glyph-name="uni1EE4" unicode="&#x1ee4;" horiz-adv-x="968" 
d="M226 710v-376q0 -67 30.5 -121t89 -85t138.5 -31q79 0 137.5 31t89 85t30.5 121v376h150v-387q0 -102 -47.5 -180.5t-139.5 -122.5t-220 -44t-220 44t-140 123t-48 181v386h150zM410 -53h147v-111h-147v111z" />
    <glyph glyph-name="uni1EE5" unicode="&#x1ee5;" horiz-adv-x="859" 
d="M145 45.5q-71 64.5 -71 192.5v262h140v-237q0 -98 52 -138t131 -40q77 0 128 29t75 74.5t24 94.5v217h141v-500h-139v127q-33 -71 -105.5 -108.5t-169.5 -37.5q-135 0 -206 64.5zM349 -53h147v-111h-147v111z" />
    <glyph glyph-name="Ygrave" unicode="&#x1ef2;" horiz-adv-x="900" 
d="M372 249l-364 461h176l244 -317l10 -15t11 -21h2q3 13 21 36l249 317h170l-368 -461v-249h-151v249zM390 760l-174 114h156l152 -114h-134z" />
    <glyph glyph-name="ygrave" unicode="&#x1ef3;" horiz-adv-x="739" 
d="M48 -207v111q40 -7 73 -7q60 0 108.5 24.5t72.5 65.5l5 11l-309 502h160l199 -348q12 -22 19 -44h3q5 15 19 43l190 349h154l-302 -528q-54 -99 -125 -142.5t-178 -43.5q-43 0 -89 7zM306 573l-190 157h157l163 -157h-130z" />
    <glyph glyph-name="uni1EF8" unicode="&#x1ef8;" horiz-adv-x="900" 
d="M372 249l-364 461h176l244 -317l10 -15t11 -21h2q3 13 21 36l249 317h170l-368 -461v-249h-151v249zM488 763q-24 8 -55 23q-23 12 -39.5 17.5t-35.5 5.5q-57 0 -69 -52l-82 25q27 109 149 109q34 0 59 -8t54 -23q25 -12 41 -17.5t36 -5.5q56 0 69 53l81 -26
q-27 -109 -149 -109q-35 0 -59 8z" />
    <glyph glyph-name="uni1EF9" unicode="&#x1ef9;" horiz-adv-x="739" 
d="M48 -207v111q40 -7 73 -7q60 0 108.5 24.5t72.5 65.5l5 11l-309 502h160l199 -348q12 -22 19 -44h3q5 15 19 43l190 349h154l-302 -528q-54 -99 -125 -142.5t-178 -43.5q-43 0 -89 7zM412.5 594q-26.5 9 -59.5 27q-26 14 -43.5 21t-39.5 7q-60 0 -75 -62l-83 26
q13 58 52 88.5t101 30.5q36 0 62.5 -9t59.5 -27q26 -14 43.5 -21t39.5 -7q62 0 75 62l83 -26q-12 -58 -51 -88.5t-101 -30.5q-37 0 -63.5 9z" />
    <glyph glyph-name="uni2002" unicode="&#x2002;" horiz-adv-x="683" 
 />
    <glyph glyph-name="uni2003" unicode="&#x2003;" horiz-adv-x="1367" 
 />
    <glyph glyph-name="uni2004" unicode="&#x2004;" horiz-adv-x="456" 
 />
    <glyph glyph-name="uni2005" unicode="&#x2005;" horiz-adv-x="342" 
 />
    <glyph glyph-name="uni2007" unicode="&#x2007;" 
 />
    <glyph glyph-name="uni2008" unicode="&#x2008;" horiz-adv-x="336" 
 />
    <glyph glyph-name="uni2009" unicode="&#x2009;" horiz-adv-x="171" 
 />
    <glyph glyph-name="uni200A" unicode="&#x200a;" horiz-adv-x="57" 
 />
    <glyph glyph-name="uni200B" unicode="&#x200b;" horiz-adv-x="0" 
 />
    <glyph glyph-name="endash" unicode="&#x2013;" horiz-adv-x="683" 
d="M683 333v-110h-683v110h683z" />
    <glyph glyph-name="emdash" unicode="&#x2014;" horiz-adv-x="1367" 
d="M1367 333v-110h-1367v110h1367z" />
    <glyph glyph-name="quoteleft" unicode="&#x2018;" horiz-adv-x="336" 
d="M180 637q-19 -22 -19 -55v-4h94v-153h-173v137q0 69 32.5 112t109.5 57l22 -62q-47 -10 -66 -32z" />
    <glyph glyph-name="quoteright" unicode="&#x2019;" horiz-adv-x="336" 
d="M156 498q19 22 19 55v4h-94v153h173v-137q0 -69 -32.5 -112t-109.5 -57l-22 62q47 10 66 32z" />
    <glyph glyph-name="quotesinglbase" unicode="&#x201a;" horiz-adv-x="336" 
d="M156 -59q19 22 19 55v4h-94v153h173v-137q0 -69 -32.5 -112t-109.5 -57l-22 62q47 10 66 32z" />
    <glyph glyph-name="quotedblleft" unicode="&#x201c;" horiz-adv-x="564" 
d="M180 637q-19 -22 -19 -55v-4h94v-153h-173v137q0 69 32.5 112t109.5 57l22 -62q-47 -10 -66 -32zM310 562q0 69 32.5 112t109.5 57l22 -62q-47 -10 -66 -32t-19 -55v-4h94v-153h-173v137z" />
    <glyph glyph-name="quotedblright" unicode="&#x201d;" horiz-adv-x="564" 
d="M384 498q19 22 19 55v4h-94v153h173v-137q0 -69 -32.5 -112t-109.5 -57l-22 62q47 10 66 32zM81 710h173v-137q0 -69 -32.5 -112t-109.5 -57l-22 62q47 10 66 32t19 55v4h-94v153z" />
    <glyph glyph-name="quotedblbase" unicode="&#x201e;" horiz-adv-x="564" 
d="M384 -59q19 22 19 55v4h-94v153h173v-137q0 -69 -32.5 -112t-109.5 -57l-22 62q47 10 66 32zM81 153h173v-137q0 -69 -32.5 -112t-109.5 -57l-22 62q47 10 66 32t19 55v4h-94v153z" />
    <glyph glyph-name="dagger" unicode="&#x2020;" horiz-adv-x="662" 
d="M384 -86h-107v499h-224v87h224v220h107v-220h225v-87h-225v-499z" />
    <glyph glyph-name="daggerdbl" unicode="&#x2021;" horiz-adv-x="662" 
d="M53 222h224v191h-224v87h224v220h107v-220h225v-87h-225v-191h225v-88h-225v-220h-107v220h-224v88z" />
    <glyph glyph-name="bullet" unicode="&#x2022;" horiz-adv-x="435" 
d="M119.5 159q-38.5 37 -38.5 97q0 61 38.5 98t97.5 37q60 0 98.5 -37t38.5 -98q0 -60 -38.5 -97t-98.5 -37q-59 0 -97.5 37z" />
    <glyph glyph-name="ellipsis" unicode="&#x2026;" horiz-adv-x="1054" 
d="M972 0h-173v150h173v-150zM81 150h173v-150h-173v150zM440 150h173v-150h-173v150z" />
    <glyph glyph-name="perthousand" unicode="&#x2030;" horiz-adv-x="1630" 
d="M139.5 366.5q-54.5 23.5 -84 66t-29.5 99.5q0 55 29.5 97t84 65t125.5 23q69 0 123.5 -23.5t85 -66t30.5 -98.5q0 -55 -30.5 -97.5t-84.5 -65.5t-123 -23q-72 0 -126.5 23.5zM172 453.5q35 -28.5 94 -28.5q56 0 90 28t34 76t-34.5 77t-90.5 29q-58 0 -93 -28.5t-35 -74.5
q0 -50 35 -78.5zM833 722h123l-678 -741h-122zM636.5 267q29.5 42 84 65.5t125.5 23.5q69 0 123.5 -23.5t85 -66.5t30.5 -99q0 -55 -30.5 -97t-84.5 -65t-123 -23q-72 0 -126.5 23t-84 66t-29.5 99q0 55 29.5 97zM753 92.5q35 -28.5 94 -28.5q56 0 90 28t34 75
q0 49 -34.5 78t-90.5 29q-58 0 -93 -28.5t-35 -75.5q0 -49 35 -77.5zM1156.5 268q29.5 42 84 65t125.5 23q69 0 123.5 -23.5t85 -66t30.5 -98.5q0 -55 -30.5 -97.5t-84.5 -65.5t-123 -23q-72 0 -126.5 23.5t-84 66t-29.5 99.5q0 55 29.5 97zM1273 92.5q35 -28.5 94 -28.5
q56 0 90 28t34 76t-34.5 77t-90.5 29q-58 0 -93 -28.5t-35 -74.5q0 -50 35 -78.5z" />
    <glyph glyph-name="guilsinglleft" unicode="&#x2039;" horiz-adv-x="438" 
d="M29 276l247 206h144l-242 -205l239 -210h-146z" />
    <glyph glyph-name="guilsinglright" unicode="&#x203a;" horiz-adv-x="438" 
d="M21 67l239 210l-242 205h144l247 -206l-242 -209h-146z" />
    <glyph glyph-name="fraction" unicode="&#x2044;" horiz-adv-x="240" 
d="M351 727h126l-588 -744h-126z" />
    <glyph glyph-name="uni2070" unicode="&#x2070;" horiz-adv-x="675" 
d="M185.5 325.5q-66.5 32.5 -104 93.5t-37.5 145q0 83 37.5 144.5t104 94t152.5 32.5t152.5 -32.5t103.5 -94t37 -145.5q0 -83 -37 -144t-103.5 -93.5t-152.5 -32.5t-152.5 32.5zM219 428q45 -47 119 -47q73 0 117.5 47t44.5 135q0 89 -44.5 136t-117.5 47t-118.5 -46.5
t-45.5 -135.5t45 -136z" />
    <glyph glyph-name="uni2074" unicode="&#x2074;" horiz-adv-x="655" 
d="M515 423v-113h-124v113h-368v79l353 315h139v-310h121v-84h-121zM391 507v224l-243 -224h243z" />
    <glyph glyph-name="uni2075" unicode="&#x2075;" horiz-adv-x="618" 
d="M126.5 334.5q-70.5 41.5 -83.5 112.5l124 13q8 -38 46 -60t95 -22q65 0 102 27.5t37 74.5q0 46 -35.5 71t-99.5 25q-51 0 -87.5 -18t-51.5 -51l-112 10l32 300h447v-85h-348l-17 -142q24 32 71 49.5t109 17.5q104 0 163 -47t59 -129q0 -57 -33.5 -99.5t-94.5 -65.5
t-143 -23q-109 0 -179.5 41.5z" />
    <glyph glyph-name="uni2076" unicode="&#x2076;" horiz-adv-x="640" 
d="M116.5 360q-72.5 67 -72.5 195q0 134 76 207t216 73q102 0 169.5 -36.5t85.5 -103.5l-128 -15q-13 36 -46.5 55t-85.5 19q-80 0 -122 -45t-44 -133q29 38 79.5 58.5t116.5 20.5q113 0 175.5 -46.5t62.5 -131.5q0 -56 -33 -97.5t-94.5 -64t-143.5 -22.5q-139 0 -211.5 67z
M229 405q39 -27 99 -27q64 0 102.5 27t38.5 72q0 46 -35 71.5t-100 25.5q-60 0 -100.5 -22.5t-58.5 -65.5q15 -54 54 -81z" />
    <glyph glyph-name="uni2077" unicode="&#x2077;" horiz-adv-x="557" 
d="M227.5 543.5q62.5 102.5 180.5 179.5h-387v94h511v-89q-108 -73 -169.5 -170.5t-61.5 -220.5v-27h-136v13q0 118 62.5 220.5z" />
    <glyph glyph-name="uni2078" unicode="&#x2078;" horiz-adv-x="645" 
d="M116.5 331.5q-74.5 38.5 -74.5 107.5q0 48 36.5 79.5t105.5 42.5q-65 17 -95.5 48.5t-30.5 80.5q0 67 71 106t193 39q121 0 192.5 -37.5t71.5 -100.5q0 -43 -31.5 -70t-91.5 -37q73 -19 106 -53t33 -89q0 -73 -73.5 -114t-205.5 -41t-206.5 38.5zM213 394.5
q40 -22.5 110 -22.5q69 0 109 21.5t40 59.5q0 32 -30 50.5t-99 29.5l-72 12q-98 -25 -98 -89q0 -39 40 -61.5zM215.5 642q27.5 -17 87.5 -26l74 -10q43 12 61.5 30.5t18.5 46.5q0 36 -35.5 55.5t-99.5 19.5q-62 0 -98 -19t-36 -51q0 -29 27.5 -46z" />
    <glyph glyph-name="uni2079" unicode="&#x2079;" horiz-adv-x="640" 
d="M136.5 332q-67.5 39 -87.5 109l128 15q11 -38 45.5 -58t88.5 -20q156 0 163 172q-62 -62 -195 -62q-113 0 -175.5 44t-62.5 126q0 54 33 94t93.5 61.5t140.5 21.5q140 0 214.5 -66t74.5 -192q0 -138 -74.5 -211t-216.5 -73q-102 0 -169.5 39zM208 592.5
q37 -23.5 100 -23.5q57 0 98.5 19t61.5 52q-26 114 -155 114q-66 0 -104 -25t-38 -70q0 -43 37 -66.5z" />
    <glyph glyph-name="uni207A" unicode="&#x207a;" horiz-adv-x="548" 
d="M233 365v147h-186v75h186v140h82v-140h186v-75h-186v-147h-82z" />
    <glyph glyph-name="uni207B" unicode="&#x207b;" horiz-adv-x="548" 
d="M47 588h454v-76h-454v76z" />
    <glyph glyph-name="uni207D" unicode="&#x207d;" horiz-adv-x="330" 
d="M114 366.5q-43 90.5 -43 181.5t44 181.5t119 152.5l92 -37q-70 -65 -104 -140.5t-34 -157.5q0 -168 139 -301l-96 -38q-74 68 -117 158.5z" />
    <glyph glyph-name="uni207E" unicode="&#x207e;" horiz-adv-x="330" 
d="M142 547q0 82 -34 157.5t-104 140.5l92 37q75 -62 119 -152.5t44 -181.5t-43 -181.5t-117 -158.5l-96 38q139 133 139 301z" />
    <glyph glyph-name="uni2080" unicode="&#x2080;" horiz-adv-x="675" 
d="M185.5 -124.5q-66.5 32.5 -104 93.5t-37.5 145q0 83 37.5 144.5t104 94t152.5 32.5t152.5 -32.5t103.5 -94t37 -145.5q0 -83 -37 -144t-103.5 -93.5t-152.5 -32.5t-152.5 32.5zM219 -22q45 -47 119 -47q73 0 117.5 47t44.5 135q0 89 -44.5 136t-117.5 47t-118.5 -46.5
t-45.5 -135.5t45 -136z" />
    <glyph glyph-name="uni2081" unicode="&#x2081;" horiz-adv-x="414" 
d="M137.5 181.5q-33.5 -12.5 -75.5 -12.5h-33v104h19q58 0 100 25t59 69h107v-507h-125v356q-18 -22 -51.5 -34.5z" />
    <glyph glyph-name="uni2082" unicode="&#x2082;" horiz-adv-x="635" 
d="M81 -41q121 48 191 81.5t118 75t48 89.5q0 39 -33 64.5t-95 25.5q-59 0 -96.5 -26t-37.5 -76q0 -6 2 -22l-128 11q-2 9 -2 27q0 55 34 94.5t93.5 60.5t133.5 21q122 0 192 -44t70 -126q0 -61 -42 -107.5t-110.5 -81.5t-169.5 -72h335v-94h-542v83z" />
    <glyph glyph-name="uni2083" unicode="&#x2083;" horiz-adv-x="637" 
d="M116 -110q-73 47 -77 130l129 10q3 -49 41.5 -75.5t106.5 -26.5q66 0 104.5 21t38.5 61q0 34 -31 53.5t-98 19.5h-61v70h58q57 0 88.5 17t31.5 52q0 37 -35.5 57t-98.5 20q-67 0 -104 -26.5t-38 -77.5l-128 11q1 53 33 93.5t92 63t144 22.5q126 0 196.5 -39.5
t70.5 -113.5q0 -52 -38.5 -78.5t-96.5 -31.5q71 -7 109 -38.5t38 -84.5q0 -47 -33.5 -82.5t-96 -54.5t-146.5 -19q-126 0 -199 47z" />
    <glyph glyph-name="uni2084" unicode="&#x2084;" horiz-adv-x="655" 
d="M515 -27v-113h-124v113h-368v79l353 315h139v-310h121v-84h-121zM391 57v224l-243 -224h243z" />
    <glyph glyph-name="uni2085" unicode="&#x2085;" horiz-adv-x="618" 
d="M126.5 -115.5q-70.5 41.5 -83.5 112.5l124 13q8 -38 46 -60t95 -22q65 0 102 27.5t37 74.5q0 46 -35.5 71t-99.5 25q-51 0 -87.5 -18t-51.5 -51l-112 10l32 300h447v-85h-348l-17 -142q24 32 71 49.5t109 17.5q104 0 163 -47t59 -129q0 -57 -33.5 -99.5t-94.5 -65.5
t-143 -23q-109 0 -179.5 41.5z" />
    <glyph glyph-name="uni2086" unicode="&#x2086;" horiz-adv-x="640" 
d="M116.5 -90q-72.5 67 -72.5 195q0 134 76 207t216 73q102 0 169.5 -36.5t85.5 -103.5l-128 -15q-13 36 -46.5 55t-85.5 19q-80 0 -122 -45t-44 -133q29 38 79.5 58.5t116.5 20.5q113 0 175.5 -46.5t62.5 -131.5q0 -56 -33 -97.5t-94.5 -64t-143.5 -22.5q-139 0 -211.5 67z
M229 -45q39 -27 99 -27q64 0 102.5 27t38.5 72q0 46 -35 71.5t-100 25.5q-60 0 -100.5 -22.5t-58.5 -65.5q15 -54 54 -81z" />
    <glyph glyph-name="uni2087" unicode="&#x2087;" horiz-adv-x="557" 
d="M227.5 93.5q62.5 102.5 180.5 179.5h-387v94h511v-89q-108 -73 -169.5 -170.5t-61.5 -220.5v-27h-136v13q0 118 62.5 220.5z" />
    <glyph glyph-name="uni2088" unicode="&#x2088;" horiz-adv-x="645" 
d="M116.5 -118.5q-74.5 38.5 -74.5 107.5q0 48 36.5 79.5t105.5 42.5q-65 17 -95.5 48.5t-30.5 80.5q0 67 71 106t193 39q121 0 192.5 -37.5t71.5 -100.5q0 -43 -31.5 -70t-91.5 -37q73 -19 106 -53t33 -89q0 -73 -73.5 -114t-205.5 -41t-206.5 38.5zM213 -55.5
q40 -22.5 110 -22.5q69 0 109 21.5t40 59.5q0 32 -30 50.5t-99 29.5l-72 12q-98 -25 -98 -89q0 -39 40 -61.5zM215.5 192q27.5 -17 87.5 -26l74 -10q43 12 61.5 30.5t18.5 46.5q0 36 -35.5 55.5t-99.5 19.5q-62 0 -98 -19t-36 -51q0 -29 27.5 -46z" />
    <glyph glyph-name="uni2089" unicode="&#x2089;" horiz-adv-x="640" 
d="M136.5 -118q-67.5 39 -87.5 109l128 15q11 -38 45.5 -58t88.5 -20q156 0 163 172q-62 -62 -195 -62q-113 0 -175.5 44t-62.5 126q0 54 33 94t93.5 61.5t140.5 21.5q140 0 214.5 -66t74.5 -192q0 -138 -74.5 -211t-216.5 -73q-102 0 -169.5 39zM208 142.5
q37 -23.5 100 -23.5q57 0 98.5 19t61.5 52q-26 114 -155 114q-66 0 -104 -25t-38 -70q0 -43 37 -66.5z" />
    <glyph glyph-name="uni208A" unicode="&#x208a;" horiz-adv-x="548" 
d="M233 -85v147h-186v75h186v140h82v-140h186v-75h-186v-147h-82z" />
    <glyph glyph-name="uni208B" unicode="&#x208b;" horiz-adv-x="548" 
d="M47 138h454v-76h-454v76z" />
    <glyph glyph-name="uni208D" unicode="&#x208d;" horiz-adv-x="330" 
d="M114 -83.5q-43 90.5 -43 181.5t44 181.5t119 152.5l92 -37q-70 -65 -104 -140.5t-34 -157.5q0 -168 139 -301l-96 -38q-74 68 -117 158.5z" />
    <glyph glyph-name="uni208E" unicode="&#x208e;" horiz-adv-x="330" 
d="M142 97q0 82 -34 157.5t-104 140.5l92 37q75 -62 119 -152.5t44 -181.5t-43 -181.5t-117 -158.5l-96 38q139 133 139 301z" />
    <glyph glyph-name="uni20A9" unicode="&#x20a9;" horiz-adv-x="1390" 
d="M180 312l-28 73h-118v60h96l-94 250h140l85 -250h258l103 250h146l103 -250h258l85 250h139l-94 -250h97v-60h-119l-27 -73h146v-60h-169l-94 -252h-163l-102 252h-266l-102 -252h-163l-95 252h-168v60h146zM306 312h158l30 73h-213zM337 219q28 -82 39 -132h3
q4 23 13.5 48.5t31.5 79.5l15 37h-113zM804 312l-30 73h-158l-30 -73h218zM750 445l-12 29q-18 42 -26 69t-15 59h-4q-6 -30 -14.5 -57t-26.5 -71l-12 -29h110zM926 312h158l25 73h-213zM966 215q23 -55 31.5 -80.5t12.5 -47.5h4q11 50 39 132l11 33h-113z" />
    <glyph glyph-name="dong" unicode="&#x20ab;" horiz-adv-x="869" 
d="M189 15.5q-74 34.5 -115.5 96t-41.5 139.5q0 79 41.5 139.5t116.5 94.5t172 34q179 0 272 -105v160h-257v73h257v78h140v-78h111v-73h-111v-574h-137v101q-42 -59 -113.5 -89.5t-167.5 -30.5q-93 0 -167 34.5zM28 -65h808v-73h-808v73zM240 127q61 -46 164 -46
q67 0 120 20t83 56.5t30 82.5v17q0 47 -30.5 84.5t-85 58t-123.5 20.5q-102 0 -160.5 -45t-58.5 -124q0 -78 61 -124z" />
    <glyph glyph-name="Euro" unicode="&#x20ac;" horiz-adv-x="980" 
d="M336.5 16q-90.5 36 -145 98t-75.5 141h-111v62h100q-2 26 -2 38q0 11 2 33h-100v63h111q23 77 80 136.5t149 93.5t213 34q135 0 235.5 -46t151.5 -125l-137 -53q-38 54 -99.5 82t-154.5 28q-115 0 -185.5 -40t-98.5 -110h410v-63h-425q-2 -20 -2 -32q0 -13 2 -39h425v-62
h-410q28 -75 100 -118t184 -43q85 0 151.5 30t107.5 92l131 -54q-55 -85 -156.5 -133.5t-238.5 -48.5q-122 0 -212.5 36z" />
    <glyph glyph-name="uni20AE" unicode="&#x20ae;" horiz-adv-x="805" 
d="M328 245v76l-201 -45l-39 52l240 53v194h-318v120h785v-120h-317v-161l201 45l39 -52l-240 -53v-76l201 45l39 -52l-240 -53v-218h-150v185l-201 -45l-39 52z" />
    <glyph glyph-name="uni20B4" unicode="&#x20b4;" horiz-adv-x="835" 
d="M138 30q-90 50 -90 147q0 44 19 78h-55v62h120q49 29 134 50l86 21h-340v63h567q29 15 41 33t12 43q0 85 -194 85q-104 0 -171.5 -26t-108.5 -79l-111 60q124 148 394 148q335 0 335 -188q0 -43 -18 -76h65v-63h-130q-49 -28 -122 -47l-99 -24h351v-62h-576
q-29 -14 -41.5 -31t-12.5 -40q0 -49 53 -73.5t153 -24.5q109 0 182.5 30t121.5 94l118 -54q-56 -86 -163 -131t-251 -45q-179 0 -269 50z" />
    <glyph glyph-name="uni20B8" unicode="&#x20b8;" horiz-adv-x="805" 
d="M10 591h785v-120h-317v-471h-150v471h-318v120zM10 695h785v-62h-785v62z" />
    <glyph glyph-name="uni20B9" unicode="&#x20b9;" horiz-adv-x="852" 
d="M79 281v62h205q85 0 127.5 24.5t50.5 75.5h-383v64h383q-19 99 -153 99h-230v89h730v-89h-240q39 -40 45 -99h195v-64h-195q-12 -85 -83 -133.5t-208 -50.5h-46l314 -259h-186z" />
    <glyph glyph-name="uni20BA" unicode="&#x20ba;" horiz-adv-x="799" 
d="M142 334v80l-116 -23v65l116 23v216h147v-187l354 71v-65l-354 -71v-80l354 71v-65l-354 -70v-186h141q171 0 217 148l139 -19q-29 -113 -105 -177.5t-228 -64.5h-311v270l-116 -23v64z" />
    <glyph glyph-name="uni20BD" unicode="&#x20bd;" horiz-adv-x="855" 
d="M134 112h-121v90h121v69h-120v94h120v330h431q124 0 195.5 -56.5t71.5 -153.5q0 -64 -32.5 -112.5t-92.5 -75t-140 -26.5h-287v-69h358v-90h-358v-112h-146v112zM541 365q64 0 100.5 30.5t36.5 82.5q0 50 -36.5 79.5t-99.5 29.5h-262v-222h261z" />
    <glyph glyph-name="uni20BF" unicode="&#x20bf;" horiz-adv-x="938" 
d="M373 791v-96h184v96h69v-96q115 -2 176.5 -48t61.5 -130q0 -60 -35 -100.5t-98 -55.5q74 -14 113 -55.5t39 -109.5q0 -91 -67.5 -143t-189.5 -53v-103h-69v103h-184v-103h-70v103h-198v695h198v96h70zM597 103q66 0 99.5 26t33.5 76q0 49 -36 75t-102 26h-341v-203h346z
M588 402q60 0 91.5 24.5t31.5 71.5t-32 70.5t-93 23.5h-335v-190h337z" />
    <glyph glyph-name="uni2105" unicode="&#x2105;" horiz-adv-x="1142" 
d="M163 -14l678 744h132l-677 -744h-133zM62 639.5q30 42.5 85 65.5t127 23q89 0 151 -36t80 -98l-117 -16q-11 31 -41 47.5t-73 16.5q-58 0 -92.5 -27t-34.5 -73q0 -48 34.5 -76t93.5 -28q44 0 73.5 18t39.5 50l117 -13q-14 -64 -76.5 -102t-153.5 -38q-111 0 -177 51
t-66 138q0 55 30 97.5zM661.5 280.5q29.5 42.5 84 65.5t125.5 23q70 0 124 -23.5t84.5 -66.5t30.5 -99t-30.5 -98.5t-84.5 -65.5t-123 -23q-109 0 -174.5 51.5t-65.5 138.5q0 55 29.5 97.5zM780.5 106.5q33.5 -27.5 91.5 -27.5q55 0 88 27t33 74q0 48 -33 75.5t-89 27.5
q-57 0 -90.5 -27t-33.5 -73q0 -49 33.5 -76.5z" />
    <glyph glyph-name="uni2113" unicode="&#x2113;" horiz-adv-x="612" 
d="M195.5 35.5q-56.5 48.5 -61.5 144.5q-63 -17 -125 -30l-32 95q93 22 156 40v234q0 111 64.5 163t158.5 52q106 0 160 -53.5t54 -145.5q0 -103 -77.5 -180.5t-226.5 -132.5q2 -65 36 -95t108 -30q31 0 54.5 2.5t57.5 8.5v-108q-65 -13 -135 -13q-135 0 -191.5 48.5z
M396.5 412q44.5 48 44.5 119q0 54 -22.5 81t-65.5 27q-41 0 -64 -26.5t-23 -75.5v-208q86 35 130.5 83z" />
    <glyph glyph-name="uni2116" unicode="&#x2116;" horiz-adv-x="1653" 
d="M1108 228.5q-70 29.5 -107.5 80.5t-37.5 116t37 116.5t107.5 80.5t165.5 29t165.5 -29t107.5 -80.5t37 -116.5t-37.5 -116t-107.5 -80.5t-165 -29.5t-165 29.5zM105 710h168l448 -472q37 -41 52 -73h3l-1 93v452h136v-710h-153l-462 482q-16 16 -30 36t-22 35h-3v-88
v-465h-136v710zM967 97h612v-97h-612v97zM1138 328q49 -37 135 -37t135 36.5t49 97.5q0 60 -49 97t-135 37t-135 -37t-49 -97t49 -97z" />
    <glyph glyph-name="trademark" unicode="&#x2122;" horiz-adv-x="1134" 
d="M543 716h141l104 -241q21 -51 31 -88h2q10 37 31 88l104 241h142v-406h-88v253q0 51 3 81h-2q-8 -24 -28 -70l-117 -264h-92l-117 264q-20 46 -28 70h-2q3 -30 3 -81v-253h-87v406zM37 716h459v-77h-184v-329h-98v329h-177v77z" />
    <glyph glyph-name="uni2126" unicode="&#x2126;" horiz-adv-x="1055" 
d="M365.5 587q-69.5 -31 -107.5 -88t-38 -133q0 -94 57.5 -161t149.5 -93v-112h-374v112h206v3q-97 43 -147 114t-50 165q0 103 58 180t163.5 118.5t244.5 41.5q138 0 243.5 -41.5t163.5 -118.5t58 -180q0 -94 -50 -165t-147 -114v-3h206v-112h-374v112q92 26 149.5 93
t57.5 161q0 76 -37.5 133t-107 88t-162.5 31t-162.5 -31z" />
    <glyph glyph-name="estimated" unicode="&#x212e;" horiz-adv-x="830" 
d="M213.5 43.5q-88.5 43.5 -138 124t-49.5 186.5q0 105 49.5 186t138 125.5t201.5 44.5q115 0 200.5 -42.5t134.5 -124.5t54 -198h-619q-8 0 -11.5 -3t-3.5 -15v-174q0 -20 32.5 -50t88.5 -52.5t124 -22.5q71 0 136.5 31.5t109.5 81.5h72q-70 -78 -140 -109.5t-178 -31.5
q-113 0 -201.5 43.5zM185 367h457q11 0 14 3.5t3 12.5v171q0 27 -38.5 58t-96 52t-110.5 21q-64 0 -120 -23t-90 -53.5t-34 -47.5v-185q0 -9 15 -9z" />
    <glyph glyph-name="uni2153" unicode="&#x2153;" horiz-adv-x="1106" 
d="M111.5 565q-28.5 -9 -60.5 -9h-26v83h15q47 0 82 18.5t49 53.5h85v-391h-99v272q-17 -18 -45.5 -27zM691 727h126l-588 -744h-126zM676.5 23q-59.5 37 -63.5 102l101 7q4 -37 36 -56.5t89 -19.5q55 0 89 14t34 44q0 27 -25.5 39t-91.5 12h-52v66h53q54 0 80.5 11.5
t26.5 36.5q0 28 -30.5 41.5t-82.5 13.5q-120 0 -124 -76l-99 8q2 65 61 102t163 37q97 0 155.5 -29.5t58.5 -86.5q0 -41 -30.5 -62t-80.5 -25q62 -6 92.5 -28.5t30.5 -62.5q0 -59 -63 -92t-165 -33q-103 0 -162.5 37z" />
    <glyph glyph-name="uni2154" unicode="&#x2154;" horiz-adv-x="1288" 
d="M67 398q107 41 165.5 66.5t95 55.5t36.5 65q0 31 -29 49.5t-80 18.5q-49 0 -81.5 -18t-32.5 -58q0 -8 3 -17l-103 8q-2 8 -2 21q0 65 61.5 100.5t153.5 35.5q98 0 156.5 -32.5t58.5 -98.5q0 -67 -72.5 -114.5t-186.5 -85.5h269v-74h-444v66zM874 727h126l-588 -744h-126z
M859.5 23q-59.5 37 -63.5 102l101 7q4 -37 36 -56.5t89 -19.5q55 0 89 14t34 44q0 27 -25.5 39t-91.5 12h-52v66h53q54 0 80.5 11.5t26.5 36.5q0 28 -30.5 41.5t-82.5 13.5q-120 0 -124 -76l-99 8q2 65 61 102t163 37q97 0 155.5 -29.5t58.5 -86.5q0 -41 -30.5 -62
t-80.5 -25q62 -6 92.5 -28.5t30.5 -62.5q0 -59 -63 -92t-165 -33q-103 0 -162.5 37z" />
    <glyph glyph-name="oneeighth" unicode="&#x215b;" horiz-adv-x="1111" 
d="M111.5 565q-28.5 -9 -60.5 -9h-26v83h15q47 0 82 18.5t49 53.5h85v-391h-99v272q-17 -18 -45.5 -27zM691 727h126l-588 -744h-126zM677 16q-61 30 -61 83q0 37 28.5 61.5t81.5 34.5q-52 14 -74.5 38t-22.5 59q0 52 58 82.5t158 30.5t158.5 -29t58.5 -79q0 -32 -24 -53
t-71 -29q59 -16 83.5 -42t24.5 -67q0 -56 -60.5 -88t-168.5 -32t-169 30zM752.5 67q33.5 -17 93.5 -17q58 0 92 16t34 44q0 24 -21.5 37.5t-85.5 23.5l-62 9q-84 -19 -84 -66q0 -30 33.5 -47zM753.5 256q22.5 -13 74.5 -20l64 -8q38 10 53.5 24t15.5 35q0 27 -30.5 42
t-85.5 15q-53 0 -83.5 -14.5t-30.5 -38.5q0 -22 22.5 -35z" />
    <glyph glyph-name="threeeighths" unicode="&#x215c;" horiz-adv-x="1297" 
d="M96.5 343q-59.5 37 -63.5 102l101 7q4 -37 36 -56.5t89 -19.5q55 0 89 14t34 44q0 27 -25.5 39t-91.5 12h-52v66h53q54 0 80.5 11.5t26.5 36.5q0 28 -30.5 41.5t-82.5 13.5q-120 0 -124 -76l-99 8q2 65 61 102t163 37q97 0 155.5 -29.5t58.5 -86.5q0 -41 -30.5 -62
t-80.5 -25q62 -6 92.5 -28.5t30.5 -62.5q0 -59 -63 -92t-165 -33q-103 0 -162.5 37zM876 727h126l-588 -744h-126zM863 16q-61 30 -61 83q0 37 28.5 61.5t81.5 34.5q-52 14 -74.5 38t-22.5 59q0 52 58 82.5t158 30.5t158.5 -29t58.5 -79q0 -32 -24 -53t-71 -29
q59 -16 83.5 -42t24.5 -67q0 -56 -60.5 -88t-168.5 -32t-169 30zM938.5 67q33.5 -17 93.5 -17q58 0 92 16t34 44q0 24 -21.5 37.5t-85.5 23.5l-62 9q-84 -19 -84 -66q0 -30 33.5 -47zM939.5 256q22.5 -13 74.5 -20l64 -8q38 10 53.5 24t15.5 35q0 27 -30.5 42t-85.5 15
q-53 0 -83.5 -14.5t-30.5 -38.5q0 -22 22.5 -35z" />
    <glyph glyph-name="fiveeighths" unicode="&#x215d;" horiz-adv-x="1279" 
d="M104.5 337.5q-57.5 31.5 -68.5 84.5l98 11q7 -28 39 -43t82 -15q55 0 86 20.5t31 55.5t-30 53.5t-85 18.5q-42 0 -74.5 -13.5t-42.5 -33.5l-89 7l27 228h366v-63h-289l-14 -112q19 25 58.5 38t90.5 13q87 0 135.5 -36t48.5 -99q0 -66 -60 -106t-162 -40
q-90 0 -147.5 31.5zM859 727h126l-588 -744h-126zM845 16q-61 30 -61 83q0 37 28.5 61.5t81.5 34.5q-52 14 -74.5 38t-22.5 59q0 52 58 82.5t158 30.5t158.5 -29t58.5 -79q0 -32 -24 -53t-71 -29q59 -16 83.5 -42t24.5 -67q0 -56 -60.5 -88t-168.5 -32t-169 30zM920.5 67
q33.5 -17 93.5 -17q58 0 92 16t34 44q0 24 -21.5 37.5t-85.5 23.5l-62 9q-84 -19 -84 -66q0 -30 33.5 -47zM921.5 256q22.5 -13 74.5 -20l64 -8q38 10 53.5 24t15.5 35q0 27 -30.5 42t-85.5 15q-53 0 -83.5 -14.5t-30.5 -38.5q0 -22 22.5 -35z" />
    <glyph glyph-name="seveneighths" unicode="&#x215e;" horiz-adv-x="1176" 
d="M18 711h421v-71q-86 -53 -138 -137.5t-56 -181.5v-1h-108v2q2 92 54 173.5t148 140.5h-321v75zM755 727h126l-588 -744h-126zM741 16q-61 30 -61 83q0 37 28.5 61.5t81.5 34.5q-52 14 -74.5 38t-22.5 59q0 52 58 82.5t158 30.5t158.5 -29t58.5 -79q0 -32 -24 -53t-71 -29
q59 -16 83.5 -42t24.5 -67q0 -56 -60.5 -88t-168.5 -32t-169 30zM816.5 67q33.5 -17 93.5 -17q58 0 92 16t34 44q0 24 -21.5 37.5t-85.5 23.5l-62 9q-84 -19 -84 -66q0 -30 33.5 -47zM817.5 256q22.5 -13 74.5 -20l64 -8q38 10 53.5 24t15.5 35q0 27 -30.5 42t-85.5 15
q-53 0 -83.5 -14.5t-30.5 -38.5q0 -22 22.5 -35z" />
    <glyph glyph-name="arrowleft" unicode="&#x2190;" horiz-adv-x="1269" 
d="M291 289v-99l-186 140l186 140v-99h873v-82h-873z" />
    <glyph glyph-name="arrowup" unicode="&#x2191;" horiz-adv-x="492" 
d="M105 562l141 188l141 -188h-98v-597h-86v597h-98z" />
    <glyph glyph-name="arrowright" unicode="&#x2192;" horiz-adv-x="1269" 
d="M978 371v99l186 -140l-186 -140v99h-873v82h873z" />
    <glyph glyph-name="arrowdown" unicode="&#x2193;" horiz-adv-x="492" 
d="M387 148l-141 -188l-141 188h98v597h86v-597h98z" />
    <glyph glyph-name="arrowboth" unicode="&#x2194;" horiz-adv-x="1269" 
d="M291 289v-99l-186 140l186 140v-99h687v99l186 -140l-186 -140v99h-687z" />
    <glyph glyph-name="arrowupdn" unicode="&#x2195;" horiz-adv-x="492" 
d="M203 148v414h-98l141 188l141 -188h-98v-414h98l-141 -188l-141 188h98z" />
    <glyph glyph-name="uni2196" unicode="&#x2196;" horiz-adv-x="934" 
d="M105 468v242h236l-88 -90l576 -575l-59 -62l-577 575z" />
    <glyph glyph-name="uni2197" unicode="&#x2197;" horiz-adv-x="934" 
d="M164 -16l-59 62l576 575l-88 90h236v-242l-88 90z" />
    <glyph glyph-name="uni2198" unicode="&#x2198;" horiz-adv-x="934" 
d="M829 253v-242h-236l88 90l-576 575l59 62l577 -575z" />
    <glyph glyph-name="uni2199" unicode="&#x2199;" horiz-adv-x="934" 
d="M770 738l59 -62l-576 -575l88 -90h-236v242l88 -90z" />
    <glyph glyph-name="uni21A9" unicode="&#x21a9;" horiz-adv-x="1277" 
d="M105 330l186 140v-99h605q94 0 140 30t46 91q0 121 -186 121h-436v81h454q125 0 191.5 -51.5t66.5 -150.5q0 -96 -69 -149.5t-207 -53.5h-605v-99z" />
    <glyph glyph-name="uni21AA" unicode="&#x21aa;" horiz-adv-x="1277" 
d="M986 289h-605q-138 0 -207 53.5t-69 149.5q0 99 66.5 150.5t191.5 51.5h454v-81h-436q-186 0 -186 -121q0 -61 46 -91t140 -30h605v99l186 -140l-186 -140v99z" />
    <glyph glyph-name="uni21B0" unicode="&#x21b0;" horiz-adv-x="1259" 
d="M1068 559h-777v-99l-186 140l186 140v-100h864v-640h-87v559z" />
    <glyph glyph-name="uni21B1" unicode="&#x21b1;" horiz-adv-x="1259" 
d="M104 0v640h864v100l186 -140l-186 -140v99h-777v-559h-87z" />
    <glyph glyph-name="uni21B2" unicode="&#x21b2;" horiz-adv-x="1259" 
d="M1155 710v-640h-864v-100l-186 140l186 140v-99h777v559h87z" />
    <glyph glyph-name="uni21B3" unicode="&#x21b3;" horiz-adv-x="1259" 
d="M191 151h777v99l186 -140l-186 -140v100h-864v640h87v-559z" />
    <glyph glyph-name="uni21B4" unicode="&#x21b4;" horiz-adv-x="1358" 
d="M974 164h99v481h-968v77h1050v-558h98l-140 -186z" />
    <glyph glyph-name="uni21BB" unicode="&#x21bb;" horiz-adv-x="1245" 
d="M341 16.5q-107 46.5 -171.5 133.5t-64.5 203q0 115 63.5 202t170.5 134t235 47t233.5 -45t169 -127.5t68.5 -191.5h96l-142 -188l-141 188h100q-6 85 -58.5 148t-138 97t-187.5 34q-104 0 -191 -37t-137.5 -104.5t-50.5 -155.5q0 -90 52 -158t139 -104.5t189 -36.5
q87 0 168.5 26t139.5 71l53 -65q-65 -56 -160.5 -86.5t-201.5 -30.5q-126 0 -233 46.5z" />
    <glyph glyph-name="uni21C4" unicode="&#x21c4;" horiz-adv-x="1321" 
d="M105 454l182 138v-99h868v-78h-868v-98zM166 249h868v98l182 -137l-183 -138v99h-867v78z" />
    <glyph glyph-name="uni21C5" unicode="&#x21c5;" horiz-adv-x="748" 
d="M105 150h98v535h86v-535h98l-141 -188zM501 750l142 -188h-98v-533h-87v533h-98z" />
    <glyph glyph-name="partialdiff" unicode="&#x2202;" horiz-adv-x="805" 
d="M196.5 13.5q-74.5 30.5 -115 86t-40.5 127.5q0 69 36.5 121.5t107 81t167.5 28.5q83 0 150.5 -23.5t111.5 -70.5q-1 117 -71.5 182t-204.5 65q-43 0 -81 -6.5t-81 -19.5l-42 100q44 17 97.5 26.5t106.5 9.5q202 0 308 -100.5t106 -282.5q0 -108 -44 -188t-130 -123.5
t-208 -43.5q-99 0 -173.5 30.5zM232 121.5q53 -39.5 145 -39.5q97 0 163 46.5t73 134.5q-35 47 -95 71.5t-141 24.5q-98 0 -148 -36t-50 -99t53 -102.5z" />
    <glyph glyph-name="emptyset" unicode="&#x2205;" horiz-adv-x="691" 
d="M32 98l69 54q-61 63 -61 152q0 71 37.5 124.5t107 83t161.5 29.5q115 0 193 -45l75 58l45 -43l-69 -54q61 -63 61 -152q0 -71 -37.5 -124.5t-107 -83t-161.5 -29.5q-114 0 -193 45l-75 -59zM183 216l274 215q-45 21 -111 21q-91 0 -142.5 -40t-51.5 -107q0 -52 31 -89z
M345 157q91 0 142.5 39.5t51.5 107.5q0 52 -31 89l-273 -215q48 -21 110 -21z" />
    <glyph glyph-name="uni2206" unicode="&#x2206;" horiz-adv-x="933" 
d="M396 710h143l378 -710h-901zM712 109l-246 473l-249 -473h495z" />
    <glyph glyph-name="product" unicode="&#x220f;" horiz-adv-x="945" 
d="M709 586h-474v-674h-140v793h755v-793h-141v674z" />
    <glyph glyph-name="summation" unicode="&#x2211;" horiz-adv-x="836" 
d="M50 13l388 311l-375 281v100h709v-111h-510l363 -267l-392 -304h551v-111h-734v101z" />
    <glyph glyph-name="minus" unicode="&#x2212;" 
d="M106 378h591v-100h-591v100z" />
    <glyph glyph-name="radical" unicode="&#x221a;" horiz-adv-x="814" 
d="M238 334l115 -287l297 688h143l-366 -829h-143l-136 315h-126v113h216z" />
    <glyph glyph-name="infinity" unicode="&#x221e;" 
d="M97 213q-48 41 -48 114q0 71 49 114t123 43q54 0 100 -22.5t83 -62.5q37 40 80.5 62.5t99.5 22.5q74 0 122 -41t48 -114q0 -71 -49 -114t-123 -43q-54 0 -100 22.5t-83 62.5q-38 -40 -81 -62.5t-99 -22.5q-74 0 -122 41zM172 279q24 -17 60 -17q34 0 60.5 17t54.5 49
q-27 32 -55 49.5t-62 17.5q-35 0 -58.5 -17.5t-23.5 -49.5t24 -49zM511.5 278q27.5 -17 62.5 -17t58 17.5t23 49.5t-23.5 49t-59.5 17q-35 0 -61.5 -17t-53.5 -49q27 -33 54.5 -50z" />
    <glyph glyph-name="integral" unicode="&#x222b;" horiz-adv-x="577" 
d="M22 -109v107q38 -5 65 -5q63 0 94 32.5t31 112.5v341q0 120 65 180t188 60q39 0 78 -6v-108q-29 6 -67 6q-63 0 -93 -32t-30 -113v-342q0 -119 -66.5 -179t-188.5 -60q-37 0 -76 6z" />
    <glyph glyph-name="approxequal" unicode="&#x2248;" 
d="M480 361.5q-32 7.5 -84 23.5q-42 14 -73 21.5t-60 7.5q-43 0 -84 -14t-68 -36v96q25 21 67 35t83 14q40 0 74.5 -8.5t82.5 -24.5q41 -14 68.5 -20.5t55.5 -6.5q43 0 83.5 14t66.5 36v-96q-23 -22 -64.5 -35.5t-82.5 -13.5q-33 0 -65 7.5zM111 265q25 22 66.5 35.5
t83.5 13.5q40 0 74.5 -8.5t82.5 -24.5q41 -14 68.5 -20.5t55.5 -6.5q43 0 83.5 14t66.5 36v-96q-23 -21 -65 -35t-82 -14q-33 0 -65 7.5t-84 23.5q-42 14 -73 21.5t-60 7.5q-43 0 -84 -14t-68 -36v96z" />
    <glyph glyph-name="notequal" unicode="&#x2260;" 
d="M583 591l-64 -119h173v-95h-225l-52 -96h277v-95h-328l-67 -123h-76l66 123h-176v95h228l51 96h-279v95h331l64 119h77z" />
    <glyph glyph-name="lessequal" unicode="&#x2264;" 
d="M682 126v-94h-560v94h560zM122 423l560 163v-97l-404 -113l404 -111v-101l-560 167v92z" />
    <glyph glyph-name="greaterequal" unicode="&#x2265;" 
d="M681 32h-560v94h560v-94zM121 265l404 111l-404 113v97l560 -163v-92l-560 -167v101z" />
    <glyph glyph-name="uni2460" unicode="&#x2460;" horiz-adv-x="941" 
d="M399.5 403q-28.5 -9 -60.5 -9h-26v83h15q47 0 82 18.5t49 53.5h85v-391h-99v272q-17 -18 -45.5 -27zM235.5 21.5q-100.5 45.5 -155 131t-54.5 202.5t54.5 202.5t155 131t234.5 45.5t234.5 -45.5t155.5 -131t55 -202.5t-55 -202.5t-155.5 -131t-234.5 -45.5t-234.5 45.5z
M136.5 182.5q47.5 -73.5 134 -112.5t199.5 -39t199.5 39t134.5 112.5t48 172.5t-48 172.5t-134.5 112.5t-199.5 39t-199.5 -39t-134 -112.5t-47.5 -172.5t47.5 -172.5z" />
    <glyph glyph-name="uni2461" unicode="&#x2461;" horiz-adv-x="941" 
d="M280 245q107 41 165.5 66.5t95 55.5t36.5 65q0 31 -29 49.5t-80 18.5q-49 0 -81.5 -18t-32.5 -58q0 -8 3 -17l-103 8q-2 8 -2 21q0 65 61.5 100.5t153.5 35.5q98 0 156.5 -32.5t58.5 -98.5q0 -67 -72.5 -114.5t-186.5 -85.5h269v-74h-444v66zM235.5 21.5
q-100.5 45.5 -155 131t-54.5 202.5t54.5 202.5t155 131t234.5 45.5t234.5 -45.5t155.5 -131t55 -202.5t-55 -202.5t-155.5 -131t-234.5 -45.5t-234.5 45.5zM136.5 182.5q47.5 -73.5 134 -112.5t199.5 -39t199.5 39t134.5 112.5t48 172.5t-48 172.5t-134.5 112.5t-199.5 39
t-199.5 -39t-134 -112.5t-47.5 -172.5t47.5 -172.5z" />
    <glyph glyph-name="uni2462" unicode="&#x2462;" horiz-adv-x="941" 
d="M306.5 183q-59.5 37 -63.5 102l101 7q4 -37 36 -56.5t89 -19.5q55 0 89 14t34 44q0 27 -25.5 39t-91.5 12h-52v66h53q54 0 80.5 11.5t26.5 36.5q0 28 -30.5 41.5t-82.5 13.5q-120 0 -124 -76l-99 8q2 65 61 102t163 37q97 0 155.5 -29.5t58.5 -86.5q0 -41 -30.5 -62
t-80.5 -25q62 -6 92.5 -28.5t30.5 -62.5q0 -59 -63 -92t-165 -33q-103 0 -162.5 37zM235.5 21.5q-100.5 45.5 -155 131t-54.5 202.5t54.5 202.5t155 131t234.5 45.5t234.5 -45.5t155.5 -131t55 -202.5t-55 -202.5t-155.5 -131t-234.5 -45.5t-234.5 45.5zM136.5 182.5
q47.5 -73.5 134 -112.5t199.5 -39t199.5 39t134.5 112.5t48 172.5t-48 172.5t-134.5 112.5t-199.5 39t-199.5 -39t-134 -112.5t-47.5 -172.5t47.5 -172.5z" />
    <glyph glyph-name="uni2463" unicode="&#x2463;" horiz-adv-x="941" 
d="M602 258v-86h-98v86h-305v63l293 242h110v-238h100v-67h-100zM504 325v170l-205 -170h205zM235.5 21.5q-100.5 45.5 -155 131t-54.5 202.5t54.5 202.5t155 131t234.5 45.5t234.5 -45.5t155.5 -131t55 -202.5t-55 -202.5t-155.5 -131t-234.5 -45.5t-234.5 45.5z
M136.5 182.5q47.5 -73.5 134 -112.5t199.5 -39t199.5 39t134.5 112.5t48 172.5t-48 172.5t-134.5 112.5t-199.5 39t-199.5 -39t-134 -112.5t-47.5 -172.5t47.5 -172.5z" />
    <glyph glyph-name="uni2464" unicode="&#x2464;" horiz-adv-x="941" 
d="M316.5 184.5q-57.5 31.5 -68.5 84.5l98 11q7 -28 39 -43t82 -15q55 0 86 20.5t31 55.5t-30 53.5t-85 18.5q-42 0 -74.5 -13.5t-42.5 -33.5l-89 7l27 228h366v-63h-289l-14 -112q19 25 58.5 38t90.5 13q87 0 135.5 -36t48.5 -99q0 -66 -60 -106t-162 -40
q-90 0 -147.5 31.5zM235.5 21.5q-100.5 45.5 -155 131t-54.5 202.5t54.5 202.5t155 131t234.5 45.5t234.5 -45.5t155.5 -131t55 -202.5t-55 -202.5t-155.5 -131t-234.5 -45.5t-234.5 45.5zM136.5 182.5q47.5 -73.5 134 -112.5t199.5 -39t199.5 39t134.5 112.5t48 172.5
t-48 172.5t-134.5 112.5t-199.5 39t-199.5 -39t-134 -112.5t-47.5 -172.5t47.5 -172.5z" />
    <glyph glyph-name="uni2465" unicode="&#x2465;" horiz-adv-x="941" 
d="M299 198q-60 52 -60 151q0 104 62 160t177 56q85 0 140 -26t71 -74l-102 -12q-24 49 -112 49q-65 0 -100.5 -30t-39.5 -99q23 25 65 39t98 14q93 0 144.5 -35.5t51.5 -101.5q0 -65 -60 -104t-161 -39q-114 0 -174 52zM473 215q54 0 87 20t33 54q0 33 -30.5 50.5
t-84.5 17.5q-51 0 -87 -16.5t-50 -45.5q25 -80 132 -80zM235.5 21.5q-100.5 45.5 -155 131t-54.5 202.5t54.5 202.5t155 131t234.5 45.5t234.5 -45.5t155.5 -131t55 -202.5t-55 -202.5t-155.5 -131t-234.5 -45.5t-234.5 45.5zM136.5 182.5q47.5 -73.5 134 -112.5t199.5 -39
t199.5 39t134.5 112.5t48 172.5t-48 172.5t-134.5 112.5t-199.5 39t-199.5 -39t-134 -112.5t-47.5 -172.5t47.5 -172.5z" />
    <glyph glyph-name="uni2466" unicode="&#x2466;" horiz-adv-x="941" 
d="M261 551h421v-71q-86 -53 -138 -137.5t-56 -181.5v-1h-108v2q2 92 54 173.5t148 140.5h-321v75zM235.5 21.5q-100.5 45.5 -155 131t-54.5 202.5t54.5 202.5t155 131t234.5 45.5t234.5 -45.5t155.5 -131t55 -202.5t-55 -202.5t-155.5 -131t-234.5 -45.5t-234.5 45.5z
M136.5 182.5q47.5 -73.5 134 -112.5t199.5 -39t199.5 39t134.5 112.5t48 172.5t-48 172.5t-134.5 112.5t-199.5 39t-199.5 -39t-134 -112.5t-47.5 -172.5t47.5 -172.5z" />
    <glyph glyph-name="uni2467" unicode="&#x2467;" horiz-adv-x="941" 
d="M302 176q-61 30 -61 83q0 37 28.5 61.5t81.5 34.5q-52 14 -74.5 38t-22.5 59q0 52 58 82.5t158 30.5t158.5 -29t58.5 -79q0 -32 -24 -53t-71 -29q59 -16 83.5 -42t24.5 -67q0 -56 -60.5 -88t-168.5 -32t-169 30zM377.5 227q33.5 -17 93.5 -17q58 0 92 16t34 44
q0 24 -21.5 37.5t-85.5 23.5l-62 9q-84 -19 -84 -66q0 -30 33.5 -47zM378.5 416q22.5 -13 74.5 -20l64 -8q38 10 53.5 24t15.5 35q0 27 -30.5 42t-85.5 15q-53 0 -83.5 -14.5t-30.5 -38.5q0 -22 22.5 -35zM235.5 21.5q-100.5 45.5 -155 131t-54.5 202.5t54.5 202.5t155 131
t234.5 45.5t234.5 -45.5t155.5 -131t55 -202.5t-55 -202.5t-155.5 -131t-234.5 -45.5t-234.5 45.5zM136.5 182.5q47.5 -73.5 134 -112.5t199.5 -39t199.5 39t134.5 112.5t48 172.5t-48 172.5t-134.5 112.5t-199.5 39t-199.5 -39t-134 -112.5t-47.5 -172.5t47.5 -172.5z" />
    <glyph glyph-name="uni2468" unicode="&#x2468;" horiz-adv-x="941" 
d="M319.5 176q-55.5 30 -70.5 83l101 12q10 -26 39 -41t75 -15q66 0 100 31.5t38 97.5q-52 -47 -163 -47q-93 0 -145 34t-52 97q0 64 60 100.5t160 36.5q115 0 175.5 -51t60.5 -148q0 -107 -61.5 -163.5t-176.5 -56.5q-85 0 -140.5 30zM375 378.5q31 -17.5 86 -17.5
q48 0 83.5 14t51.5 39q-22 86 -131 86q-56 0 -88.5 -19t-32.5 -52t31 -50.5zM235.5 21.5q-100.5 45.5 -155 131t-54.5 202.5t54.5 202.5t155 131t234.5 45.5t234.5 -45.5t155.5 -131t55 -202.5t-55 -202.5t-155.5 -131t-234.5 -45.5t-234.5 45.5zM136.5 182.5
q47.5 -73.5 134 -112.5t199.5 -39t199.5 39t134.5 112.5t48 172.5t-48 172.5t-134.5 112.5t-199.5 39t-199.5 -39t-134 -112.5t-47.5 -172.5t47.5 -172.5z" />
    <glyph glyph-name="uni24EA" unicode="&#x24ea;" horiz-adv-x="941" 
d="M341.5 171q-55.5 25 -86.5 72.5t-31 111.5q0 98 68 154t178 56q72 0 128 -25t87.5 -72.5t31.5 -112.5q0 -64 -31.5 -111.5t-87 -72.5t-128.5 -25t-128.5 25zM365.5 252q39.5 -35 104.5 -35t104.5 35t39.5 103q0 69 -39.5 104t-104.5 35t-104.5 -35.5t-39.5 -103.5
t39.5 -103zM235.5 21.5q-100.5 45.5 -155 131t-54.5 202.5t54.5 202.5t155 131t234.5 45.5t234.5 -45.5t155.5 -131t55 -202.5t-55 -202.5t-155.5 -131t-234.5 -45.5t-234.5 45.5zM136.5 182.5q47.5 -73.5 134 -112.5t199.5 -39t199.5 39t134.5 112.5t48 172.5t-48 172.5
t-134.5 112.5t-199.5 39t-199.5 -39t-134 -112.5t-47.5 -172.5t47.5 -172.5z" />
    <glyph glyph-name="uni24FF" unicode="&#x24ff;" horiz-adv-x="941" 
d="M235.5 21.5q-100.5 45.5 -155 131t-54.5 202.5t54.5 202.5t155 131t234.5 45.5t234.5 -45.5t155.5 -131t55 -202.5t-55 -202.5t-155.5 -131t-234.5 -45.5t-234.5 45.5zM292.5 202q68.5 -56 178.5 -56t177.5 55.5t67.5 153.5t-68 153.5t-178 55.5t-178 -55t-68 -153
t68.5 -154zM368 458.5q39 34.5 102 34.5q64 0 102.5 -35t38.5 -103t-38.5 -102.5t-101.5 -34.5q-64 0 -103 35t-39 103t39 102.5z" />
    <glyph glyph-name="lozenge" unicode="&#x25ca;" horiz-adv-x="709" 
d="M292 -17l-273 372l273 371h123l275 -371l-275 -372h-123zM354 89l195 266l-195 266l-193 -266z" />
    <glyph glyph-name="circle" unicode="&#x25cb;" horiz-adv-x="941" 
d="M235.5 21.5q-100.5 45.5 -155 131t-54.5 202.5t54.5 202.5t155 131t234.5 45.5t234.5 -45.5t155.5 -131t55 -202.5t-55 -202.5t-155.5 -131t-234.5 -45.5t-234.5 45.5zM136.5 182.5q47.5 -73.5 134 -112.5t199.5 -39t199.5 39t134.5 112.5t48 172.5t-48 172.5
t-134.5 112.5t-199.5 39t-199.5 -39t-134 -112.5t-47.5 -172.5t47.5 -172.5z" />
    <glyph glyph-name="uni25CF" unicode="&#x25cf;" horiz-adv-x="941" 
d="M235.5 21.5q-100.5 45.5 -155 131t-54.5 202.5t54.5 202.5t155 131t234.5 45.5t234.5 -45.5t155.5 -131t55 -202.5t-55 -202.5t-155.5 -131t-234.5 -45.5t-234.5 45.5z" />
    <glyph glyph-name="uni2776" unicode="&#x2776;" horiz-adv-x="941" 
d="M235.5 21.5q-100.5 45.5 -155 131t-54.5 202.5t54.5 202.5t155 131t234.5 45.5t234.5 -45.5t155.5 -131t55 -202.5t-55 -202.5t-155.5 -131t-234.5 -45.5t-234.5 45.5zM339 392q31 0 59 9t45 28v-271h102v391h-87q-13 -35 -48.5 -53.5t-82.5 -18.5h-15v-85h27z" />
    <glyph glyph-name="uni2777" unicode="&#x2777;" horiz-adv-x="941" 
d="M235.5 21.5q-100.5 45.5 -155 131t-54.5 202.5t54.5 202.5t155 131t234.5 45.5t234.5 -45.5t155.5 -131t55 -202.5t-55 -202.5t-155.5 -131t-234.5 -45.5t-234.5 45.5zM692 161v75h-268q112 38 184.5 86t72.5 114t-58 97.5t-156 31.5q-92 0 -153.5 -34t-61.5 -100
q0 -8 3 -19l104 -8q-3 6 -3 14q0 39 32.5 57t79.5 18q49 0 77.5 -18t28.5 -48q0 -36 -40 -67t-100.5 -58t-184.5 -75v-66h443z" />
    <glyph glyph-name="uni2778" unicode="&#x2778;" horiz-adv-x="941" 
d="M235.5 21.5q-100.5 45.5 -155 131t-54.5 202.5t54.5 202.5t155 131t234.5 45.5t234.5 -45.5t155.5 -131t55 -202.5t-55 -202.5t-155.5 -131t-234.5 -45.5t-234.5 45.5zM306 183q60 -37 163 -37q101 0 164.5 31.5t63.5 89.5q0 39 -31 64t-91 31q48 4 79.5 25t31.5 60
q0 58 -59.5 87.5t-156.5 29.5q-103 0 -162 -37t-61 -102l103 -8q3 78 120 78q50 0 80.5 -15t30.5 -45q0 -24 -26 -36.5t-68 -12.5h-55v-56h57q57 0 79 -16.5t22 -35.5q0 -32 -33.5 -47.5t-86.5 -15.5q-56 0 -88.5 20t-33.5 58l-104 -8q2 -65 62 -102z" />
    <glyph glyph-name="uni2779" unicode="&#x2779;" horiz-adv-x="941" 
d="M235.5 21.5q-100.5 45.5 -155 131t-54.5 202.5t54.5 202.5t155 131t234.5 45.5t234.5 -45.5t155.5 -131t55 -202.5t-55 -202.5t-155.5 -131t-234.5 -45.5t-234.5 45.5zM514 246v-86h100v86h102v67h-102v238h-111l-293 -241v-64h304zM514 481v-168h-203z" />
    <glyph glyph-name="uni277A" unicode="&#x277a;" horiz-adv-x="941" 
d="M235.5 21.5q-100.5 45.5 -155 131t-54.5 202.5t54.5 202.5t155 131t234.5 45.5t234.5 -45.5t155.5 -131t55 -202.5t-55 -202.5t-155.5 -131t-234.5 -45.5t-234.5 45.5zM316.5 184.5q58.5 -31.5 147.5 -31.5q102 0 162 39.5t60 105.5q0 62 -49 98t-135 36q-51 0 -89.5 -13
t-57.5 -37l13 111h288v65h-367l-26 -228l91 -8q9 19 41 32.5t73 13.5q54 0 83.5 -18.5t29.5 -52.5q0 -35 -30.5 -55t-84.5 -20q-48 0 -79 15.5t-38 41.5l-100 -10q9 -53 67.5 -84.5z" />
    <glyph glyph-name="uni277B" unicode="&#x277b;" horiz-adv-x="941" 
d="M235.5 21.5q-100.5 45.5 -155 131t-54.5 202.5t54.5 202.5t155 131t234.5 45.5t234.5 -45.5t155.5 -131t55 -202.5t-55 -202.5t-155.5 -131t-234.5 -45.5t-234.5 45.5zM298.5 197q59.5 -51 173.5 -51q102 0 162.5 38.5t60.5 104.5q0 64 -52 100t-144 36
q-56 0 -97.5 -13.5t-63.5 -38.5q4 69 39 98.5t98 29.5q85 0 110 -47l104 11q-16 48 -71 73.5t-139 25.5q-116 0 -178 -56t-62 -160q0 -100 59.5 -151zM393.5 339.5q34.5 15.5 83.5 15.5q53 0 83 -17.5t30 -49.5q0 -34 -32 -53.5t-86 -19.5q-105 0 -128 82q15 27 49.5 42.5z
" />
    <glyph glyph-name="uni277C" unicode="&#x277c;" horiz-adv-x="941" 
d="M235.5 21.5q-100.5 45.5 -155 131t-54.5 202.5t54.5 202.5t155 131t234.5 45.5t234.5 -45.5t155.5 -131t55 -202.5t-55 -202.5t-155.5 -131t-234.5 -45.5t-234.5 45.5zM582 475q-96 -58 -146 -139.5t-54 -175.5h109q2 96 53 180.5t136 137.5v73h-419v-76h321z" />
    <glyph glyph-name="uni277D" unicode="&#x277d;" horiz-adv-x="941" 
d="M235.5 21.5q-100.5 45.5 -155 131t-54.5 202.5t54.5 202.5t155 131t234.5 45.5q135 0 235.5 -45.5t155 -131t54.5 -202.5t-54.5 -202.5t-155 -131t-235.5 -45.5q-134 0 -234.5 45.5zM302.5 176q61.5 -30 168.5 -30q108 0 168.5 31.5t60.5 88.5q0 45 -28 72t-92 37
q54 10 81 30t27 53q0 49 -59 77.5t-160 28.5q-99 0 -157 -30t-58 -82q0 -38 26 -62.5t86 -36.5q-60 -8 -92.5 -31.5t-32.5 -62.5q0 -53 61.5 -83zM431 339l58 -9q61 -9 83 -22.5t22 -37.5q0 -28 -33 -44t-90 -16q-58 0 -91 17.5t-33 49.5q0 46 84 62zM388 488.5
q30 14.5 82 14.5q54 0 83.5 -15t29.5 -42q0 -25 -15 -37.5t-55 -19.5l-59 7q-51 7 -73.5 20t-22.5 34q0 24 30 38.5z" />
    <glyph glyph-name="uni277E" unicode="&#x277e;" horiz-adv-x="941" 
d="M235.5 21.5q-100.5 45.5 -155 131t-54.5 202.5t54.5 202.5t155 131t234.5 45.5t234.5 -45.5t155.5 -131t55 -202.5t-55 -202.5t-155.5 -131t-234.5 -45.5t-234.5 45.5zM298 331.5q52 -34.5 144 -34.5q111 0 160 43q-4 -63 -37.5 -93.5t-97.5 -30.5q-45 0 -73 15.5
t-37 39.5l-104 -12q16 -53 71 -83t139 -30q116 0 177 57t61 165q0 96 -60.5 146t-175.5 50q-100 0 -159.5 -36t-59.5 -100q0 -62 52 -96.5zM382 481q32 19 87 19t86 -22.5t40 -72.5q-17 -21 -51.5 -32.5t-78.5 -11.5q-53 0 -84 18t-31 49q0 34 32 53z" />
    <glyph glyph-name="uni2B10" unicode="&#x2b10;" horiz-adv-x="1358" 
d="M105 164h98v558h1050v-77h-968v-481h99l-139 -186z" />
    <glyph glyph-name="uniF8FF" unicode="&#xf8ff;" horiz-adv-x="1018" 
d="M20 237h977v-48h-977v48zM20 47h978v-47h-978v47zM20 142h978v-47h-978v47zM20 710h978v-47h-552v-47h552v-48h-552v-47h552v-48h-552v-47h552v-47h-552v-48h552v-47h-978v426zM52 318l-5 -15l12 9l13 -9l-5 15l13 9h-16l-5 15l-4 -15h-16zM52 405l-5 -14l12 9l13 -9
l-5 14l13 9h-16l-5 15l-4 -15h-16zM52 492l-5 -14l12 9l13 -9l-5 14l13 10h-16l-5 14l-4 -14h-16zM52 580l-5 -15l12 9l13 -9l-5 15l13 9h-16l-5 14l-4 -14h-16zM52 667l-5 -15l12 9l13 -9l-5 15l13 9h-16l-5 15l-4 -15h-16zM95 362l-4 -15l12 9l12 -9l-4 15l12 9h-15l-5 14
l-5 -14h-15zM95 623l-4 -14l12 9l12 -9l-4 14l12 9h-15l-5 15l-5 -15h-15zM193 457v-93h80v93h94v80h-94v94h-80v-94h-93v-80h93zM139 318l-5 -15l12 9l13 -9l-5 15l12 9h-15l-5 15l-4 -15h-16zM139 405l-5 -14l12 9l13 -9l-5 14l12 9h-15l-5 15l-4 -15h-16zM139 580l-5 -15
l12 9l13 -9l-5 15l12 9h-15l-5 14l-4 -14h-16zM139 667l-5 -15l12 10l13 -10l-5 15l12 9h-15l-5 15l-4 -15h-16zM226 318l-5 -15l12 9l13 -9l-5 15l12 9h-15l-5 15l-4 -15h-16zM226 667l-5 -15l12 10l13 -10l-5 15l12 9h-15l-5 15l-4 -15h-16zM313 318l-5 -15l12 9l13 -9
l-5 15l12 9h-15l-5 15l-5 -15h-15zM313 405l-5 -14l12 9l13 -9l-5 14l12 9h-15l-5 15l-5 -15h-15zM313 580l-5 -15l12 9l13 -9l-5 15l12 9h-15l-5 14l-5 -14h-15zM313 667l-5 -15l12 10l13 -10l-5 15l12 9h-15l-5 15l-5 -15h-15zM356 362l-5 -15l13 9l12 -9l-5 15l13 9h-16
l-4 14l-5 -14h-15zM356 623l-5 -14l13 9l12 -9l-5 14l13 9h-16l-4 15l-5 -15h-15zM399 318l-4 -15l12 9l13 -9l-5 15l12 9h-15l-5 15l-5 -15h-15zM399 405l-4 -14l12 9l13 -9l-5 14l12 9h-15l-5 15l-5 -15h-15zM399 492l-4 -14l12 9l13 -9l-5 14l12 10h-15l-5 14l-5 -14h-15
zM399 580l-4 -15l12 9l13 -9l-5 15l12 9h-15l-5 14l-5 -14h-15zM399 667l-4 -15l12 10l13 -10l-5 15l12 9h-15l-5 15l-5 -15h-15z" />
    <glyph glyph-name="uniFEFF" unicode="&#xfeff;" horiz-adv-x="0" 
 />
    <glyph glyph-name="u1F503" unicode="&#x1f503;" horiz-adv-x="1177" 
d="M382.5 704q96.5 32 213.5 32q137 0 240 -47.5t159.5 -130.5t60.5 -186h96l-142 -188l-141 188h101q-4 80 -49.5 143t-130 99.5t-199.5 36.5q-185 0 -311 -100l-59 64q65 57 161.5 89zM167 519l142 -188h-104q5 -79 51 -141.5t130 -98.5t198 -36q183 0 310 102l61 -67
q-69 -58 -164 -89t-212 -31q-135 0 -238 47.5t-160.5 129.5t-61.5 184h-93z" />
    <glyph glyph-name="uni004A0301" horiz-adv-x="516" 
d="M151 -15q-82 0 -134 11v124q24 -4 51.5 -7t58.5 -3q80 0 121.5 38.5t41.5 133.5v428h150v-448q0 -277 -289 -277zM448 874h156l-174 -114h-134z" />
    <glyph glyph-name="i.loclTRK" horiz-adv-x="330" 
d="M95 500h140v-500h-140v500zM87 716h156v-133h-156v133z" />
    <glyph glyph-name="uni006A0301" horiz-adv-x="344" 
d="M-45 -204v107q28 -4 75 -4q41 0 60 26t19 88v487h140v-507q0 -98 -48 -151t-162 -53q-55 0 -84 7zM271 730h157l-190 -157h-130z" />
    <glyph glyph-name="zero.zero" horiz-adv-x="885" 
d="M236 22.5q-89 46.5 -138 131t-49 196.5q0 110 49 194t138 129.5t206 45.5t206.5 -45.5t138.5 -129.5t49 -194q0 -112 -49 -196.5t-138.5 -131t-206.5 -46.5t-206 46.5zM229 204l394 336q-66 71 -181 71q-112 0 -178.5 -69t-66.5 -192q0 -85 32 -146zM442 84
q113 0 179.5 70.5t66.5 195.5q0 70 -24 128l-391 -333q66 -61 169 -61z" />
    <glyph glyph-name="zero.tf" 
d="M209 23.5q-82 43.5 -126.5 126.5t-44.5 199q0 114 45 196.5t127 126t192 43.5t192 -43.5t126.5 -126t44.5 -196.5q0 -117 -44.5 -200t-126.5 -126t-192 -43q-111 0 -193 43.5zM240 152.5q56 -70.5 162 -70.5q107 0 162 70.5t55 196.5q0 123 -56 193.5t-161 70.5
q-106 0 -162 -71t-56 -193q0 -126 56 -196.5z" />
    <glyph glyph-name="one.tf" 
d="M272 451q-58 -21 -136 -21h-41v122h25q95 0 162 38.5t95 104.5h124v-580h244v-115h-658v115h272v390q-29 -33 -87 -54z" />
    <glyph glyph-name="two.tf" 
d="M464 317q60 43 83 81t23 86q0 56 -44 91t-126 35q-80 0 -130 -36t-56 -103q0 -17 1 -28l-145 16q0 22 1 34q5 68 51.5 118.5t120 77t160.5 26.5q101 0 172 -27.5t107.5 -78t36.5 -116.5q0 -60 -26.5 -108.5t-88.5 -97.5q-53 -43 -134 -85.5t-204 -92.5h478v-109h-686v96
q292 140 406 221z" />
    <glyph glyph-name="three.tf" 
d="M226.5 8q-75.5 28 -118 78.5t-48.5 117.5l143 13q10 -64 61 -99.5t143 -35.5q90 0 139 30t49 90q0 61 -47.5 87t-133.5 26h-63l1 87h57q75 0 120.5 28t45.5 81q0 47 -43.5 74.5t-130.5 27.5q-89 0 -137.5 -41t-51.5 -109l-143 17q0 60 37 114t112.5 87.5t183.5 33.5
q153 0 236.5 -53.5t83.5 -144.5q0 -66 -51.5 -105t-119.5 -47q85 -9 139 -51.5t54 -119.5q0 -64 -39.5 -112.5t-116 -75t-183.5 -26.5q-103 0 -178.5 28z" />
    <glyph glyph-name="four.tf" 
d="M489 165h-460v83l436 447h161v-430h146v-100h-146v-165h-137v165zM489 265v265q0 39 4 70h-3q-8 -16 -18 -30t-30 -37l-209 -212q-33 -36 -60 -56h316z" />
    <glyph glyph-name="five.tf" 
d="M173.5 33.5q-87.5 53.5 -105.5 143.5l140 13q12 -49 63.5 -77.5t132.5 -28.5q87 0 135.5 39.5t48.5 110.5q0 64 -44.5 104.5t-131.5 40.5q-66 0 -113.5 -24t-71.5 -65l-131 11l42 394h544v-104h-431l-23 -207q33 37 91 62t137 25q85 0 148 -29t97 -83t34 -125
q0 -74 -40.5 -131.5t-117 -90t-179.5 -32.5q-137 0 -224.5 53.5z" />
    <glyph glyph-name="six.tf" 
d="M224.5 23.5q-81.5 43.5 -124.5 126t-43 196.5q0 175 94.5 272t268.5 97q125 0 210.5 -49t104.5 -135l-141 -24q-35 102 -173 102q-107 0 -163.5 -62t-57.5 -179q35 51 97.5 80t148.5 29q142 0 221 -62.5t79 -180.5q0 -73 -40.5 -131t-114.5 -90.5t-172 -32.5
q-113 0 -194.5 43.5zM287.5 123q52.5 -37 134.5 -37t131 41.5t49 106.5q0 70 -47 105.5t-131 35.5q-83 0 -137.5 -38t-72.5 -105q21 -72 73.5 -109z" />
    <glyph glyph-name="seven.tf" 
d="M335 322.5q85 144.5 241 258.5h-509v114h669v-105q-324 -228 -324 -558v-32h-162v17q0 161 85 305.5z" />
    <glyph glyph-name="eight.tf" 
d="M139.5 32q-94.5 52 -94.5 147q0 66 45.5 110.5t132.5 61.5q-76 23 -115.5 64t-39.5 108q0 58 42 101.5t118 67t175 23.5t174.5 -23t116.5 -65.5t41 -98.5q0 -57 -38.5 -96.5t-108.5 -55.5q84 -25 127.5 -68.5t43.5 -116.5q0 -65 -42 -112.5t-121 -73t-189 -25.5
q-173 0 -267.5 52zM249 111q55 -29 158 -29q96 0 150 29.5t54 81.5q0 51 -43.5 76.5t-133.5 41.5l-89 15q-79 -19 -115 -51t-36 -81q0 -54 55 -83zM252.5 455.5q37.5 -24.5 110.5 -37.5l105 -17q64 22 92 49.5t28 67.5q0 45 -48.5 74t-136.5 29t-138 -27.5t-50 -70.5
t37.5 -67.5z" />
    <glyph glyph-name="nine.tf" 
d="M175 30.5q-92 50.5 -111 138.5l147 24q18 -55 66 -80t127 -25q99 0 151 67t52 192q-37 -46 -101 -74t-150 -28q-141 0 -220.5 59t-79.5 172q0 72 41.5 126t117 83.5t174.5 29.5q172 0 266.5 -93t94.5 -263q0 -179 -90.5 -279t-259.5 -100q-133 0 -225 50.5zM248 380
q48 -33 132 -33q86 0 142.5 35t71.5 94q-21 65 -72.5 100t-132.5 35q-87 0 -138 -35.5t-51 -99.5q0 -63 48 -96z" />
    <glyph glyph-name="zero.tf.zero" 
d="M209 23.5q-82 43.5 -126.5 126.5t-44.5 199q0 114 45 196.5t127 126t192 43.5t192 -43.5t126.5 -126t44.5 -196.5q0 -117 -44.5 -200t-126.5 -126t-192 -43q-111 0 -193 43.5zM202 222l366 314q-57 77 -166 77q-106 0 -162 -71t-56 -193q0 -73 18 -127zM402 82
q107 0 162 70.5t55 196.5q0 66 -17 120l-366 -312q58 -75 166 -75z" />
    <glyph glyph-name="dollar.tf" 
d="M388 -19q-139 7 -232 56.5t-129 137.5l124 52q54 -124 237 -139v216l-82 12q-119 17 -175.5 66.5t-56.5 136.5q0 91 79.5 141.5t234.5 54.5v82h65v-83q119 -4 194 -41t114 -109l-114 -60q-22 49 -69 75t-125 31v-202l95 -14q121 -17 174.5 -64t53.5 -136
q0 -102 -82.5 -156.5t-240.5 -57.5v-83h-65v84zM228 472.5q13 -18.5 43.5 -30t85.5 -20.5l31 -5v195q-90 -1 -131.5 -23t-41.5 -68q0 -30 13 -48.5zM594 109.5q44 24.5 44 78.5q0 44 -28 65.5t-95 31.5l-62 9v-209q97 0 141 24.5z" />
    <glyph glyph-name="cent.tf" 
d="M377 -22q-102 5 -174.5 42t-109 97.5t-36.5 133.5t37 132.5t109 96.5t174 43v71h68v-71q123 -6 201 -55t103 -130l-138 -22q-16 47 -58.5 76.5t-107.5 36.5v-357q66 7 108.5 38t60.5 79l134 -28q-28 -77 -104.5 -126.5t-198.5 -56.5v-73h-68v73zM243 130q49 -50 134 -59
v359q-86 -8 -134.5 -57.5t-48.5 -121.5q0 -71 49 -121z" />
    <glyph glyph-name="sterling.tf" 
d="M480 -16.5q-24 3.5 -62 10.5q-44 9 -74.5 13t-69.5 4q-110 0 -221 -19l-26 79q155 41 155 172q0 41 -10 79h-116v76h94q-11 46 -11 83q0 109 79 171.5t218 62.5q123 0 198.5 -45t98.5 -132l-139 -28q-13 52 -53.5 79t-103.5 27q-153 0 -153 -133q0 -42 12 -85h211v-76
h-191q7 -31 7 -60q0 -111 -109 -157q48 8 105 8q39 0 99 -10t95 -10q53 0 86 25t41 73l134 -19q-15 -90 -79.5 -141t-162.5 -51q-28 0 -52 3.5z" />
    <glyph glyph-name="florin.tf" 
d="M412 663.5q68 56.5 204 56.5q47 0 97 -13v-108q-50 12 -92 12q-69 0 -102 -29.5t-45 -101.5l-8 -52h217v-96h-232l-77 -482h-152l79 482h-179v96h194l8 48q20 131 88 187.5z" />
    <glyph glyph-name="yen.tf" 
d="M329 102h-247v62h247v65h-247v62h236l-311 404h164l189 -262q24 -34 41 -71h2q13 31 40 71l190 262h163l-311 -404h236v-62h-247v-65h247v-62h-247v-102h-145v102z" />
    <glyph glyph-name="Euro.tf" 
d="M220 54.5q-91 74.5 -116 203.5h-71v59h63q-1 13 -1 39v3q0 20 1 30h-63v59h71q26 123 119.5 195t234.5 72q114 0 191.5 -44.5t111.5 -129.5l-122 -47q-26 58 -69 85t-117 27q-81 0 -131 -41t-68 -117h263v-59h-271q-1 -9 -1 -28v-5q0 -26 1 -39h271v-59h-262
q18 -81 69.5 -125t133.5 -44q62 0 109 30t77 87l122 -50q-41 -84 -123 -130t-189 -46q-143 0 -234 74.5z" />
    <glyph glyph-name="percent.tf" 
d="M625 730h94l-527 -744h-95zM76 674q48 47 128 47q78 0 127 -48t49 -126t-49 -125t-126 -47q-81 0 -129 47t-48 128q0 77 48 124zM144.5 481.5q22.5 -24.5 60.5 -24.5q36 0 57.5 24t21.5 66q0 43 -22 68t-58 25q-37 0 -59.5 -24.5t-22.5 -65.5v-1q0 -43 22.5 -67.5z
M475 289q48 47 128 47q78 0 127 -48t49 -126t-49 -125t-126 -47q-81 0 -129 47t-48 128q0 77 48 124zM543.5 96.5q22.5 -24.5 60.5 -24.5q36 0 57.5 24t21.5 66q0 43 -22 68t-58 25q-37 0 -59.5 -24.5t-22.5 -65.5v-1q0 -43 22.5 -67.5z" />
    <glyph glyph-name="perthousand.tf" 
d="M64 291l643 304v-81l-643 -303v80zM68.5 669q43.5 41 115.5 41t116 -41t44 -109t-44 -109.5t-116 -41.5t-115.5 41.5t-43.5 109.5t43.5 109zM130 502q20 -21 54 -21q35 0 55 21t20 57v1q0 37 -20 58t-55 21q-34 0 -54 -21t-20 -58v-1q0 -36 20 -57zM272.5 241
q43.5 41 115.5 41q35 0 64.5 -11t50.5 -32q21 21 50.5 32t64.5 11q72 0 115.5 -41t43.5 -110q0 -68 -43.5 -109t-115.5 -41q-35 0 -64.5 11t-50.5 32q-21 -21 -50.5 -32t-64.5 -11q-72 0 -115.5 41t-43.5 109q0 69 43.5 110zM334 73q20 -21 54 -21q35 0 55 21t20 58v1
q0 36 -20 57t-55 21q-34 0 -54 -21t-20 -57v-1q0 -37 20 -58zM563 73q20 -21 55 -21t55 21t20 58v1q0 36 -20 57t-55 21t-55 -21t-20 -57v-1q0 -37 20 -58z" />
    <glyph glyph-name="Adieresis.ss05" horiz-adv-x="965" 
d="M395 710h175l379 -710h-162l-76 150h-457l-76 -150h-162zM657 256l-134 263q-23 49 -39 93h-3q-16 -44 -39 -93l-134 -263h349zM593 761.5q-20 17.5 -20 45.5q0 27 20.5 45t51.5 18t52 -18t21 -45q0 -28 -20.5 -45.5t-52.5 -17.5t-52 17.5zM268 852q21 18 52 18t51.5 -18
t20.5 -45q0 -28 -20 -45.5t-52 -17.5t-52.5 17.5t-20.5 45.5q0 27 21 45z" />
    <glyph glyph-name="uni1EA0.ss05" horiz-adv-x="965" 
d="M395 710h175l379 -710h-162l-76 150h-457l-76 -150h-162zM657 256l-134 263q-23 49 -39 93h-3q-16 -44 -39 -93l-134 -263h349zM421.5 -170q-22.5 17 -22.5 46t22.5 46t61.5 17t61.5 -17t22.5 -46t-22.5 -46t-61.5 -17t-61.5 17z" />
    <glyph glyph-name="Cdotaccent.ss05" horiz-adv-x="960" 
d="M243 22.5q-104 46.5 -160.5 132t-56.5 199.5q0 111 59 197.5t165.5 134.5t244.5 48q171 0 284 -70t148 -197l-156 -23q-25 83 -96.5 127.5t-183.5 44.5q-95 0 -164.5 -31.5t-106.5 -90.5t-37 -139q0 -77 38.5 -136.5t109 -92t163.5 -32.5q109 0 180 40.5t100 120.5
l152 -30q-45 -121 -157.5 -185t-281.5 -64q-140 0 -244 46.5zM429.5 766.5q-22.5 17.5 -22.5 46.5t22.5 46.5t61.5 17.5q38 0 60.5 -17.5t22.5 -46.5t-22.5 -46.5t-60.5 -17.5q-39 0 -61.5 17.5z" />
    <glyph glyph-name="Edieresis.ss05" horiz-adv-x="878" 
d="M805 112v-112h-700v710h693v-112h-543v-183h526v-106h-526v-197h550zM563 761.5q-20 17.5 -20 45.5q0 27 20.5 45t51.5 18t52 -18t21 -45q0 -28 -20.5 -45.5t-52.5 -17.5t-52 17.5zM238 852q21 18 52 18t51.5 -18t20.5 -45q0 -28 -20 -45.5t-52 -17.5t-52.5 17.5
t-20.5 45.5q0 27 21 45z" />
    <glyph glyph-name="Edotaccent.ss05" horiz-adv-x="878" 
d="M805 112v-112h-700v710h693v-112h-543v-183h526v-106h-526v-197h550zM391.5 766.5q-22.5 17.5 -22.5 46.5t22.5 46.5t61.5 17.5q38 0 60.5 -17.5t22.5 -46.5t-22.5 -46.5t-60.5 -17.5q-39 0 -61.5 17.5z" />
    <glyph glyph-name="uni1EB8.ss05" horiz-adv-x="878" 
d="M805 112v-112h-700v710h693v-112h-543v-183h526v-106h-526v-197h550zM405.5 -170q-22.5 17 -22.5 46t22.5 46t61.5 17t61.5 -17t22.5 -46t-22.5 -46t-61.5 -17t-61.5 17z" />
    <glyph glyph-name="uni0122.ss05" horiz-adv-x="989" 
d="M228.5 23.5q-97.5 47.5 -150 132.5t-52.5 195q0 112 57.5 199t163 135.5t246.5 48.5q110 0 199 -28.5t147.5 -80.5t80.5 -123l-160 -28q-22 66 -94.5 106t-178.5 40q-93 0 -162.5 -33t-106.5 -93.5t-37 -141.5q0 -79 37.5 -138.5t107 -92.5t162.5 -33q88 0 154.5 25
t102.5 68t38 95v4h-301v104h439v-384h-115l-9 126q-44 -68 -131 -109t-210 -41q-130 0 -227.5 47.5zM521 -139q-15 -10 -36 -10q-25 0 -41 14.5t-16 37.5q0 26 19.5 41.5t52.5 15.5q35 0 55 -18t20 -53q0 -27 -18.5 -55t-46.5 -48h-63q59 38 74 75z" />
    <glyph glyph-name="Gdotaccent.ss05" horiz-adv-x="989" 
d="M228.5 23.5q-97.5 47.5 -150 132.5t-52.5 195q0 112 57.5 199t163 135.5t246.5 48.5q110 0 199 -28.5t147.5 -80.5t80.5 -123l-160 -28q-22 66 -94.5 106t-178.5 40q-93 0 -162.5 -33t-106.5 -93.5t-37 -141.5q0 -79 37.5 -138.5t107 -92.5t162.5 -33q88 0 154.5 25
t102.5 68t38 95v4h-301v104h439v-384h-115l-9 126q-44 -68 -131 -109t-210 -41q-130 0 -227.5 47.5zM443.5 766.5q-22.5 17.5 -22.5 46.5t22.5 46.5t61.5 17.5q38 0 60.5 -17.5t22.5 -46.5t-22.5 -46.5t-60.5 -17.5q-39 0 -61.5 17.5z" />
    <glyph glyph-name="Idieresis.ss05" horiz-adv-x="359" 
d="M105 0v710h150v-710h-150zM291 761.5q-20 17.5 -20 45.5q0 27 20.5 45t51.5 18t52 -18t21 -45q0 -28 -20.5 -45.5t-52.5 -17.5t-52 17.5zM-34 852q21 18 52 18t51.5 -18t20.5 -45q0 -28 -20 -45.5t-52 -17.5t-52.5 17.5t-20.5 45.5q0 27 21 45z" />
    <glyph glyph-name="Idotaccent.ss05" horiz-adv-x="359" 
d="M105 0v710h150v-710h-150zM118.5 766.5q-22.5 17.5 -22.5 46.5t22.5 46.5t61.5 17.5q38 0 60.5 -17.5t22.5 -46.5t-22.5 -46.5t-60.5 -17.5q-39 0 -61.5 17.5z" />
    <glyph glyph-name="uni1ECA.ss05" horiz-adv-x="359" 
d="M105 0v710h150v-710h-150zM118.5 -170q-22.5 17 -22.5 46t22.5 46t61.5 17t61.5 -17t22.5 -46t-22.5 -46t-61.5 -17t-61.5 17z" />
    <glyph glyph-name="uni0136.ss05" horiz-adv-x="948" 
d="M105 710h150v-370l450 370h194l-324 -265l350 -445h-183l-284 357l-203 -170v-187h-150v710zM494 -139q-15 -10 -36 -10q-25 0 -41 14.5t-16 37.5q0 26 19.5 41.5t52.5 15.5q35 0 55 -18t20 -53q0 -27 -18.5 -55t-46.5 -48h-63q59 38 74 75z" />
    <glyph glyph-name="uni013B.ss05" horiz-adv-x="799" 
d="M105 710h150v-589h513v-121h-663v710zM458 -139q-15 -10 -36 -10q-25 0 -41 14.5t-16 37.5q0 26 19.5 41.5t52.5 15.5q35 0 55 -18t20 -53q0 -27 -18.5 -55t-46.5 -48h-63q59 38 74 75z" />
    <glyph glyph-name="Ldot.ss05" horiz-adv-x="799" 
d="M105 710h150v-589h513v-121h-663v710zM522 306q-26 26 -26 66t26 66t66 26t66 -26t26 -66t-26 -66t-66 -26t-66 26z" />
    <glyph glyph-name="uni0145.ss05" horiz-adv-x="1016" 
d="M105 710h168l448 -472q37 -41 52 -73h3l-1 93v452h136v-710h-153l-462 482q-16 16 -30 36t-22 35h-3v-88v-465h-136v710zM527 -139q-15 -10 -36 -10q-25 0 -41 14.5t-16 37.5q0 26 19.5 41.5t52.5 15.5q35 0 55 -18t20 -53q0 -27 -18.5 -55t-46.5 -48h-63q59 38 74 75z
" />
    <glyph glyph-name="Odieresis.ss05" horiz-adv-x="994" 
d="M250 23.5q-107 47.5 -165.5 133.5t-58.5 198q0 113 58.5 199t165.5 133t247 47t247 -47t166 -133t59 -199t-58.5 -199t-165.5 -133t-248 -47q-140 0 -247 47.5zM223 218q39 -60 110.5 -93t163.5 -33t163.5 33t111 93t39.5 137q0 78 -39.5 137.5t-110.5 92.5t-164 33
t-164 -33t-110 -92.5t-39 -137.5q0 -77 39 -137zM608 761.5q-20 17.5 -20 45.5q0 27 20.5 45t51.5 18t52 -18t21 -45q0 -28 -20.5 -45.5t-52.5 -17.5t-52 17.5zM283 852q21 18 52 18t51.5 -18t20.5 -45q0 -28 -20 -45.5t-52 -17.5t-52.5 17.5t-20.5 45.5q0 27 21 45z" />
    <glyph glyph-name="uni1ECC.ss05" horiz-adv-x="994" 
d="M250 23.5q-107 47.5 -165.5 133.5t-58.5 198q0 113 58.5 199t165.5 133t247 47t247 -47t166 -133t59 -199t-58.5 -199t-165.5 -133t-248 -47q-140 0 -247 47.5zM223 218q39 -60 110.5 -93t163.5 -33t163.5 33t111 93t39.5 137q0 78 -39.5 137.5t-110.5 92.5t-164 33
t-164 -33t-110 -92.5t-39 -137.5q0 -77 39 -137zM435.5 -170q-22.5 17 -22.5 46t22.5 46t61.5 17t61.5 -17t22.5 -46t-22.5 -46t-61.5 -17t-61.5 17z" />
    <glyph glyph-name="uni0156.ss05" horiz-adv-x="917" 
d="M105 710h472q100 0 161 -31.5t86.5 -80.5t25.5 -105q0 -68 -41.5 -125.5t-130.5 -79.5l199 -288h-173l-186 270h-263v-270h-150v710zM546 375q77 0 111.5 33.5t34.5 82.5q0 47 -34 79t-112 32h-291v-227h291zM462 -139q-15 -10 -36 -10q-25 0 -41 14.5t-16 37.5
q0 26 19.5 41.5t52.5 15.5q35 0 55 -18t20 -53q0 -27 -18.5 -55t-46.5 -48h-63q59 38 74 75z" />
    <glyph glyph-name="uni0218.ss05" horiz-adv-x="888" 
d="M178 31q-112 55 -158 160l124 59q37 -78 119 -120t205 -42q114 0 168 25.5t54 80.5q0 45 -34.5 67.5t-116.5 29.5l-224 23q-127 13 -187.5 62t-60.5 141q0 103 95.5 160t270.5 57q300 0 405 -183l-115 -66q-71 138 -296 138q-101 0 -154.5 -25t-53.5 -73q0 -30 14 -48
t45.5 -28.5t88.5 -16.5l209 -20q141 -15 204 -62.5t63 -141.5q0 -113 -97.5 -172.5t-282.5 -59.5q-173 0 -285 55zM483 -139q-15 -10 -36 -10q-25 0 -41 14.5t-16 37.5q0 26 19.5 41.5t52.5 15.5q35 0 55 -18t20 -53q0 -27 -18.5 -55t-46.5 -48h-63q59 38 74 75z" />
    <glyph glyph-name="uni021A.ss05" horiz-adv-x="805" 
d="M10 710h785v-120h-317v-590h-150v590h-318v120zM419 -139q-15 -10 -36 -10q-25 0 -41 14.5t-16 37.5q0 26 19.5 41.5t52.5 15.5q35 0 55 -18t20 -53q0 -27 -18.5 -55t-46.5 -48h-63q59 38 74 75z" />
    <glyph glyph-name="Udieresis.ss05" horiz-adv-x="968" 
d="M226 710v-376q0 -67 30.5 -121t89 -85t138.5 -31q79 0 137.5 31t89 85t30.5 121v376h150v-387q0 -102 -47.5 -180.5t-139.5 -122.5t-220 -44t-220 44t-140 123t-48 181v386h150zM595 761.5q-20 17.5 -20 45.5q0 27 20.5 45t51.5 18t52 -18t21 -45q0 -28 -20.5 -45.5
t-52.5 -17.5t-52 17.5zM270 852q21 18 52 18t51.5 -18t20.5 -45q0 -28 -20 -45.5t-52 -17.5t-52.5 17.5t-20.5 45.5q0 27 21 45z" />
    <glyph glyph-name="uni1EE4.ss05" horiz-adv-x="968" 
d="M226 710v-376q0 -67 30.5 -121t89 -85t138.5 -31q79 0 137.5 31t89 85t30.5 121v376h150v-387q0 -102 -47.5 -180.5t-139.5 -122.5t-220 -44t-220 44t-140 123t-48 181v386h150zM422.5 -170q-22.5 17 -22.5 46t22.5 46t61.5 17t61.5 -17t22.5 -46t-22.5 -46t-61.5 -17
t-61.5 17z" />
    <glyph glyph-name="Wdieresis.ss05" horiz-adv-x="1315" 
d="M22 710h154l168 -517q2 -8 8 -27t7 -32h3q4 23 19 59l200 517h154l200 -517q15 -40 18 -59h3q2 14 7.5 33t7.5 26l169 517h154l-249 -710h-176l-194 506q-14 36 -15 57h-5q0 -18 -15 -57l-194 -506h-175zM769 761.5q-20 17.5 -20 45.5q0 27 20.5 45t51.5 18t52 -18
t21 -45q0 -28 -20.5 -45.5t-52.5 -17.5t-52 17.5zM444 852q21 18 52 18t51.5 -18t20.5 -45q0 -28 -20 -45.5t-52 -17.5t-52.5 17.5t-20.5 45.5q0 27 21 45z" />
    <glyph glyph-name="Ydieresis.ss05" horiz-adv-x="900" 
d="M372 249l-364 461h176l244 -317l10 -15t11 -21h2q3 13 21 36l249 317h170l-368 -461v-249h-151v249zM562 761.5q-20 17.5 -20 45.5q0 27 20.5 45t51.5 18t52 -18t21 -45q0 -28 -20.5 -45.5t-52.5 -17.5t-52 17.5zM237 852q21 18 52 18t51.5 -18t20.5 -45q0 -28 -20 -45.5
t-52 -17.5t-52.5 17.5t-20.5 45.5q0 27 21 45z" />
    <glyph glyph-name="Zdotaccent.ss05" horiz-adv-x="867" 
d="M607 599h-532v111h734v-104l-552 -495h574v-111h-776v105zM381.5 766.5q-22.5 17.5 -22.5 46.5t22.5 46.5t61.5 17.5q38 0 60.5 -17.5t22.5 -46.5t-22.5 -46.5t-60.5 -17.5q-39 0 -61.5 17.5z" />
    <glyph glyph-name="g.ss01" horiz-adv-x="869" 
d="M157.5 -168q-92.5 46 -114.5 140h154q17 -47 70.5 -68.5t144.5 -21.5q222 0 222 157v70q-37 -52 -110 -82.5t-167 -30.5t-168 34t-115.5 94t-41.5 136q0 77 41 136t115 91t170 32q93 0 166.5 -30t114.5 -85l12 96h123v-458q0 -127 -94.5 -191.5t-275.5 -64.5
q-154 0 -246.5 46zM240 137.5q61 -44.5 164 -44.5q70 0 122.5 20t81.5 56.5t29 84.5v11q0 45 -30 80.5t-84 55.5t-123 20q-102 0 -161.5 -43.5t-59.5 -118.5q0 -77 61 -121.5z" />
    <glyph glyph-name="gbreve.ss01" horiz-adv-x="869" 
d="M157.5 -168q-92.5 46 -114.5 140h154q17 -47 70.5 -68.5t144.5 -21.5q222 0 222 157v70q-37 -52 -110 -82.5t-167 -30.5t-168 34t-115.5 94t-41.5 136q0 77 41 136t115 91t170 32q93 0 166.5 -30t114.5 -85l12 96h123v-458q0 -127 -94.5 -191.5t-275.5 -64.5
q-154 0 -246.5 46zM240 137.5q61 -44.5 164 -44.5q70 0 122.5 20t81.5 56.5t29 84.5v11q0 45 -30 80.5t-84 55.5t-123 20q-102 0 -161.5 -43.5t-59.5 -118.5q0 -77 61 -121.5zM354 663q27 -23 75 -23t74.5 23t31.5 67h101q-6 -77 -60.5 -118.5t-146.5 -41.5t-147 41.5
t-61 118.5h102q4 -44 31 -67z" />
    <glyph glyph-name="gcircumflex.ss01" horiz-adv-x="869" 
d="M157.5 -168q-92.5 46 -114.5 140h154q17 -47 70.5 -68.5t144.5 -21.5q222 0 222 157v70q-37 -52 -110 -82.5t-167 -30.5t-168 34t-115.5 94t-41.5 136q0 77 41 136t115 91t170 32q93 0 166.5 -30t114.5 -85l12 96h123v-458q0 -127 -94.5 -191.5t-275.5 -64.5
q-154 0 -246.5 46zM240 137.5q61 -44.5 164 -44.5q70 0 122.5 20t81.5 56.5t29 84.5v11q0 45 -30 80.5t-84 55.5t-123 20q-102 0 -161.5 -43.5t-59.5 -118.5q0 -77 61 -121.5zM543 573l-113 109l-114 -109h-123l160 157h153l160 -157h-123z" />
    <glyph glyph-name="uni0123.ss01" horiz-adv-x="869" 
d="M157.5 -168q-92.5 46 -114.5 140h154q17 -47 70.5 -68.5t144.5 -21.5q222 0 222 157v70q-37 -52 -110 -82.5t-167 -30.5t-168 34t-115.5 94t-41.5 136q0 77 41 136t115 91t170 32q93 0 166.5 -30t114.5 -85l12 96h123v-458q0 -127 -94.5 -191.5t-275.5 -64.5
q-154 0 -246.5 46zM240 137.5q61 -44.5 164 -44.5q70 0 122.5 20t81.5 56.5t29 84.5v11q0 45 -30 80.5t-84 55.5t-123 20q-102 0 -161.5 -43.5t-59.5 -118.5q0 -77 61 -121.5zM435.5 702q-12.5 -13 -13.5 -33h80v-93h-147v72q0 45 23.5 73.5t81.5 42.5l23 -39
q-35 -10 -47.5 -23z" />
    <glyph glyph-name="gdotaccent.ss01" horiz-adv-x="869" 
d="M157.5 -168q-92.5 46 -114.5 140h154q17 -47 70.5 -68.5t144.5 -21.5q222 0 222 157v70q-37 -52 -110 -82.5t-167 -30.5t-168 34t-115.5 94t-41.5 136q0 77 41 136t115 91t170 32q93 0 166.5 -30t114.5 -85l12 96h123v-458q0 -127 -94.5 -191.5t-275.5 -64.5
q-154 0 -246.5 46zM240 137.5q61 -44.5 164 -44.5q70 0 122.5 20t81.5 56.5t29 84.5v11q0 45 -30 80.5t-84 55.5t-123 20q-102 0 -161.5 -43.5t-59.5 -118.5q0 -77 61 -121.5zM351 716h156v-133h-156v133z" />
    <glyph glyph-name="adieresis.ss05" horiz-adv-x="824" 
d="M118 21.5q-66 40.5 -66 113.5q0 35 14.5 63t42.5 47q30 20 75.5 32t127.5 17l289 16v11q0 51 -48 79t-133 28q-87 0 -139 -25t-62 -72h-151q9 56 54.5 98.5t122 66t175.5 23.5q162 0 242.5 -55t80.5 -163v-132q0 -63 2 -98.5t8 -70.5h-142q-7 39 -7 99
q-76 -118 -303 -118q-117 0 -183 40.5zM237.5 87q39.5 -18 114.5 -18q73 0 130 18t89 51.5t32 78.5v20l-251 -16q-87 -6 -120.5 -24t-33.5 -56q0 -36 39.5 -54zM203.5 598q-23.5 21 -23.5 53q0 33 23.5 54.5t60.5 21.5t61 -21.5t24 -54.5q0 -32 -24 -53t-61 -21t-60.5 21z
M513.5 705.5q23.5 21.5 61.5 21.5q37 0 60.5 -21.5t23.5 -54.5q0 -32 -23.5 -53t-60.5 -21q-38 0 -61.5 21t-23.5 53q0 33 23.5 54.5z" />
    <glyph glyph-name="uni1EA1.ss05" horiz-adv-x="824" 
d="M118 21.5q-66 40.5 -66 113.5q0 35 14.5 63t42.5 47q30 20 75.5 32t127.5 17l289 16v11q0 51 -48 79t-133 28q-87 0 -139 -25t-62 -72h-151q9 56 54.5 98.5t122 66t175.5 23.5q162 0 242.5 -55t80.5 -163v-132q0 -63 2 -98.5t8 -70.5h-142q-7 39 -7 99
q-76 -118 -303 -118q-117 0 -183 40.5zM237.5 87q39.5 -18 114.5 -18q73 0 130 18t89 51.5t32 78.5v20l-251 -16q-87 -6 -120.5 -24t-33.5 -56q0 -36 39.5 -54zM350.5 -170q-22.5 17 -22.5 46t22.5 46t61.5 17t61.5 -17t22.5 -46t-22.5 -46t-61.5 -17t-61.5 17z" />
    <glyph glyph-name="cdotaccent.ss05" horiz-adv-x="789" 
d="M205 14.5q-83 33.5 -128 94.5t-45 142q0 82 45 142.5t128.5 93t196.5 32.5q147 0 236.5 -48.5t116.5 -142.5l-150 -20q-38 109 -208 109q-103 0 -160.5 -43.5t-57.5 -121.5t59 -123.5t160 -45.5q165 0 209 107l147 -22q-25 -88 -120 -137.5t-236 -49.5q-110 0 -193 33.5z
M334 594q-26 22 -26 57q0 34 26 56.5t68 22.5q41 0 67 -22.5t26 -56.5q0 -35 -25.5 -57t-67.5 -22t-68 22z" />
    <glyph glyph-name="edieresis.ss05" horiz-adv-x="793" 
d="M203.5 12.5q-82.5 31.5 -127 91t-44.5 141.5q0 87 45 149t126 93.5t189 31.5q113 0 194.5 -32.5t125 -93.5t43.5 -145v-32h-585q8 -65 68.5 -101t164.5 -36q78 0 136 23t91 67l111 -51q-105 -137 -342 -137q-113 0 -195.5 31.5zM613 300q-1 62 -63.5 98t-157.5 36
q-94 0 -154 -36t-68 -98h443zM180.5 598q-23.5 21 -23.5 53q0 33 23.5 54.5t60.5 21.5t61 -21.5t24 -54.5q0 -32 -24 -53t-61 -21t-60.5 21zM490.5 705.5q23.5 21.5 61.5 21.5q37 0 60.5 -21.5t23.5 -54.5q0 -32 -23.5 -53t-60.5 -21q-38 0 -61.5 21t-23.5 53
q0 33 23.5 54.5z" />
    <glyph glyph-name="edotaccent.ss05" horiz-adv-x="793" 
d="M203.5 12.5q-82.5 31.5 -127 91t-44.5 141.5q0 87 45 149t126 93.5t189 31.5q113 0 194.5 -32.5t125 -93.5t43.5 -145v-32h-585q8 -65 68.5 -101t164.5 -36q78 0 136 23t91 67l111 -51q-105 -137 -342 -137q-113 0 -195.5 31.5zM613 300q-1 62 -63.5 98t-157.5 36
q-94 0 -154 -36t-68 -98h443zM329 594q-26 22 -26 57q0 34 26 56.5t68 22.5q41 0 67 -22.5t26 -56.5q0 -35 -25.5 -57t-67.5 -22t-68 22z" />
    <glyph glyph-name="uni1EB9.ss05" horiz-adv-x="793" 
d="M203.5 12.5q-82.5 31.5 -127 91t-44.5 141.5q0 87 45 149t126 93.5t189 31.5q113 0 194.5 -32.5t125 -93.5t43.5 -145v-32h-585q8 -65 68.5 -101t164.5 -36q78 0 136 23t91 67l111 -51q-105 -137 -342 -137q-113 0 -195.5 31.5zM613 300q-1 62 -63.5 98t-157.5 36
q-94 0 -154 -36t-68 -98h443zM337.5 -170q-22.5 17 -22.5 46t22.5 46t61.5 17t61.5 -17t22.5 -46t-22.5 -46t-61.5 -17t-61.5 17z" />
    <glyph glyph-name="uni0123.ss05" horiz-adv-x="811" 
d="M128 -182q-83 32 -83 99q0 35 21.5 58t67.5 36q-71 28 -71 89q0 40 29.5 67.5t84.5 41.5q-92 48 -92 135q0 82 83 128.5t230 46.5q105 0 182 -25q13 45 52.5 69t100.5 24q21 0 45 -4v-98q-20 5 -53 5q-56 0 -84 -25q71 -45 71 -121q0 -83 -83.5 -130.5t-230.5 -47.5
q-96 0 -168 22q-44 -12 -44 -42q0 -40 75 -40l310 -1q102 0 152 -35.5t50 -106.5q0 -92 -92.5 -134.5t-293.5 -42.5q-176 0 -259 32zM215.5 -118.5q57.5 -18.5 179.5 -18.5q139 0 196.5 18t57.5 60q0 27 -22.5 40t-72.5 13h-314q-16 0 -42 2q-40 -19 -40 -56
q0 -40 57.5 -58.5zM274 270.5q45 -26.5 124 -26.5q80 0 125 26.5t45 73.5t-44.5 72t-125.5 25t-125 -25t-44 -72t45 -73.5zM381 665q14 11 35 11q25 0 41 -14.5t16 -37.5q0 -26 -19.5 -41.5t-52.5 -15.5q-34 0 -54 18t-20 53q0 27 18.5 55t46.5 48h62q-59 -39 -73 -76z" />
    <glyph glyph-name="gdotaccent.ss05" horiz-adv-x="811" 
d="M128 -182q-83 32 -83 99q0 35 21.5 58t67.5 36q-71 28 -71 89q0 40 29.5 67.5t84.5 41.5q-92 48 -92 135q0 82 83 128.5t230 46.5q105 0 182 -25q13 45 52.5 69t100.5 24q21 0 45 -4v-98q-20 5 -53 5q-56 0 -84 -25q71 -45 71 -121q0 -83 -83.5 -130.5t-230.5 -47.5
q-96 0 -168 22q-44 -12 -44 -42q0 -40 75 -40l310 -1q102 0 152 -35.5t50 -106.5q0 -92 -92.5 -134.5t-293.5 -42.5q-176 0 -259 32zM215.5 -118.5q57.5 -18.5 179.5 -18.5q139 0 196.5 18t57.5 60q0 27 -22.5 40t-72.5 13h-314q-16 0 -42 2q-40 -19 -40 -56
q0 -40 57.5 -58.5zM274 270.5q45 -26.5 124 -26.5q80 0 125 26.5t45 73.5t-44.5 72t-125.5 25t-125 -25t-44 -72t45 -73.5zM331 594q-26 22 -26 57q0 34 26 56.5t68 22.5q41 0 67 -22.5t26 -56.5q0 -35 -25.5 -57t-67.5 -22t-68 22z" />
    <glyph glyph-name="i.ss05" horiz-adv-x="330" 
d="M95 500h140v-500h-140v500zM98 594q-26 22 -26 57q0 34 26 56.5t68 22.5q41 0 67 -22.5t26 -56.5q0 -35 -25.5 -57t-67.5 -22t-68 22z" />
    <glyph glyph-name="idieresis.ss05" horiz-adv-x="330" 
d="M95 500h140v-500h-140v500zM-50.5 598q-23.5 21 -23.5 53q0 33 23.5 54.5t60.5 21.5t61 -21.5t24 -54.5q0 -32 -24 -53t-61 -21t-60.5 21zM259.5 705.5q23.5 21.5 61.5 21.5q37 0 60.5 -21.5t23.5 -54.5q0 -32 -23.5 -53t-60.5 -21q-38 0 -61.5 21t-23.5 53
q0 33 23.5 54.5z" />
    <glyph glyph-name="i.loclTRK.ss05" horiz-adv-x="330" 
d="M95 500h140v-500h-140v500zM98 594q-26 22 -26 57q0 34 26 56.5t68 22.5q41 0 67 -22.5t26 -56.5q0 -35 -25.5 -57t-67.5 -22t-68 22z" />
    <glyph glyph-name="uni1ECB.ss05" horiz-adv-x="330" 
d="M95 500h140v-500h-140v500zM98 594q-26 22 -26 57q0 34 26 56.5t68 22.5q41 0 67 -22.5t26 -56.5q0 -35 -25.5 -57t-67.5 -22t-68 22zM103.5 -170q-22.5 17 -22.5 46t22.5 46t61.5 17t61.5 -17t22.5 -46t-22.5 -46t-61.5 -17t-61.5 17z" />
    <glyph glyph-name="ij.ss05" horiz-adv-x="680" 
d="M95 500h140v-500h-140v500zM98 594q-26 22 -26 57q0 34 26 56.5t68 22.5q41 0 67 -22.5t26 -56.5q0 -35 -25.5 -57t-67.5 -22t-68 22zM291 -204v107q28 -4 75 -4q41 0 60 26t19 88v487h140v-507q0 -98 -48 -151t-162 -53q-55 0 -84 7zM444 594q-26 22 -26 57
q0 34 26 56.5t68 22.5q41 0 67 -22.5t26 -56.5q0 -35 -25.5 -57t-67.5 -22t-68 22z" />
    <glyph glyph-name="iogonek.ss05" horiz-adv-x="330" 
d="M98 594q-26 22 -26 57q0 34 26 56.5t68 22.5q41 0 67 -22.5t26 -56.5q0 -35 -25.5 -57t-67.5 -22t-68 22zM-3 -36.5q33 30.5 98 46.5v490h140v-500h-16q-75 -5 -115 -33t-40 -63q0 -21 14 -34t36 -13t37 11.5t23 33.5l89 -13q-8 -44 -50 -68.5t-109 -24.5
q-63 0 -101.5 26.5t-38.5 70.5q0 40 33 70.5z" />
    <glyph glyph-name="j.ss05" horiz-adv-x="344" 
d="M-45 -204v107q28 -4 75 -4q41 0 60 26t19 88v487h140v-507q0 -98 -48 -151t-162 -53q-55 0 -84 7zM108 594q-26 22 -26 57q0 34 26 56.5t68 22.5q41 0 67 -22.5t26 -56.5q0 -35 -25.5 -57t-67.5 -22t-68 22z" />
    <glyph glyph-name="uni0137.ss05" horiz-adv-x="805" 
d="M95 725h140v-457l336 232h193l-247 -174l261 -326h-166l-206 257l-171 -113v-144h-140v725zM412 -139q-15 -10 -36 -10q-25 0 -41 14.5t-16 37.5q0 26 19.5 41.5t52.5 15.5q35 0 55 -18t20 -53q0 -27 -18.5 -55t-46.5 -48h-63q59 38 74 75z" />
    <glyph glyph-name="uni013C.ss05" horiz-adv-x="330" 
d="M235 0h-140v725h140v-725zM181 -139q-15 -10 -36 -10q-25 0 -41 14.5t-16 37.5q0 26 19.5 41.5t52.5 15.5q35 0 55 -18t20 -53q0 -27 -18.5 -55t-46.5 -48h-63q59 38 74 75z" />
    <glyph glyph-name="ldot.ss05" horiz-adv-x="417" 
d="M235 0h-140v725h140v-725zM311 289q-26 26 -26 66t26 66t66 26t66 -26t26 -66t-26 -66t-66 -26t-66 26z" />
    <glyph glyph-name="napostrophe.ss05" horiz-adv-x="1180" 
d="M171 484.5q31 29.5 35 72.5q-18 -15 -46 -15q-34 0 -56 23.5t-22 58.5q0 37 25 61.5t65 24.5q47 0 74 -34t27 -92q0 -79 -44 -129.5t-134 -64.5l-11 57q56 8 87 37.5zM404 500h138v-120q37 68 107.5 103.5t169.5 35.5q140 0 213.5 -70.5t73.5 -206.5v-242h-140v215
q0 197 -197 197q-104 0 -164.5 -52.5t-60.5 -143.5v-216h-140v500z" />
    <glyph glyph-name="uni0146.ss05" horiz-adv-x="871" 
d="M95 500h138v-120q37 68 107.5 103.5t169.5 35.5q140 0 213.5 -70.5t73.5 -206.5v-242h-140v215q0 197 -197 197q-104 0 -164.5 -52.5t-60.5 -143.5v-216h-140v500zM452 -139q-15 -10 -36 -10q-25 0 -41 14.5t-16 37.5q0 26 19.5 41.5t52.5 15.5q35 0 55 -18t20 -53
q0 -27 -18.5 -55t-46.5 -48h-63q59 38 74 75z" />
    <glyph glyph-name="odieresis.ss05" horiz-adv-x="808" 
d="M209.5 14.5q-84.5 33.5 -131 94.5t-46.5 141t46.5 141t131 94.5t194.5 33.5t194.5 -33.5t131 -94.5t46.5 -141t-46.5 -141t-131 -94.5t-194.5 -33.5t-194.5 33.5zM240 126q62 -46 164 -46t163.5 46t61.5 124t-61.5 124t-163.5 46t-164 -46t-62 -124t62 -124zM187.5 598
q-23.5 21 -23.5 53q0 33 23.5 54.5t60.5 21.5t61 -21.5t24 -54.5q0 -32 -24 -53t-61 -21t-60.5 21zM497.5 705.5q23.5 21.5 61.5 21.5q37 0 60.5 -21.5t23.5 -54.5q0 -32 -23.5 -53t-60.5 -21q-38 0 -61.5 21t-23.5 53q0 33 23.5 54.5z" />
    <glyph glyph-name="uni1ECD.ss05" horiz-adv-x="808" 
d="M209.5 14.5q-84.5 33.5 -131 94.5t-46.5 141t46.5 141t131 94.5t194.5 33.5t194.5 -33.5t131 -94.5t46.5 -141t-46.5 -141t-131 -94.5t-194.5 -33.5t-194.5 33.5zM240 126q62 -46 164 -46t163.5 46t61.5 124t-61.5 124t-163.5 46t-164 -46t-62 -124t62 -124zM342.5 -170
q-22.5 17 -22.5 46t22.5 46t61.5 17t61.5 -17t22.5 -46t-22.5 -46t-61.5 -17t-61.5 17z" />
    <glyph glyph-name="uni0157.ss05" horiz-adv-x="529" 
d="M302 471q60 44 143 44q40 0 65 -5v-126q-34 7 -73 7q-52 0 -87.5 -13.5t-61.5 -40.5q-53 -53 -53 -162v-175h-140v500h125v-147q22 74 82 118zM181 -139q-15 -10 -36 -10q-25 0 -41 14.5t-16 37.5q0 26 19.5 41.5t52.5 15.5q35 0 55 -18t20 -53q0 -27 -18.5 -55
t-46.5 -48h-63q59 38 74 75z" />
    <glyph glyph-name="uni0219.ss05" horiz-adv-x="755" 
d="M182.5 14q-89.5 33 -143.5 97l85 63q42 -50 114 -75.5t182 -25.5q80 0 118.5 17t38.5 52q0 25 -18.5 36.5t-68.5 15.5l-230 19q-99 9 -147 44t-48 102q0 77 78 118.5t223 41.5q119 0 203.5 -27.5t132.5 -79.5l-80 -63q-43 42 -106 60.5t-163 18.5q-80 0 -118 -15.5
t-38 -47.5q0 -24 21.5 -36t65.5 -16l234 -19q102 -9 146.5 -42.5t44.5 -98.5q0 -82 -74.5 -127t-229.5 -45q-133 0 -222.5 33zM413 -139q-15 -10 -36 -10q-25 0 -41 14.5t-16 37.5q0 26 19.5 41.5t52.5 15.5q35 0 55 -18t20 -53q0 -27 -18.5 -55t-46.5 -48h-63q59 38 74 75z
" />
    <glyph glyph-name="uni021B.ss05" horiz-adv-x="585" 
d="M11 500h153v124l140 52v-176h240v-96h-240v-192q0 -58 32 -85t97 -27q57 0 111 13v-106q-22 -9 -59.5 -15t-79.5 -6q-128 0 -184.5 53.5t-56.5 149.5v215h-153v96zM399 -139q-15 -10 -36 -10q-25 0 -41 14.5t-16 37.5q0 26 19.5 41.5t52.5 15.5q35 0 55 -18t20 -53
q0 -27 -18.5 -55t-46.5 -48h-63q59 38 74 75z" />
    <glyph glyph-name="udieresis.ss05" horiz-adv-x="859" 
d="M145 45.5q-71 64.5 -71 192.5v262h140v-237q0 -98 52 -138t131 -40q77 0 128 29t75 74.5t24 94.5v217h141v-500h-139v127q-33 -71 -105.5 -108.5t-169.5 -37.5q-135 0 -206 64.5zM200.5 598q-23.5 21 -23.5 53q0 33 23.5 54.5t60.5 21.5t61 -21.5t24 -54.5q0 -32 -24 -53
t-61 -21t-60.5 21zM510.5 705.5q23.5 21.5 61.5 21.5q37 0 60.5 -21.5t23.5 -54.5q0 -32 -23.5 -53t-60.5 -21q-38 0 -61.5 21t-23.5 53q0 33 23.5 54.5z" />
    <glyph glyph-name="uni1EE5.ss05" horiz-adv-x="859" 
d="M145 45.5q-71 64.5 -71 192.5v262h140v-237q0 -98 52 -138t131 -40q77 0 128 29t75 74.5t24 94.5v217h141v-500h-139v127q-33 -71 -105.5 -108.5t-169.5 -37.5q-135 0 -206 64.5zM361.5 -170q-22.5 17 -22.5 46t22.5 46t61.5 17t61.5 -17t22.5 -46t-22.5 -46t-61.5 -17
t-61.5 17z" />
    <glyph glyph-name="wdieresis.ss05" horiz-adv-x="1125" 
d="M14 500h144l141 -347q9 -23 13 -47h2q2 13 7 27.5t7 19.5l161 347h147l160 -347q12 -28 15 -47h2q3 19 12 47l142 347h144l-216 -500h-160l-156 337q-13 30 -15 51h-3q-2 -21 -15 -51l-156 -337h-160zM346.5 598q-23.5 21 -23.5 53q0 33 23.5 54.5t60.5 21.5t61 -21.5
t24 -54.5q0 -32 -24 -53t-61 -21t-60.5 21zM656.5 705.5q23.5 21.5 61.5 21.5q37 0 60.5 -21.5t23.5 -54.5q0 -32 -23.5 -53t-60.5 -21q-38 0 -61.5 21t-23.5 53q0 33 23.5 54.5z" />
    <glyph glyph-name="ydieresis.ss05" horiz-adv-x="739" 
d="M48 -207v111q40 -7 73 -7q60 0 108.5 24.5t72.5 65.5l5 11l-309 502h160l199 -348q12 -22 19 -44h3q5 15 19 43l190 349h154l-302 -528q-54 -99 -125 -142.5t-178 -43.5q-43 0 -89 7zM153.5 598q-23.5 21 -23.5 53q0 33 23.5 54.5t60.5 21.5t61 -21.5t24 -54.5
q0 -32 -24 -53t-61 -21t-60.5 21zM463.5 705.5q23.5 21.5 61.5 21.5q37 0 60.5 -21.5t23.5 -54.5q0 -32 -23.5 -53t-60.5 -21q-38 0 -61.5 21t-23.5 53q0 33 23.5 54.5z" />
    <glyph glyph-name="zdotaccent.ss05" horiz-adv-x="739" 
d="M495 404h-425v96h613v-95l-444 -309h462v-96h-650v97zM307 594q-26 22 -26 57q0 34 26 56.5t68 22.5q41 0 67 -22.5t26 -56.5q0 -35 -25.5 -57t-67.5 -22t-68 22z" />
    <glyph glyph-name="uni0123.ss01.ss05" horiz-adv-x="869" 
d="M157.5 -168q-92.5 46 -114.5 140h154q17 -47 70.5 -68.5t144.5 -21.5q222 0 222 157v70q-37 -52 -110 -82.5t-167 -30.5t-168 34t-115.5 94t-41.5 136q0 77 41 136t115 91t170 32q93 0 166.5 -30t114.5 -85l12 96h123v-458q0 -127 -94.5 -191.5t-275.5 -64.5
q-154 0 -246.5 46zM240 137.5q61 -44.5 164 -44.5q70 0 122.5 20t81.5 56.5t29 84.5v11q0 45 -30 80.5t-84 55.5t-123 20q-102 0 -161.5 -43.5t-59.5 -118.5q0 -77 61 -121.5zM413 665q14 11 35 11q25 0 41 -14.5t16 -37.5q0 -26 -19.5 -41.5t-52.5 -15.5q-34 0 -54 18
t-20 53q0 27 18.5 55t46.5 48h62q-59 -39 -73 -76z" />
    <glyph glyph-name="gdotaccent.ss01.ss05" horiz-adv-x="869" 
d="M157.5 -168q-92.5 46 -114.5 140h154q17 -47 70.5 -68.5t144.5 -21.5q222 0 222 157v70q-37 -52 -110 -82.5t-167 -30.5t-168 34t-115.5 94t-41.5 136q0 77 41 136t115 91t170 32q93 0 166.5 -30t114.5 -85l12 96h123v-458q0 -127 -94.5 -191.5t-275.5 -64.5
q-154 0 -246.5 46zM240 137.5q61 -44.5 164 -44.5q70 0 122.5 20t81.5 56.5t29 84.5v11q0 45 -30 80.5t-84 55.5t-123 20q-102 0 -161.5 -43.5t-59.5 -118.5q0 -77 61 -121.5zM362 594q-26 22 -26 57q0 34 26 56.5t68 22.5q41 0 67 -22.5t26 -56.5q0 -35 -25.5 -57
t-67.5 -22t-68 22z" />
    <glyph glyph-name="fi.ss05" horiz-adv-x="889" 
d="M544 404h-229v-404h-140v404h-155v96h155v27q0 106 62 157t190 51q62 0 117 -12v-103q-51 10 -108 10q-65 0 -93 -23.5t-28 -78.5v-28h229v-96zM654 500h140v-500h-140v500zM657 594q-26 22 -26 57q0 34 26 56.5t68 22.5q41 0 67 -22.5t26 -56.5q0 -35 -25.5 -57
t-67.5 -22t-68 22z" />
    <glyph glyph-name="g_g.liga.ss01" horiz-adv-x="1738" 
d="M157.5 -168q-92.5 46 -114.5 140h154q17 -47 70.5 -68.5t144.5 -21.5q222 0 222 157v70q-37 -52 -110 -82.5t-167 -30.5t-168 34t-115.5 94t-41.5 136q0 77 41 136t115 91t170 32q93 0 166.5 -30t114.5 -85l12 96h123v-458q0 -127 -94.5 -191.5t-275.5 -64.5
q-154 0 -246.5 46zM240 137.5q61 -44.5 164 -44.5q70 0 122.5 20t81.5 56.5t29 84.5v11q0 45 -30 80.5t-84 55.5t-123 20q-102 0 -161.5 -43.5t-59.5 -118.5q0 -77 61 -121.5zM1026.5 -168q-92.5 46 -114.5 140h154q17 -47 70.5 -68.5t144.5 -21.5q222 0 222 157v70
q-37 -52 -110 -82.5t-167 -30.5t-168 34t-115.5 94t-41.5 136q0 77 41 136t115 91t170 32q93 0 166.5 -30t114.5 -85l12 96h123v-458q0 -127 -94.5 -191.5t-275.5 -64.5q-154 0 -246.5 46zM1109 137.5q61 -44.5 164 -44.5q70 0 122.5 20t81.5 56.5t29 84.5v11q0 45 -30 80.5
t-84 55.5t-123 20q-102 0 -161.5 -43.5t-59.5 -118.5q0 -77 61 -121.5z" />
    <glyph glyph-name="a.sups" horiz-adv-x="634" 
d="M97.5 325.5q-48.5 29.5 -48.5 83.5q0 60 50 85t138 30l200 12v8q0 39 -30 58.5t-87 19.5q-54 0 -87.5 -17t-40.5 -49h-132q11 62 82 98t178 36q125 0 183.5 -41.5t58.5 -123.5v-100q0 -76 7 -115h-125q-4 34 -4 70q-20 -39 -75 -61.5t-131 -22.5q-88 0 -136.5 29.5z
M202 378q28 -14 77 -14q70 0 115 28t45 72v21l-161 -11q-57 -4 -80.5 -17t-23.5 -38q0 -27 28 -41z" />
    <glyph glyph-name="b.sups" horiz-adv-x="670" 
d="M202 378l-9 -68h-112v529h125v-230q60 81 199 81q68 0 120.5 -24.5t81 -68.5t28.5 -101q0 -60 -29.5 -105t-83.5 -70t-126 -25q-135 0 -194 82zM242.5 407q42.5 -32 111.5 -32q70 0 111 32t41 87q0 54 -40 85.5t-110 31.5q-69 0 -112.5 -32.5t-43.5 -81.5v-7
q0 -51 42.5 -83z" />
    <glyph glyph-name="c.sups" horiz-adv-x="612" 
d="M162.5 320q-62.5 24 -96.5 68.5t-34 105.5q0 91 74.5 143.5t205.5 52.5q108 0 177.5 -37.5t86.5 -104.5l-131 -16q-11 36 -46.5 56t-91.5 20q-67 0 -106 -30.5t-39 -82.5q0 -53 39.5 -84.5t106.5 -31.5q57 0 93 20t46 57l129 -19q-16 -66 -87 -103.5t-179 -37.5
q-85 0 -147.5 24z" />
    <glyph glyph-name="d.sups" horiz-adv-x="670" 
d="M144.5 321q-52.5 25 -81 70t-28.5 104q0 57 29 101t82.5 69t124.5 25q128 0 194 -76v225h124v-529h-121v75q-29 -42 -79.5 -65.5t-121.5 -23.5q-70 0 -122.5 25zM204 407.5q40 -32.5 109 -32.5q68 0 111.5 32.5t43.5 82.5v7q0 50 -44 82t-113 32t-108 -31t-39 -85
q0 -55 40 -87.5z" />
    <glyph glyph-name="e.sups" horiz-adv-x="604" 
d="M104.5 348.5q-72.5 52.5 -72.5 144.5q0 60 33 104.5t93.5 68.5t141.5 24q128 0 198.5 -55t70.5 -152v-12h-416q5 -46 46.5 -72.5t109.5 -26.5q55 0 98 17.5t63 48.5l86 -42q-35 -48 -99.5 -74t-152.5 -26q-127 0 -199.5 52.5zM442 529q-1 43 -40 69.5t-102 26.5
q-64 0 -103 -26t-44 -70h289z" />
    <glyph glyph-name="f.sups" horiz-adv-x="452" 
d="M428 598h-164v-288h-124v288h-114v77h114v21q0 76 49.5 113.5t150.5 37.5q43 0 88 -8v-82q-34 7 -76 7q-48 0 -68 -16t-20 -54v-19h164v-77z" />
    <glyph glyph-name="g.sups" horiz-adv-x="631" 
d="M98.5 175.5q-60.5 21.5 -60.5 67.5q0 48 68 65q-29 10 -44 28t-15 43q0 31 24 53t69 32q-78 34 -78 100q0 60 64.5 93t180.5 33q86 0 143 -18q11 34 42 51t77 17q19 0 31 -2v-78q-12 3 -40 3q-41 0 -61 -13q51 -32 51 -86q0 -60 -64.5 -93.5t-178.5 -33.5q-73 0 -127 14
q-28 -8 -28 -29q0 -30 50 -30l244 -2q79 -1 116 -25.5t37 -75.5q0 -70 -72.5 -102.5t-233.5 -32.5q-134 0 -194.5 21.5zM171 219q40 -13 142 -13q94 0 130.5 12t36.5 40q0 20 -16 29t-52 10l-248 2h-10q-23 -13 -23 -34q0 -33 40 -46zM221 512.5q31 -18.5 86 -18.5
q53 0 84.5 18.5t31.5 51.5t-30.5 51t-85.5 18t-86 -18t-31 -51t31 -51.5z" />
    <glyph glyph-name="h.sups" horiz-adv-x="674" 
d="M81 839h125v-244q24 45 75 70t120 25q100 0 154.5 -54.5t54.5 -155.5v-170h-124v157q0 66 -34 101t-100 35q-68 0 -107 -36t-39 -100v-157h-125v529z" />
    <glyph glyph-name="i.sups" horiz-adv-x="278" 
d="M77 675h124v-365h-124v365zM74 839h130v-112h-130v112z" />
    <glyph glyph-name="j.sups" horiz-adv-x="287" 
d="M-17 166v88q20 -3 43 -3q58 0 58 74v350h125v-366q0 -75 -39.5 -112t-124.5 -37q-42 0 -62 6zM80 839h130v-112h-130v112z" />
    <glyph glyph-name="k.sups" horiz-adv-x="621" 
d="M81 839h125v-332l230 168h163l-182 -133l188 -232h-142l-141 181l-116 -82v-99h-125v529z" />
    <glyph glyph-name="l.sups" horiz-adv-x="287" 
d="M206 310h-125v529h125v-529z" />
    <glyph glyph-name="m.sups" horiz-adv-x="963" 
d="M198 675v-84q20 47 64 73t105 26q62 0 105 -26t61 -74q26 48 72.5 74t108.5 26q91 0 138.5 -50.5t47.5 -146.5v-183h-124v166q0 123 -110 123q-54 0 -85 -32.5t-31 -88.5v-168h-123v169q0 120 -110 120q-55 0 -85.5 -33.5t-30.5 -92.5v-163h-124v365h121z" />
    <glyph glyph-name="n.sups" horiz-adv-x="669" 
d="M77 675h121v-87q25 49 76.5 75.5t123.5 26.5q101 0 154.5 -53t53.5 -153v-174h-125v156q0 134 -132 134q-71 0 -109.5 -35.5t-38.5 -100.5v-154h-124v365z" />
    <glyph glyph-name="o.sups" horiz-adv-x="623" 
d="M164.5 320q-63.5 24 -98 69t-34.5 104t34.5 103.5t98 69t147.5 24.5t147 -24.5t97 -69t34 -103.5t-34 -104t-97 -69t-147 -24t-147.5 24zM202 406q41 -32 110 -32q67 0 109 32.5t42 86.5t-42 86t-109 32q-68 0 -109.5 -32t-41.5 -86q0 -55 41 -87z" />
    </font>
</defs>
</svg>
