<svg width="781" height="61" viewBox="0 0 781 61" fill="none" xmlns="http://www.w3.org/2000/svg">
<g clip-path="url(#clip0_552_1915)">
<path d="M30.8456 53.1087C40.9828 52.9903 51.1594 49.7943 51.1594 42.4554C51.1594 35.9056 43.0733 34.8008 31.1611 33.7355C19.0122 32.6701 3.51056 30.6184 3.51056 18.0712C3.51056 7.97027 13.6872 0.276223 30.6483 2.59462e-05C47.6094 -0.276171 58.2594 10.1404 58.2594 10.1404L53.1711 16.2167C53.1711 16.2167 43.9806 7.57571 30.4117 7.8519C20.8661 8.04918 12.07 11.3635 12.07 17.4793C12.07 23.5951 21.3789 25.2523 32.6206 26.1203C51.475 27.817 59.7189 31.2497 59.7189 41.5479C59.7189 54.608 46.6233 60.8422 30.7667 60.9606C8.75667 61.1579 0 47.861 0 47.861L6.11389 42.9289C6.11389 42.9289 12.8589 53.306 30.8456 53.1087Z" fill="white"/>
<path d="M206.531 1.2627H259.584V9.03566H214.696V26.0809H246.528V33.8539H214.696V52.1223H259.584V59.8953H206.531V1.2627Z" fill="white"/>
<path d="M403.556 59.8558H395.391V8.9962H370.226V1.2627H428.682V9.03566H403.517V59.8953L403.556 59.8558Z" fill="white"/>
<path d="M131.074 13.731L115.296 59.8558H106.697L82.7544 1.2627H92.2605L110.76 48.6501L126.735 1.2627H135.413L151.388 48.6501L169.887 1.2627H179.393L155.451 59.8558H146.891L131.074 13.731Z" fill="white"/>
<path d="M291.337 1.2627H344.389V9.03566H299.502V26.0809H331.333V33.8539H299.502V52.1223H344.389V59.8953H291.337V1.2627Z" fill="white"/>
<path d="M488.007 38.3125H495.896C495.896 47.427 500.353 53.0693 510.924 53.0693C520.706 53.0693 526.268 46.2038 526.268 34.5247V1.2627H534.433V34.7219C534.433 52.3591 524.887 61.0001 511.082 61.0001C486.626 61.0001 488.007 38.3125 488.007 38.3125Z" fill="white"/>
<path d="M562.912 32.1178V1.2627H571.077V32.1178C571.077 49.1631 580.543 53.1877 591.982 53.1877C603.421 53.1877 612.888 49.2025 612.888 32.1178V1.2627H621.053V32.1178C621.053 54.8054 608.588 61.0001 592.022 61.0001C575.455 61.0001 562.99 54.8054 562.99 32.1178H562.912Z" fill="white"/>
<path d="M652.056 1.2627H660.221V52.0829H703.334V59.8558H652.056V1.2627Z" fill="white"/>
<path d="M781 1.2627H769.798L743.291 29.2769L716.745 1.2627H705.582L739.189 36.6553V59.8558H747.354V36.6553L781 1.2627Z" fill="white"/>
</g>
<defs>
<clipPath id="clip0_552_1915">
<rect width="781" height="61" fill="white"/>
</clipPath>
</defs>
</svg>
