<?xml version="1.0" encoding="UTF-8"?>
<svg id="Layer_2" data-name="Layer 2" xmlns="http://www.w3.org/2000/svg" viewBox="0 0 198 85.41">
  <defs>
    <style>
      .cls-1 {
        fill: #231f20;
        stroke-width: 0px;
      }
    </style>
  </defs>
  <g id="Layer_1-2" data-name="Layer 1">
    <g>
      <g>
        <path class="cls-1" d="m14.24,24.52c4.67-.05,9.38-1.53,9.38-4.92,0-3.02-3.73-3.54-9.23-4.03-5.61-.49-12.77-1.43-12.77-7.24,0-4.67,4.69-8.21,12.53-8.34,7.68-.13,12.74,4.68,12.74,4.68l-2.35,2.81s-4.23-4-10.49-3.87c-4.41.1-8.48,1.62-8.48,4.45,0,2.86,4.3,3.58,9.5,3.99,8.7.79,12.51,2.37,12.51,7.12,0,6.03-6.05,8.91-13.38,8.97-10.17.09-14.2-6.04-14.2-6.04l2.83-2.29s3.11,4.78,11.42,4.69Z"/>
        <path class="cls-1" d="m95.38.58h24.51v3.58h-20.74s0,7.88,0,7.88h14.71v3.58h-14.71s0,8.44,0,8.44h20.74v3.58h-24.51V.58Z"/>
        <path class="cls-1" d="m186.38,27.63h-3.77V4.16s-11.62,0-11.62,0V.58h27.01v3.58h-11.62s0,23.48,0,23.48Z"/>
        <polygon class="cls-1" points="60.54 6.33 53.24 27.63 49.29 27.63 38.23 .59 42.61 .59 51.15 22.47 58.54 .59 62.54 .59 69.92 22.47 78.47 .59 82.85 .59 71.79 27.63 67.84 27.63 60.54 6.33"/>
        <path class="cls-1" d="m134.56.58h24.51v3.58h-20.74s0,7.88,0,7.88h14.71v3.58h-14.71s0,8.44,0,8.44h20.74v3.58h-24.51V.58Z"/>
      </g>
      <g>
        <path class="cls-1" d="m31.2,74.91h3.66c0,4.21,2.06,6.84,6.95,6.84,4.53,0,7.1-3.17,7.1-8.57v-15.41h3.78v15.48c0,8.16-4.42,12.16-10.8,12.16-11.32,0-10.68-10.5-10.68-10.5Z"/>
        <path class="cls-1" d="m65.86,72.04v-14.28h3.78v14.28c0,7.89,4.38,9.74,9.67,9.74s9.67-1.85,9.67-9.74v-14.28h3.78v14.28c0,10.5-5.78,13.37-13.44,13.37-7.67,0-13.45-2.87-13.45-13.37Z"/>
        <path class="cls-1" d="m107.12,57.76h3.78v23.53s19.95,0,19.95,0v3.59h-23.73v-27.12Z"/>
        <polygon class="cls-1" points="166.81 57.76 161.63 57.76 149.35 70.73 137.07 57.76 131.89 57.76 147.46 74.15 147.46 84.88 151.24 84.88 151.24 74.15 166.81 57.76"/>
      </g>
    </g>
  </g>
</svg>